<?xml version="1.0" encoding="utf-8"?>
<!-- Generator: Adobe Illustrator 26.1.0, SVG Export Plug-In . SVG Version: 6.00 Build 0)  -->
<svg version="1.1" id="Layer_1" xmlns="http://www.w3.org/2000/svg" xmlns:xlink="http://www.w3.org/1999/xlink" x="0px" y="0px"
	 viewBox="0 0 224.2 161.8" style="enable-background:new 0 0 224.2 161.8;" xml:space="preserve">
<style type="text/css">
	.st0{fill:#97A821;}
	.st1{fill:#181716;}
</style>
<path class="st0" d="M56.7,85L56.7,85L56.7,85C56.7,85,56.7,85,56.7,85C56.7,85,56.7,85,56.7,85z M63.4,86.8
	C63.4,86.8,63.4,86.8,63.4,86.8C63.4,86.8,63.4,86.8,63.4,86.8L63.4,86.8C63.4,86.8,63.4,86.8,63.4,86.8z M58.3,82.8
	C58.3,82.8,58.3,82.8,58.3,82.8C58.3,82.8,58.3,82.8,58.3,82.8C58.3,82.8,58.3,82.8,58.3,82.8C58.3,82.8,58.3,82.8,58.3,82.8z
	 M63.8,87.3C63.8,87.3,63.8,87.3,63.8,87.3L63.8,87.3C63.8,87.3,63.8,87.3,63.8,87.3C63.8,87.3,63.8,87.3,63.8,87.3z M58.3,82.8
	C58.2,82.8,58.2,82.8,58.3,82.8L58.3,82.8C58.3,82.8,58.3,82.8,58.3,82.8C58.3,82.8,58.3,82.8,58.3,82.8z M63.7,87.3
	C63.7,87.3,63.8,87.3,63.7,87.3C63.8,87.3,63.8,87.3,63.7,87.3C63.8,87.3,63.8,87.3,63.7,87.3C63.7,87.3,63.7,87.3,63.7,87.3z
	 M63.4,86.7C63.4,86.7,63.4,86.7,63.4,86.7C63.4,86.8,63.4,86.8,63.4,86.7C63.4,86.8,63.4,86.8,63.4,86.7
	C63.4,86.7,63.4,86.7,63.4,86.7z M56.3,85.7C56.3,85.7,56.3,85.7,56.3,85.7C56.2,85.7,56.2,85.7,56.3,85.7
	C56.3,85.7,56.3,85.7,56.3,85.7C56.3,85.7,56.3,85.7,56.3,85.7z M56.5,85.9L56.5,85.9L56.5,85.9C56.5,85.9,56.5,85.9,56.5,85.9
	C56.5,85.9,56.5,85.9,56.5,85.9z M57.9,83.6C57.9,83.6,57.9,83.6,57.9,83.6C57.9,83.6,57.9,83.6,57.9,83.6
	C57.9,83.6,57.9,83.6,57.9,83.6C57.9,83.6,57.9,83.6,57.9,83.6z M56.2,85.7C56.2,85.7,56.2,85.7,56.2,85.7L56.2,85.7
	C56.2,85.7,56.2,85.7,56.2,85.7C56.2,85.7,56.2,85.7,56.2,85.7z M57.9,83.6C57.9,83.6,57.9,83.6,57.9,83.6
	C57.9,83.6,57.9,83.6,57.9,83.6L57.9,83.6C57.9,83.6,57.9,83.6,57.9,83.6z M56.5,84.9C56.5,84.9,56.5,84.9,56.5,84.9
	C56.5,84.9,56.5,84.9,56.5,84.9C56.5,84.9,56.5,84.9,56.5,84.9C56.5,84.9,56.5,84.9,56.5,84.9z M56.5,84.9
	C56.5,84.9,56.5,84.9,56.5,84.9L56.5,84.9C56.5,84.9,56.5,84.9,56.5,84.9C56.5,84.9,56.5,84.9,56.5,84.9z M61.7,89.8
	C61.7,89.8,61.7,89.8,61.7,89.8C61.7,89.8,61.7,89.8,61.7,89.8C61.6,89.8,61.6,89.7,61.7,89.8z M63.7,83.9c0.1,0,0.1,0,0.2,0
	c0,0,0,0,0,0c0,0,0,0-0.1,0C63.8,83.9,63.7,83.9,63.7,83.9z M63.7,85.1C63.7,85.1,63.7,85.1,63.7,85.1
	C63.6,85.1,63.6,85.1,63.7,85.1C63.7,85.1,63.7,85.1,63.7,85.1C63.7,85.1,63.7,85.1,63.7,85.1z M60.5,87.4
	C60.5,87.4,60.5,87.4,60.5,87.4C60.5,87.4,60.5,87.4,60.5,87.4c0.3,0.1,0.6,0.2,0.9,0.3c0,0,0,0,0,0c0,0,0,0,0,0
	C61.1,87.5,60.8,87.5,60.5,87.4z M56.9,88.6C56.9,88.6,57,88.6,56.9,88.6C57,88.6,57,88.6,56.9,88.6c0.1,0.1,0.1,0.1,0.1,0.1
	c0,0,0.1,0,0.1,0c0,0,0,0,0,0c0,0,0,0-0.1,0C57,88.6,57,88.6,56.9,88.6C57,88.6,57,88.6,56.9,88.6C57,88.6,56.9,88.6,56.9,88.6
	C56.9,88.6,56.9,88.5,56.9,88.6C56.9,88.5,56.9,88.5,56.9,88.6z M61.1,82.8C61.1,82.8,61.1,82.8,61.1,82.8
	C61.1,82.8,61.1,82.8,61.1,82.8c-0.2-0.1-0.5-0.2-0.7-0.3c0,0,0,0,0,0c0,0,0,0,0,0C60.6,82.6,60.9,82.7,61.1,82.8z M57.8,87.5
	C57.8,87.5,57.8,87.5,57.8,87.5C57.8,87.5,57.8,87.5,57.8,87.5c-0.3-0.1-0.6-0.2-0.8-0.3c0,0,0,0,0,0c0,0,0,0,0,0
	C57.3,87.3,57.6,87.4,57.8,87.5z M56.9,88.4L56.9,88.4C56.9,88.4,56.9,88.3,56.9,88.4C56.9,88.3,56.9,88.3,56.9,88.4
	C56.9,88.4,56.9,88.4,56.9,88.4z M60.6,82C60.6,82,60.7,82,60.6,82L60.6,82L60.6,82z M61.7,82.1C61.7,82.1,61.7,82.1,61.7,82.1
	C61.7,82.1,61.6,82.1,61.7,82.1C61.6,82.1,61.6,82.1,61.7,82.1z M61.5,89.4C61.5,89.4,61.5,89.4,61.5,89.4
	C61.5,89.4,61.5,89.4,61.5,89.4L61.5,89.4L61.5,89.4z M63.5,87.2L63.5,87.2L63.5,87.2C63.5,87.1,63.5,87.2,63.5,87.2
	C63.5,87.2,63.5,87.2,63.5,87.2z M64.1,86.1L64.1,86.1L64.1,86.1C64.1,86.1,64.1,86.1,64.1,86.1C64.1,86.1,64.1,86.1,64.1,86.1z
	 M63.2,86.6L63.2,86.6L63.2,86.6C63.2,86.6,63.2,86.6,63.2,86.6C63.2,86.6,63.2,86.6,63.2,86.6z M58.4,82.9L58.4,82.9L58.4,82.9
	C58.4,82.9,58.4,82.9,58.4,82.9C58.4,82.9,58.4,82.9,58.4,82.9z M61.5,84.9c0.3,0.1,0.5,0.2,0.8,0.3c0,0,0,0,0,0c0,0,0,0,0,0
	C62,85.1,61.8,85,61.5,84.9C61.5,84.9,61.5,84.9,61.5,84.9C61.5,84.9,61.5,84.9,61.5,84.9z M58.1,83.7L58.1,83.7L58.1,83.7
	C58.1,83.7,58.1,83.7,58.1,83.7L58.1,83.7z M56.2,87.2c0,0,0-0.1,0-0.2l0.1,0.1c0,0-0.1,0-0.1-0.1c0,0,0,0,0,0
	c0.1,0.1,0.2,0.1,0.3,0.2l0.2,0.1c0,0,0,0,0.1,0c-0.2-0.1-0.3-0.2-0.5-0.3c0,0,0,0,0,0c0,0,0-0.1,0-0.1c0,0,0,0,0,0
	c0.2,0.1,0.3,0.1,0.5,0.2c0.3,0.1,0.5,0.2,0.7,0.4c0.1,0,0.2,0.1,0.3,0.1c0,0,0,0,0,0l0,0c-0.1,0-0.2-0.1-0.2-0.1
	c-0.4-0.2-0.8-0.4-1.2-0.6c0,0,0,0,0-0.1c0,0,0.1,0,0.1,0.1c0.2,0.1,0.4,0.2,0.7,0.4c0.3,0.1,0.5,0.2,0.8,0.4c0,0,0.1,0,0.1,0l0.1,0
	c0.2,0.1,0.4,0.2,0.7,0.3c-0.3-0.1-0.5-0.2-0.7-0.4c0,0,0,0,0,0c0,0,0,0,0,0c0.3,0.2,0.7,0.3,1,0.5c0.1,0,0.3,0.1,0.5,0.2
	c0.1,0,0.1,0.1,0.2,0.1l-0.1,0c0.1,0,0.2,0.1,0.2,0.1l0,0c0.2,0.1,0.4,0.2,0.6,0.2l0,0c0,0,0.1,0,0.1,0l0,0l0,0c0,0,0.1,0,0.1,0.1
	c0.1,0,0.3,0.1,0.4,0.2c0,0,0.1,0,0.1,0c0,0,0,0,0,0c0,0,0.1,0,0.2,0.1c-0.3-0.2-0.6-0.4-0.9-0.6c-0.3-0.2-0.6-0.4-0.9-0.5
	c-0.1,0-0.1-0.1-0.2-0.1c-0.1,0-0.1-0.1-0.2-0.1c-0.1,0-0.4-0.1-0.6-0.2c-0.1,0-0.2-0.1-0.2-0.1l0.1,0c-0.1,0-0.2-0.1-0.3-0.1l0,0
	c-0.2-0.1-0.5-0.2-0.7-0.3l0,0c0,0-0.1,0-0.1,0l0,0l0,0c-0.1,0-0.1,0-0.2-0.1c-0.1,0-0.3-0.1-0.5-0.2c0,0-0.1,0-0.1,0c0,0,0,0-0.1,0
	c0,0-0.1,0-0.1,0c0,0,0-0.1,0-0.1c0-0.1,0-0.2,0-0.2c0-0.1-0.4-0.2-0.4-0.2c0,0,0-0.1,0.1-0.1l0,0l0,0c0,0,0.1-0.1,0.1-0.1
	c0,0,0.1,0,0.1,0c0,0,0,0,0,0c-0.1-0.1,0-0.1,0.1,0l0,0c-0.1,0-0.1-0.1-0.1-0.1c0,0,0,0,0,0c0,0,0.1,0,0.1,0c0,0,0,0,0,0
	c0.1,0,0.2,0.1,0.2,0.1c0,0,0,0,0,0c0,0,0,0,0,0c-0.1,0-0.1,0-0.2-0.1l0,0c0,0,0,0,0,0c0,0,0,0,0,0c0,0,0,0,0,0l0,0c0,0,0,0,0,0
	c0.1,0,0.1,0,0.2,0.1c0,0,0,0,0,0c0,0,0,0,0,0c0,0,0,0,0,0l0,0c0,0,0,0,0,0c0,0,0,0,0,0l0,0l0,0l0,0c0,0,0,0,0,0l0,0
	c-0.1,0-0.1,0-0.1-0.1c0,0,0,0,0,0c0,0,0,0,0,0c0,0,0,0-0.1,0c0,0,0,0,0,0c0,0,0,0,0,0c0,0,0,0,0,0c0,0,0,0,0,0c0,0,0,0,0,0
	c0,0,0,0-0.1,0c0,0,0,0,0,0c0,0,0,0,0,0c0,0,0,0,0,0c0,0,0,0,0,0c0,0,0,0,0,0c0,0,0,0,0,0c0,0,0,0,0,0l0,0c0,0,0,0,0.1,0
	c0,0,0,0,0.1,0c0,0,0,0,0.1,0c0,0,0,0,0,0c0,0,0,0,0,0l0,0c0,0,0,0,0,0c0,0,0,0,0,0c0,0,0,0,0.1,0c0,0,0,0,0,0
	c-0.1,0-0.2-0.1-0.3-0.1l0.2,0.1c0,0,0,0,0,0l0,0c0,0,0.1,0,0.1,0l0,0l0,0c0.1,0,0.2,0,0.3,0l0.1,0c0,0,0.1,0,0.2,0l0.1,0l0,0
	c-0.1-0.1-0.1-0.1-0.1-0.1c0,0,0.2,0,0.4,0.1c0.5,0.2,1,0.4,1.6,0.6c0.3,0.1,0.6,0.2,0.8,0.3c-0.3-0.1-0.6-0.2-0.8-0.3
	c-0.1,0-0.3-0.1-0.5-0.1c-0.1,0-0.1-0.1-0.2-0.1l0.1,0c-0.1,0-0.2-0.1-0.2-0.1l0,0c-0.2,0-0.4-0.1-0.6-0.2l0,0c0,0-0.1,0-0.1,0l0,0
	l0,0c0,0-0.1,0-0.1,0c-0.1,0-0.3-0.1-0.4-0.1c0,0-0.1,0-0.1,0c0,0,0,0,0,0c-0.1,0-0.2,0-0.3-0.1l0.1,0c0,0-0.1,0-0.1,0l0,0
	c-0.1,0-0.3-0.1-0.4-0.2c-0.1-0.1,0-0.1,0.1-0.1l0,0c-0.1,0-0.1-0.1-0.1-0.1c0,0,0,0,0,0c0,0,0.1,0,0.1,0c0,0,0,0,0,0
	c0.1,0,0.2,0.1,0.2,0.1c0,0,0,0,0,0c0,0,0,0,0,0c-0.1,0-0.1,0-0.2,0l0,0c0,0,0,0,0,0c0,0,0,0,0,0c0,0,0,0,0,0l0,0c0,0,0,0,0,0
	c0.1,0,0.2,0.1,0.3,0.1c0,0,0,0,0,0l0,0c0,0,0,0,0,0c-0.1,0-0.1-0.1-0.1-0.1l0,0c0,0,0,0,0,0c0,0,0,0,0,0l0,0l0,0l0,0c0,0,0,0,0,0
	l0,0c-0.1,0-0.1,0-0.1,0c0,0,0,0,0,0c0,0,0,0,0,0c0,0,0,0-0.1,0c0,0,0,0,0,0c0,0,0,0,0,0c0,0,0,0,0,0c0,0,0,0,0,0c0,0,0,0,0,0
	c0,0,0,0-0.1,0c0,0,0,0,0,0c0,0,0,0,0,0c0,0,0,0,0,0c0,0,0,0,0,0c0,0,0,0,0,0c0,0,0,0,0,0c0,0,0,0,0,0l0,0c0,0,0,0,0.1,0
	c0,0,0,0,0.1,0c0,0,0,0,0.1,0c0,0,0,0,0,0c0,0,0,0,0,0l0,0c0,0,0,0,0,0c0,0,0,0,0,0c0,0,0,0,0-0.1c0,0,0,0,0,0
	c-0.1,0-0.2-0.1-0.2-0.1l0,0l0.2,0.1l0,0c0,0,0-0.1,0-0.1l0,0c0,0,0.1,0,0.1,0l0,0l0,0c0,0,0.1,0,0.1,0l-0.5-0.2
	c0.1-0.1,0.1-0.1,0.2-0.1c0-0.1,0-0.1,0.1-0.2c0.1,0,0.2,0.1,0.3,0.1c-0.1,0-0.2-0.1-0.3-0.1c0,0,0,0,0,0c0.2,0.1,0.4,0.1,0.6,0.2
	l0.1,0l0,0l0,0c-0.1,0-0.2-0.1-0.4-0.1c0,0,0,0,0,0c0,0,0,0,0,0c-0.1,0-0.2-0.1-0.2-0.1c0,0,0,0,0,0c0,0,0-0.1,0-0.1
	c0.2,0,0.4,0.1,0.6,0.1c0.2,0.1,0.4,0.1,0.6,0.2c-0.1,0-0.1-0.1-0.2-0.1c-0.3-0.1-0.6-0.2-0.9-0.3c0,0,0,0,0-0.1c0,0,0,0,0,0
	c0.1,0,0.2,0.1,0.3,0.1c0,0,0,0,0,0c0,0,0.1,0,0.1,0c0.3,0.1,0.5,0.2,0.8,0.4c0.3,0.1,0.5,0.2,0.8,0.3c0,0,0,0,0,0c0,0,0,0,0,0
	c-0.1-0.1-0.2-0.1-0.3-0.2c-0.3-0.1-0.5-0.2-0.8-0.3c0,0,0,0,0,0c0,0,0,0,0,0c0.3,0.1,0.5,0.2,0.8,0.3l0,0c0,0,0,0,0,0c0,0,0,0,0,0
	c0.1,0,0.2,0.1,0.3,0.1c0,0,0,0,0,0c0,0,0,0,0,0c-0.1,0-0.1-0.1-0.2-0.1c0.2,0.1,0.3,0.2,0.5,0.3c-0.1,0-0.1-0.1-0.2-0.1
	c0,0,0,0,0,0c0,0,0,0,0.1,0c0.2,0.1,0.4,0.2,0.7,0.3c0,0,0.1,0,0.1,0.1c0.1,0,0.1,0,0.2,0.1l0,0l0.1,0l0,0c0,0-0.1,0-0.1,0
	c0,0,0,0,0,0c-0.1-0.1-0.2-0.1-0.3-0.2c0,0-0.1,0-0.1,0c-0.1,0-0.3-0.1-0.4-0.1l0,0c0,0-0.1,0-0.1-0.1c0,0,0,0,0,0
	c-0.3-0.1-0.6-0.3-0.9-0.4c0,0,0,0,0,0c0,0,0,0,0,0c0,0-0.1,0-0.1-0.1c0,0,0,0,0,0c0,0,0,0,0,0c0,0,0.1,0,0.1,0.1c0,0,0,0,0,0
	c0,0,0,0,0,0c0.3,0.1,0.6,0.3,0.8,0.4c-0.1-0.1-0.3-0.1-0.4-0.2c-0.2-0.1-0.3-0.2-0.5-0.3c0,0,0,0,0,0c0,0,0,0,0,0
	c0.4,0.2,0.7,0.4,1.1,0.5l0,0c-0.1-0.1-0.2-0.1-0.3-0.2c-0.4-0.2-0.7-0.3-1.1-0.5c0,0,0,0,0,0c0,0,0,0,0,0c0.2,0.1,0.4,0.2,0.6,0.2
	l0,0l0,0C58.3,84,58.2,84,58,83.9c0,0,0,0,0,0c-0.2-0.1-0.3-0.1-0.5-0.2l0.4,0.2c0,0,0,0,0,0c-0.1,0-0.1-0.1-0.2-0.1c0,0,0,0,0-0.1
	c-0.1,0-0.1-0.1-0.2-0.1c0,0,0,0,0,0c0,0,0,0,0,0c0.1,0,0.1,0.1,0.2,0.1c0,0,0.1,0,0.1,0l0,0c-0.1,0-0.1-0.1-0.1-0.1c0,0,0,0,0,0
	c0,0,0.1,0,0.1,0c0,0,0,0,0,0c0.1,0,0.1,0,0.2,0.1c0,0,0,0,0,0c0,0,0,0,0,0c-0.1,0-0.1,0-0.2,0l0,0c0,0,0,0,0,0c0,0,0,0,0,0
	c0,0,0,0,0,0l0,0c0,0,0,0,0,0c0.1,0,0.2,0.1,0.3,0.1c0,0,0,0,0,0l0,0c0,0,0,0,0,0c-0.1,0-0.1,0-0.1-0.1l0,0c0,0,0,0,0,0c0,0,0,0,0,0
	l0,0l0,0l0,0c0,0,0,0,0,0l0,0c-0.1,0-0.1,0-0.1,0c0,0,0,0,0,0c0,0,0,0,0,0c0,0,0,0-0.1,0c0,0,0,0,0,0c0,0,0,0,0,0c0,0,0,0,0,0
	c0,0,0,0,0,0c0,0,0,0,0,0c0,0,0,0,0,0c0,0,0,0,0,0c0,0,0,0,0,0c0,0,0,0,0,0c0,0,0,0,0,0c0,0,0,0,0,0c0,0,0,0,0,0c0,0,0,0,0,0l0,0
	c0,0-0.1,0-0.1,0c0,0-0.1,0-0.1-0.1c0,0,0.1,0,0.1,0c0,0,0.1,0,0.1,0c0,0,0,0,0,0c0,0,0,0,0.1,0c0,0,0,0,0.1,0c0,0,0,0,0,0
	c0,0,0,0,0,0l0,0c0,0,0,0,0,0c0,0,0,0,0,0c0,0,0,0,0-0.1c0,0,0,0,0,0c-0.1,0-0.2-0.1-0.2-0.1l0.2,0.1c0,0,0-0.1,0-0.1l0,0
	c0,0,0,0,0.1,0l0,0l0,0c0.1,0,0.2,0,0.3,0l0.1,0c0,0,0,0,0,0l0,0l0,0c0,0,0,0-0.1,0l0,0c-0.1,0-0.3-0.1-0.3-0.2
	c-0.1-0.1,0-0.1,0.1-0.1l0,0c-0.1,0-0.1-0.1-0.1-0.1c0,0,0,0,0,0c0,0,0.1,0,0.1,0c0,0,0,0,0,0c0.1,0,0.1,0.1,0.2,0.1c0,0,0,0,0,0
	c0,0,0,0,0,0c0,0-0.1,0-0.1-0.1l0,0c0,0,0,0,0,0c0,0,0,0,0,0c0,0,0,0,0,0l0,0c0,0,0,0,0,0c0.1,0,0.2,0.1,0.2,0.1c0,0,0,0,0,0l0,0
	c0,0,0,0,0,0c-0.1,0-0.1-0.1-0.1-0.1l0,0c0,0,0,0,0,0c0,0,0,0,0,0l0,0l0,0l0,0c0,0,0,0,0,0l0,0c0,0,0,0-0.1,0c0,0,0,0,0,0
	c0,0,0,0,0,0c0,0,0,0-0.1,0c0,0,0,0,0,0c0,0,0,0,0,0c0,0,0,0,0,0c0,0,0,0,0,0c0,0,0,0,0,0c0,0,0,0,0,0c0,0,0,0,0,0c0,0,0,0,0,0
	c0,0,0,0,0,0c0,0,0,0,0,0c0,0,0,0,0,0c0,0,0,0,0.1,0c0,0,0,0,0,0l0,0l0,0c0,0,0,0,0,0c0,0,0,0,0,0c0,0,0,0,0.1,0c0,0,0,0,0.1,0
	c0,0,0,0,0,0c0,0,0,0,0,0l0,0c0,0,0,0,0,0c0,0,0,0,0,0c0,0,0,0,0,0c0,0,0,0,0,0c0,0-0.1,0-0.1-0.1c0,0,0,0,0,0l0.1,0c0,0,0,0,0-0.1
	l0,0c0,0,0,0,0.1,0l0,0l0,0c0.1,0,0.2,0,0.3,0l0.1,0c0,0,0.1,0,0.2,0l0.1,0l0,0c-0.1-0.1-0.1-0.1-0.1-0.1c0,0,0.1,0,0.2,0
	c0,0,0,0,0,0c0,0,0,0,0,0c0,0,0,0,0,0c0,0-0.1,0-0.1-0.1c0,0,0,0,0,0c0,0,0,0,0,0c0,0,0.1,0,0.1,0.1c0,0,0,0,0,0c0,0,0,0,0,0
	c0,0,0,0,0.1,0c0,0,0.1,0,0.1,0.1c0,0,0.1,0,0.1,0c-0.1-0.1-0.2-0.1-0.3-0.2c0,0,0,0,0,0c0,0,0,0,0,0c0.2,0.1,0.3,0.2,0.4,0.3
	c0.1,0.1,0.3,0.1,0.4,0.2c-0.1,0-0.1-0.1-0.2-0.1c-0.2-0.1-0.5-0.2-0.7-0.4c0,0,0,0,0,0c0.1,0.1,0.2,0.1,0.3,0.2l0,0l0,0
	c-0.1,0-0.2-0.1-0.2-0.1c0,0,0,0,0-0.1l0,0c0,0,0,0,0,0c0,0,0,0,0,0c0,0,0.1,0,0.1,0.1l0,0c0,0,0,0-0.1,0c0,0,0,0,0,0c0,0,0,0,0,0
	l0.1,0c0,0,0,0,0,0c0,0,0,0,0,0c0,0-0.1-0.1-0.1-0.1c0,0,0,0,0,0c0.1,0.1,0.2,0.1,0.3,0.2c0.1,0.1,0.3,0.1,0.4,0.2
	c0.2,0.1,0.4,0.2,0.6,0.3c0.1,0,0.2,0.1,0.2,0.1c0,0,0,0,0,0l0,0l-0.2-0.1c-0.4-0.1-0.7-0.3-1.1-0.5c0,0,0,0,0.1,0
	c0,0,0.1,0,0.1,0.1c0.2,0.1,0.4,0.2,0.6,0.3c0.2,0.1,0.5,0.2,0.7,0.3c0,0,0,0,0.1,0l0.1,0c0.2,0.1,0.4,0.1,0.6,0.2
	c-0.2-0.1-0.4-0.2-0.7-0.3c0,0,0,0,0,0c0,0,0,0,0,0c0.2,0.1,0.4,0.2,0.6,0.2c-0.2-0.1-0.3-0.2-0.5-0.2c-0.2-0.1-0.4-0.2-0.6-0.3
	c-0.2-0.1-0.3-0.2-0.4-0.3c0,0,0,0,0,0c0,0,0,0,0,0c0.2,0.1,0.5,0.3,0.7,0.4c0,0,0.1,0,0.1,0l0,0l0.1,0l0,0c0,0,0,0,0,0c0,0,0,0,0,0
	c-0.1,0-0.1-0.1-0.2-0.1c0,0,0,0-0.1,0l-0.2-0.1l0,0c0,0,0,0-0.1,0c0,0,0,0,0,0c-0.1-0.1-0.3-0.1-0.4-0.2c0,0,0,0,0,0
	c0.1,0.1,0.3,0.1,0.4,0.2c-0.1,0-0.2-0.1-0.3-0.1c0,0-0.1,0-0.1-0.1c0,0,0,0,0,0c0.1,0.1,0.3,0.2,0.5,0.2l0,0c0,0-0.1-0.1-0.1-0.1
	L60.3,82c0,0,0,0,0,0c0,0,0.1-0.1,0.1-0.1c0.1,0,0.1,0,0.2,0c0,0,0.1,0,0.1,0l0,0l0,0c0,0,0,0,0,0c0.1,0,0.1,0.1,0.2,0.1
	c0.1,0,0.2,0,0.3,0c0.1,0,0.1,0.2,0.2,0.2c0.1,0,0.2-0.2,0.3-0.2c0,0,0.1,0,0.1,0c0,0.1,0,0.3,0.1,0.4c0.1,0,0.2-0.2,0.3-0.2
	c0,0,0,0,0,0c0,0,0,0,0,0c0,0.1,0,0.3,0.1,0.3c0.1,0,0,0.2,0.1,0.3c0.1,0,0.3-0.1,0.4-0.1c0.1,0.1,0.2,0,0.3,0.1
	c0.1,0.1,0,0.2,0.1,0.3c0.1,0.1,0,0.2,0,0.3c0.1,0.1,0.1,0.1,0.1,0.2c0.1,0.1,0.2,0.1,0.2,0.2c0,0,0.1,0,0.2,0c0.1,0,0.1,0,0.2,0.1
	c0,0,0,0,0,0c0,0.1,0,0.1,0,0.2c0,0.1-0.2,0.3-0.1,0.3c0,0,0,0,0,0l-0.1,0l0,0c0.1,0,0.1,0.1,0,0.1c0,0-0.2,0-0.3-0.1
	c-0.1,0-0.2-0.1-0.2-0.1c0.1,0.1,0.1,0.1,0.2,0.2c0,0,0,0,0,0c0,0,0,0,0,0c-0.2-0.1-0.3-0.2-0.5-0.3c-0.2-0.1-0.4-0.2-0.6-0.3
	c0,0,0.1,0,0.1,0.1c0,0,0.1,0,0.1,0c0.1,0,0.2,0.1,0.4,0.1l0,0c0,0,0.1,0,0.1,0.1c0,0,0,0,0,0c0.3,0.1,0.5,0.3,0.7,0.4c0,0,0,0,0,0
	c0,0,0,0,0,0c0,0,0.1,0,0.1,0.1c0,0,0,0,0,0c0,0,0,0,0,0c0,0-0.1,0-0.1-0.1c0,0,0,0,0,0c0,0,0,0,0,0c-0.2-0.1-0.5-0.3-0.7-0.4
	c0.1,0.1,0.2,0.1,0.4,0.2c0.2,0.1,0.3,0.2,0.4,0.3c0,0,0,0,0,0c0,0,0,0,0,0c-0.3-0.2-0.6-0.4-0.9-0.5l0,0c0.1,0.1,0.2,0.1,0.3,0.2
	c0.3,0.2,0.6,0.3,0.9,0.5c0,0,0,0,0,0c0,0,0,0,0,0c-0.2-0.1-0.3-0.2-0.5-0.3l0,0l0,0c0.1,0.1,0.2,0.1,0.3,0.2c0,0,0,0,0,0
	c0.1,0,0.2,0.1,0.3,0.1c0,0,0,0,0,0l-0.2-0.1c0,0,0,0-0.1,0l0,0c0,0,0,0,0,0c0,0,0,0,0,0l-0.1,0c0,0-0.1,0-0.1-0.1l-0.3-0.1
	c0.1,0.1,0.3,0.2,0.4,0.3c0,0,0,0,0,0c0,0,0,0,0,0c0,0,0,0,0,0l0,0c0.1,0.1,0.2,0.1,0.4,0.2c0,0,0,0,0,0c0,0,0,0,0,0
	c-0.3-0.2-0.6-0.4-0.9-0.5l-0.4-0.2c0,0,0,0,0,0c0.1,0.1,0.3,0.1,0.4,0.2c0.1,0.1,0.2,0.1,0.4,0.2c0,0,0,0,0,0c0,0,0,0,0,0l-0.1,0
	c0,0,0,0,0,0c0,0,0,0,0,0c0.1,0.1,0.2,0.2,0.4,0.2c0,0,0,0,0,0c0,0,0,0,0,0c-0.2-0.1-0.3-0.2-0.5-0.3c0,0-0.1,0-0.1-0.1c0,0,0,0,0,0
	c0,0,0,0,0,0c0,0,0,0,0,0c0,0-0.1,0-0.1,0c-0.1,0-0.2-0.1-0.3-0.1c0,0,0,0,0,0c0.2,0.1,0.4,0.2,0.6,0.3c0.2,0.1,0.3,0.2,0.5,0.3
	c0,0,0.1,0,0,0.1c0,0,0,0-0.1,0c-0.1-0.1-0.2-0.1-0.3-0.2l0,0c0,0,0,0,0,0c-0.1-0.1-0.2-0.1-0.3-0.2c-0.1,0-0.1-0.1-0.2-0.1
	c-0.2-0.1-0.3-0.2-0.5-0.3c0,0,0,0,0,0l0,0c0.1,0.1,0.2,0.1,0.3,0.2c0.3,0.2,0.6,0.3,0.9,0.5c0,0,0,0,0,0c0,0,0,0,0,0
	c-0.2-0.1-0.4-0.2-0.5-0.3l0,0l0,0c0.1,0.1,0.2,0.1,0.3,0.2c0,0,0,0,0,0c0.1,0.1,0.3,0.2,0.4,0.3l-0.4-0.2c0.1,0.1,0.2,0.1,0.3,0.2
	c0,0,0.1,0,0.1,0l-0.1,0c0,0,0,0,0,0c0,0,0.1,0,0.1,0l0,0c0.1,0,0.3,0.1,0.4,0.2c0,0,0,0,0,0c0,0,0,0-0.1,0c0,0,0,0-0.1,0l0,0
	c0,0,0,0,0.1,0c0,0-0.1,0-0.1,0.1c0,0,0,0,0,0c-0.1,0-0.2-0.1-0.2-0.1c0,0,0,0,0,0c0,0,0,0,0,0c0.1,0,0.1,0,0.2,0l0,0c0,0,0,0,0,0
	c0,0,0,0,0,0c0,0,0,0,0,0l0,0c0,0,0,0,0,0C64,86,63.9,86,63.8,86c0,0,0,0,0,0l0,0c0,0,0,0,0,0c0.1,0,0.1,0.1,0.1,0.1l0,0
	c0,0,0,0,0,0c0,0,0,0,0,0l0,0l0,0l0,0c0,0,0,0,0,0l0,0c0.1,0,0.1,0,0.1,0c0,0,0,0,0,0c0,0,0,0,0,0c0,0,0,0,0,0c0,0,0,0,0,0
	c0,0,0,0,0,0.1c0,0,0,0-0.1,0c0,0,0,0,0,0c0,0,0,0,0,0l0,0c0,0,0,0,0,0c0,0,0,0,0,0c0,0,0,0,0,0.1c0,0,0,0,0,0l0.2,0.1l0,0
	c-0.1,0-0.1,0-0.2-0.1c0,0,0,0,0,0c0,0,0,0.1,0,0.1l0,0c0,0-0.1,0-0.1,0l0,0l0,0c-0.1,0-0.2,0-0.3,0l-0.1,0c0,0-0.1,0-0.2,0l-0.1,0
	c0.1,0,0.1,0.1,0.2,0.1c0.1,0.1,0,0.1-0.1,0.1l0,0c0.1,0,0.1,0.1,0.1,0.1c0,0,0,0,0,0c0,0-0.1,0-0.1,0c0,0,0,0,0,0
	c-0.1,0-0.1-0.1-0.2-0.1c0,0,0,0,0,0c0,0,0,0,0,0c0.1,0,0.1,0,0.2,0l0,0c0,0,0,0,0,0c0,0,0,0,0,0c0,0,0,0,0,0l0,0c0,0,0,0,0,0
	c-0.1,0-0.2-0.1-0.3-0.1c0,0,0,0,0,0l0,0c0,0,0,0,0,0c0.1,0,0.1,0.1,0.1,0.1l0,0c0,0,0,0,0,0c0,0,0,0,0,0l0,0l0,0l0,0c0,0,0,0,0,0
	l0,0c0.1,0,0.1,0,0.1,0c0,0,0,0,0,0c0,0,0,0,0,0c0,0,0,0,0.1,0c0,0,0,0,0,0c0,0,0,0,0,0c0,0,0,0,0,0c0,0,0,0,0,0c0,0,0,0,0,0
	c0,0,0,0,0.1,0c0,0,0,0,0,0c0,0,0,0,0,0c0,0,0,0,0,0c0,0,0,0,0,0c0,0,0,0,0,0c0,0,0,0,0,0c0,0,0,0,0,0l0,0c0,0,0,0,0,0c0,0,0,0,0,0
	l0,0c0.2,0.1,0.4,0.2,0.4,0.3c0.1,0.1,0,0.1-0.1,0l0,0c0.1,0,0.1,0.1,0.2,0.1c0,0,0,0,0,0c0,0-0.1,0-0.1,0c0,0,0,0-0.1,0
	c-0.1,0-0.2-0.1-0.3-0.1c0,0,0,0,0,0c0,0,0,0,0,0c0.1,0,0.1,0.1,0.2,0.1l0,0c0,0,0,0,0,0c0,0,0,0,0,0c0,0,0,0,0,0l0,0c0,0,0,0,0,0
	c-0.1-0.1-0.2-0.1-0.3-0.2c0,0,0,0,0,0l0,0l0,0c0,0,0,0,0.1,0c0.1,0.1,0.1,0.1,0.1,0.1l0,0c0,0,0,0,0,0c0,0,0,0,0,0l0,0l0,0l0,0
	c0,0,0,0,0,0c0,0,0,0,0,0c0.1,0,0.1,0,0.1,0.1c0,0,0,0,0,0c0,0,0,0,0.1,0c0,0,0,0,0.1,0c0,0,0,0,0,0c0,0,0,0,0,0c0,0,0,0,0,0
	c0,0,0,0,0,0c0,0,0,0,0,0c0,0,0,0,0.1,0c0,0,0,0,0,0c0,0,0,0,0,0c0,0,0,0,0,0c0,0,0,0,0,0c0,0,0,0,0,0c0,0,0,0,0,0c0,0,0,0-0.1,0
	l0,0c0,0,0,0-0.1,0c0,0,0,0-0.1,0c-0.1,0-0.1,0-0.1-0.1c0,0,0,0,0,0c0,0,0,0,0,0l0,0c0,0,0,0,0,0c0,0,0,0,0,0c0,0,0,0-0.1,0
	c0,0,0,0,0,0c0.1,0.1,0.2,0.1,0.3,0.2l-0.3-0.1c0,0,0,0,0,0.1l0,0c0,0-0.1,0-0.1,0l0,0l0,0c-0.1,0-0.2,0-0.4-0.1l-0.1,0
	c-0.1,0-0.1,0-0.2-0.1l-0.1,0l-0.1,0c0.1,0.1,0.1,0.1,0.1,0.1c0,0-0.1,0-0.3-0.1c0.1,0.1,0.3,0.2,0.4,0.2c0,0,0.1,0,0.1,0.1
	c0,0-0.1,0-0.1,0c-0.2-0.1-0.4-0.2-0.5-0.3c0.1,0,0.1,0.1,0.2,0.1c0,0,0,0,0,0c0,0,0,0,0,0c-0.4-0.2-0.9-0.4-1.3-0.6
	c-0.1,0-0.1,0-0.2-0.1l0,0l-0.1,0l0.1,0c0,0,0.1,0,0.1,0c0,0,0,0,0,0c0.1,0,0.2,0.1,0.4,0.2c0,0,0.1,0,0.1,0c0.1,0,0.3,0.1,0.4,0.1
	l0,0c0,0,0.1,0,0.1,0.1c0,0,0,0,0,0c0.3,0.1,0.6,0.3,0.9,0.5c0,0,0,0,0,0c0,0,0,0,0,0c0,0,0.1,0,0.1,0.1c0,0,0,0,0,0c0,0,0,0,0,0
	c0,0-0.1-0.1-0.1-0.1c0,0,0,0,0,0c0,0,0,0,0,0c-0.3-0.2-0.6-0.3-0.9-0.4c0.1,0.1,0.3,0.2,0.5,0.2c0.2,0.1,0.4,0.2,0.5,0.3
	c0,0,0,0,0,0c0,0,0,0,0,0c-0.4-0.2-0.7-0.4-1.1-0.6l-0.1,0c0.1,0.1,0.2,0.1,0.4,0.2c0.4,0.2,0.8,0.4,1.1,0.6c0,0,0,0,0,0
	c0,0,0,0,0,0c-0.2-0.1-0.4-0.2-0.6-0.3l0,0l0,0c0.1,0.1,0.3,0.1,0.4,0.2c0,0,0,0,0,0c0.2,0.1,0.3,0.2,0.5,0.3l-0.4-0.2
	c0.1,0.1,0.2,0.2,0.4,0.2c0,0,0,0,0,0c0,0,0,0,0,0c-0.1-0.1-0.3-0.2-0.4-0.3L62.6,88c0,0,0,0,0,0c0,0,0,0,0,0
	c0.1,0.1,0.3,0.2,0.4,0.3c0,0,0,0,0,0c0,0,0,0,0,0c-0.2-0.1-0.4-0.2-0.6-0.4c-0.2-0.1-0.3-0.1-0.5-0.2c-0.3-0.1-0.5-0.2-0.8-0.3
	c-0.1,0-0.2-0.1-0.3-0.1c0,0,0,0,0,0l0,0c0.1,0,0.2,0.1,0.3,0.1c0.8,0.3,1.5,0.6,2.1,1.1c0,0,0.1,0.1,0.1,0.1c0,0-0.1,0-0.1,0
	c-0.3-0.2-0.6-0.4-0.9-0.5c-0.2-0.1-0.5-0.2-0.7-0.3c-0.3-0.1-0.6-0.2-0.9-0.3c0,0-0.1,0-0.1,0l-0.1,0c-0.2-0.1-0.5-0.1-0.7-0.2
	c0.3,0.1,0.6,0.2,0.8,0.3c0,0,0,0,0,0c0,0,0,0,0,0c-0.4-0.1-0.8-0.2-1.1-0.4h0c0.4,0.2,0.7,0.3,1.1,0.5c0.4,0.2,0.9,0.4,1.3,0.6
	c0.3,0.2,0.6,0.3,0.9,0.5c0,0,0,0,0,0l0,0c0,0,0,0,0,0c0,0,0,0,0,0c0,0,0,0,0,0l0,0c0.1,0,0.2,0.1,0.3,0.2c0,0,0.1,0,0.1,0.1
	c0,0,0,0,0,0c0,0,0,0,0,0c0,0-0.1,0-0.1,0c0,0,0,0,0,0c0,0,0,0,0,0c0,0,0,0,0,0c0,0,0,0,0,0c0,0,0,0,0,0c0,0,0,0,0.1,0c0,0,0,0,0,0
	c0,0,0,0-0.1,0c0,0,0,0,0,0c0,0,0,0,0,0c0,0,0,0,0,0c0,0,0,0-0.1,0c0,0,0,0-0.1,0c0,0,0,0,0,0c-0.1,0-0.1-0.1-0.2-0.1l0,0
	c0,0,0,0,0,0l0,0c0,0,0,0,0.1,0c0,0,0,0,0,0c0,0,0,0,0,0c0,0,0.1,0,0.1,0c0,0,0,0,0,0c0,0,0,0,0,0c0,0,0,0,0,0c0,0,0,0,0,0
	c0,0,0,0,0,0l0,0c0,0,0,0,0,0c0,0,0,0,0,0c0,0,0,0,0,0c0,0,0,0,0,0c0,0,0,0,0,0c0,0,0,0,0,0c0,0,0,0,0,0c0,0,0,0.1,0,0.1
	c-0.1,0-0.1-0.1-0.2-0.1c0,0,0,0-0.1,0c0,0,0,0,0,0c0,0,0,0,0,0c0,0,0,0,0,0c0.1,0,0.2,0.1,0.3,0.1c0,0,0,0,0,0.1
	c-0.1,0-0.2-0.1-0.3-0.1c0,0,0,0,0,0.1l0,0c0,0,0,0-0.1,0l0,0l0,0c-0.1,0-0.2,0-0.3,0l-0.1,0c0,0-0.1,0-0.2,0l-0.1,0l0,0
	c0.1,0.1,0.1,0.1,0,0.1c0,0-0.2,0-0.3-0.1c0.1,0.1,0.2,0.1,0.2,0.2c0.1,0.1,0,0.1-0.1,0l0,0c0.1,0,0.1,0.1,0.1,0.1c0,0,0,0,0,0
	c0,0,0,0,0,0l0,0c0.1,0,0.2,0.1,0.3,0.1c0.1,0.1,0,0.1-0.1,0.1l0,0c0,0,0.1,0.1,0.1,0.1c0,0,0,0,0,0c-0.1-0.1-0.3-0.3-0.3-0.2
	c0,0,0,0.1,0,0.1c0,0-0.1,0-0.1,0c0,0,0,0,0,0l0,0c0,0,0,0,0,0c0,0,0.1,0,0.1,0c0,0.1,0,0.2-0.1,0.2c-0.1,0-0.2-0.2-0.3-0.2
	c-0.1,0-0.1,0.1-0.2,0.1C61,90,60.9,90,60.8,90c-0.1,0-0.1,0.1-0.1,0.2c-0.1,0-0.2-0.1-0.2-0.1c0-0.1-0.1-0.2-0.1-0.2
	c-0.1,0-0.1,0-0.2,0c-0.2-0.1-0.3-0.1-0.5-0.2c-0.3-0.1-0.6-0.2-0.9-0.3c-0.3-0.1-0.6-0.2-0.8-0.4c-0.1,0-0.1-0.1-0.2-0.1
	c0,0,0-0.1,0-0.1c0,0-0.1,0-0.1,0c-0.1,0-0.1-0.1-0.2-0.1l0,0c0,0,0,0,0,0c0,0,0,0,0,0c0,0,0,0,0,0c0.3,0.1,0.7,0.3,1,0.4
	c0,0,0.1,0,0.1,0l0,0l0.1,0l0,0c0,0,0,0,0,0c0,0,0,0,0,0c-0.1,0-0.2-0.1-0.3-0.1c0,0-0.1,0-0.1,0c-0.1,0-0.2-0.1-0.3-0.1l0,0
	c0,0-0.1,0-0.1,0c0,0,0,0,0,0c-0.2-0.1-0.3-0.1-0.5-0.2c0,0,0,0,0,0c0.2,0.1,0.3,0.1,0.5,0.2c-0.1-0.1-0.2-0.1-0.4-0.2
	c-0.1-0.1-0.3-0.1-0.4-0.2c0,0,0,0,0,0c0,0,0,0,0,0c0.3,0.1,0.6,0.3,0.9,0.4l0,0c-0.1-0.1-0.2-0.1-0.3-0.2c-0.3-0.1-0.5-0.2-0.8-0.3
	c0,0,0,0,0,0l0.4,0.1l0,0l-0.3-0.1c0,0,0,0,0-0.1l0,0c0.2,0.1,0.4,0.1,0.6,0.2c-0.2-0.1-0.4-0.2-0.6-0.2c0,0,0,0,0,0
	c0.3,0.1,0.5,0.2,0.8,0.3l0.1,0l0,0c0,0,0,0,0,0c-0.1,0-0.3-0.1-0.4-0.1L57,88.4c0,0,0,0,0,0c0,0,0,0,0,0l0.1,0c0,0,0,0,0,0
	c0,0,0,0,0,0c-0.1-0.1-0.2-0.1-0.4-0.2c0,0,0,0,0,0c0,0,0,0,0,0c0.2,0.1,0.3,0.1,0.5,0.2c0.1,0,0.3,0.1,0.4,0.1
	c0.2,0.1,0.4,0.1,0.6,0.2c0.1,0,0.1,0,0.2,0.1c0,0,0,0,0,0l0,0l-0.2-0.1c-0.6-0.2-1.2-0.4-1.7-0.6c0,0-0.1,0-0.1,0c0,0,0,0,0.1,0
	c0.3,0.1,0.5,0.2,0.8,0.3c0.2,0.1,0.4,0.1,0.6,0.2c0.2,0.1,0.3,0.1,0.5,0.2c-0.1-0.1-0.2-0.1-0.3-0.1c-0.1,0-0.1,0-0.2-0.1
	c0,0,0,0,0,0c0,0,0,0,0,0c0.1,0,0.1,0,0.2,0c-0.1-0.1-0.2-0.1-0.4-0.2c-0.3-0.2-0.7-0.3-1-0.5c-0.2-0.1-0.3-0.2-0.4-0.3c0,0,0,0,0,0
	c0.3,0.2,0.6,0.3,0.9,0.5c0.1,0,0.1,0,0.1,0.1l0,0l0.1,0.1l0,0c0,0-0.1,0-0.1,0c0,0,0,0,0,0c-0.1-0.1-0.2-0.1-0.3-0.2
	c0,0-0.1,0-0.1,0c-0.1-0.1-0.3-0.1-0.4-0.2l0,0c0,0-0.1,0-0.1-0.1c0,0,0,0,0,0c-0.1,0-0.1-0.1-0.2-0.1c0,0,0,0,0,0
	c0.1,0,0.1,0.1,0.2,0.1c-0.1,0-0.1-0.1-0.2-0.1c0,0,0,0,0,0c0.1,0.1,0.2,0.1,0.3,0.2l0,0c-0.1-0.1-0.2-0.1-0.3-0.2
	C56.4,87.3,56.3,87.2,56.2,87.2z M56.2,86.3C56.2,86.3,56.2,86.3,56.2,86.3C56.2,86.3,56.2,86.3,56.2,86.3L56.2,86.3z M56.4,85.7
	C56.4,85.7,56.4,85.7,56.4,85.7C56.5,85.7,56.5,85.7,56.4,85.7z M56.9,86.7C56.9,86.7,56.8,86.7,56.9,86.7c-0.1,0-0.2-0.1-0.3-0.1
	c0,0-0.1,0-0.1,0c0,0-0.1,0-0.1,0c0.1,0,0.2,0.1,0.3,0.1C56.7,86.7,56.8,86.7,56.9,86.7L56.9,86.7z M56.7,85.5L56.7,85.5L56.7,85.5
	L56.7,85.5z M56.8,85.8C56.8,85.8,56.8,85.8,56.8,85.8C56.8,85.8,56.8,85.8,56.8,85.8L56.8,85.8z M57.1,86.9L57.1,86.9L57.1,86.9
	l-0.3-0.1c-0.1,0-0.3-0.1-0.4-0.1c0,0,0.1,0,0.1,0.1C56.6,86.8,56.8,86.8,57.1,86.9L57.1,86.9L57.1,86.9L57.1,86.9z M56.7,84.9
	C56.7,84.9,56.7,84.9,56.7,84.9C56.7,84.9,56.7,84.9,56.7,84.9z M56.9,84.6L56.9,84.6L56.9,84.6L56.9,84.6z M57,84.9
	C57,84.9,57,84.9,57,84.9C57,84.9,57,84.9,57,84.9L57,84.9z M57.5,85.3C57.5,85.3,57.5,85.2,57.5,85.3c-0.1,0-0.2-0.1-0.2-0.1
	c0,0-0.1,0-0.1,0c0,0-0.1,0-0.1,0c0.1,0,0.1,0.1,0.2,0.1C57.4,85.2,57.5,85.2,57.5,85.3L57.5,85.3z M57.6,85.4L57.6,85.4l-0.2-0.1
	c-0.1,0-0.2-0.1-0.3-0.1c0,0,0.1,0,0.1,0.1C57.3,85.3,57.4,85.4,57.6,85.4L57.6,85.4L57.6,85.4L57.6,85.4L57.6,85.4z M57,84
	c0.1,0,0.2,0.1,0.4,0.1c0,0,0,0,0.1,0C57.3,84.1,57.2,84.1,57,84z M58.6,84.5C58.7,84.5,58.7,84.5,58.6,84.5L58.6,84.5
	C58.7,84.5,58.7,84.5,58.6,84.5z M58.2,83.3L58.2,83.3L58.2,83.3L58.2,83.3z M58.4,82.8C58.4,82.8,58.4,82.8,58.4,82.8
	C58.4,82.8,58.4,82.8,58.4,82.8z M58.4,83.6C58.4,83.6,58.4,83.6,58.4,83.6C58.3,83.6,58.4,83.6,58.4,83.6L58.4,83.6z M58.4,84
	c0.2,0.1,0.3,0.1,0.5,0.2C58.7,84.1,58.6,84.1,58.4,84C58.5,84,58.4,84,58.4,84z M58.7,84.1c0,0-0.1,0-0.1,0c0,0,0,0,0,0
	c0,0,0,0,0,0c0.2,0.1,0.4,0.2,0.5,0.3l0.1,0l0,0c0,0,0,0,0.1,0C59,84.2,58.8,84.2,58.7,84.1z M58.9,83.9
	C58.9,83.9,58.8,83.9,58.9,83.9c-0.1,0-0.1-0.1-0.2-0.1c0,0,0.1,0,0.1,0C58.8,83.9,58.8,83.9,58.9,83.9L58.9,83.9z M58.6,82.6
	L58.6,82.6L58.6,82.6L58.6,82.6z M58.7,82.9C58.7,82.9,58.7,82.9,58.7,82.9C58.7,82.9,58.7,82.9,58.7,82.9L58.7,82.9z M59,84.1
	L59,84.1L59,84.1L58.7,84c0,0,0,0,0,0C58.8,84,58.9,84,59,84.1L59,84.1L59,84.1L59,84.1z M59.2,83.2C59.2,83.2,59.2,83.2,59.2,83.2
	c-0.1,0-0.1-0.1-0.2-0.1c0,0,0,0-0.1,0c0,0-0.1,0-0.1,0c0.1,0,0.1,0.1,0.2,0.1C59.1,83.2,59.1,83.2,59.2,83.2L59.2,83.2z M64.1,86.2
	C64.1,86.2,64.1,86.2,64.1,86.2C64.1,86.2,64.1,86.2,64.1,86.2z M63.9,86.5L63.9,86.5L63.9,86.5L63.9,86.5z M63.6,87.3
	C63.6,87.3,63.6,87.3,63.6,87.3C63.6,87.3,63.6,87.3,63.6,87.3z M63.3,87.5L63.3,87.5L63.3,87.5L63.3,87.5z M63.1,87.1
	C63.1,87.1,63.1,87.1,63.1,87.1C63.2,87.2,63.1,87.1,63.1,87.1L63.1,87.1z M60.1,84.5L60.1,84.5c-0.1,0-0.2-0.1-0.2-0.1
	c-0.1,0-0.2-0.1-0.3-0.1c0,0-0.1,0-0.1,0c0.1,0.1,0.3,0.1,0.4,0.2C60,84.5,60,84.5,60.1,84.5C60.1,84.5,60.1,84.5,60.1,84.5z
	 M60.4,84.5c-0.1,0-0.1,0-0.2,0C60.2,84.5,60.3,84.5,60.4,84.5C60.3,84.6,60.4,84.6,60.4,84.5L60.4,84.5c0.3,0.2,0.5,0.3,0.8,0.3
	C60.9,84.8,60.6,84.7,60.4,84.5L60.4,84.5z M62.1,84.5c-0.1,0-0.2-0.1-0.2-0.1c0,0,0,0,0,0C62,84.4,62,84.5,62.1,84.5
	C62.1,84.5,62.1,84.5,62.1,84.5c0.1,0.1,0.2,0.1,0.2,0.1C62.3,84.6,62.2,84.5,62.1,84.5z M63.1,85.4c-0.1-0.1-0.3-0.1-0.5-0.2
	c-0.2-0.1-0.4-0.2-0.7-0.3l0,0c-0.1,0-0.2-0.1-0.2-0.1c0,0,0,0,0,0l0,0c0.1,0,0.1,0.1,0.2,0.1c0.5,0.2,0.9,0.4,1.3,0.7
	c0.1,0,0.2,0,0.2,0.1c0,0,0,0,0,0C63.4,85.6,63.2,85.5,63.1,85.4z M63.8,85.8c-0.1-0.1-0.2-0.1-0.3-0.2l-0.2-0.1c0,0,0,0,0,0
	c0,0,0,0,0,0c0.1,0.1,0.2,0.1,0.3,0.2c0,0,0,0,0,0c0,0,0,0,0,0C63.7,85.7,63.8,85.7,63.8,85.8z M63.7,86.2
	C63.7,86.2,63.8,86.1,63.7,86.2C63.8,86.1,63.8,86.1,63.7,86.2L63.7,86.2z M63.6,85.8c0,0-0.1,0-0.1,0
	C63.5,85.8,63.5,85.8,63.6,85.8C63.6,85.8,63.6,85.8,63.6,85.8C63.6,85.8,63.6,85.8,63.6,85.8z M63.2,85.8
	C63.2,85.8,63.2,85.8,63.2,85.8c0.1,0,0.2,0.1,0.2,0.1c0,0,0.1,0,0.1,0c0,0,0.1,0,0.1,0c-0.1,0-0.2,0-0.2-0.1
	C63.3,85.9,63.3,85.8,63.2,85.8L63.2,85.8z M63.1,85.6L63.1,85.6L63.1,85.6l0.2,0.1c0,0,0,0-0.1,0C63.2,85.7,63.2,85.7,63.1,85.6
	L63.1,85.6L63.1,85.6L63.1,85.6z M62.9,86.7L62.9,86.7L62.9,86.7L62.9,86.7L62.9,86.7z M62.4,86.3C62.4,86.3,62.4,86.3,62.4,86.3
	c0.1,0,0.2,0.1,0.2,0.1c0,0,0.1,0,0.1,0c0,0,0.1,0,0.1,0c-0.1,0-0.1-0.1-0.2-0.1C62.5,86.4,62.4,86.3,62.4,86.3L62.4,86.3z M62,85.1
	c0.1,0,0.1,0.1,0.2,0.1L62,85.1c0.2,0.1,0.3,0.1,0.3,0.2l0,0c0.2,0,0.4,0.1,0.6,0.2l0,0c0,0,0.1,0,0.1,0l0,0l0,0c0,0,0.1,0,0.1,0
	l0,0c-0.1,0-0.1-0.1-0.2-0.1c-0.2-0.1-0.4-0.2-0.6-0.3c-0.2-0.1-0.5-0.2-0.7-0.3c0,0-0.1,0-0.1,0l-0.1,0c-0.2-0.1-0.4-0.1-0.6-0.2
	c0.2,0.1,0.5,0.2,0.7,0.3c0,0,0,0,0,0c0,0,0,0,0,0c-0.3-0.1-0.6-0.2-1-0.3c0,0,0,0,0,0c0.3,0.1,0.7,0.3,1,0.4
	C61.6,85,61.8,85,62,85.1z M61.6,86.9C61.6,86.9,61.5,86.9,61.6,86.9c-0.3-0.1-0.6-0.3-0.8-0.4c-0.1,0-0.2-0.1-0.3-0.1c0,0,0,0,0,0
	l0,0c0.1,0,0.2,0.1,0.2,0.1c0.4,0.2,0.8,0.4,1.2,0.6C61.9,87.1,61.7,87,61.6,86.9z M60.3,86.5c0.1,0,0.1,0,0.2,0.1
	c0.3,0.1,0.6,0.2,0.9,0.4c-0.1,0-0.1-0.1-0.2-0.1C60.9,86.7,60.6,86.6,60.3,86.5C60.3,86.4,60.3,86.4,60.3,86.5L60.3,86.5
	c-0.3-0.2-0.5-0.2-0.7-0.3C59.8,86.3,60,86.4,60.3,86.5z M62.7,89C62.7,89,62.7,89,62.7,89C62.7,89,62.7,89,62.7,89
	C62.7,89,62.7,89,62.7,89z M62.7,89C62.7,89,62.7,89,62.7,89C62.7,89,62.7,89,62.7,89C62.7,89,62.7,89,62.7,89z M62.7,89
	C62.7,89,62.7,89,62.7,89C62.7,89,62.7,89,62.7,89C62.7,89,62.7,89,62.7,89z M62.4,89.2L62.4,89.2L62.4,89.2L62.4,89.2z M61.8,88.4
	L61.8,88.4L61.8,88.4l0.2,0.1c0.1,0,0.2,0.1,0.3,0.1c0,0,0,0-0.1-0.1C62.1,88.5,62,88.4,61.8,88.4L61.8,88.4L61.8,88.4L61.8,88.4z
	 M61.6,88.2c0,0,0.1,0,0.1,0l0,0c0.1,0,0.1,0,0.1,0.1c0,0,0,0,0,0c0.1,0,0.1,0.1,0.2,0.1c0,0,0,0,0.1,0c0,0,0,0,0,0c0,0,0.1,0,0.2,0
	c-0.4-0.2-0.9-0.4-1.3-0.6c0,0,0,0,0.1,0.1l0,0C61.3,88,61.5,88.1,61.6,88.2z M61.4,89.1C61.4,89.1,61.4,89.1,61.4,89.1
	C61.4,89.1,61.4,89.1,61.4,89.1L61.4,89.1z M61.5,89.9C61.5,89.9,61.5,89.9,61.5,89.9C61.5,89.9,61.5,89.9,61.5,89.9L61.5,89.9z
	 M61.5,89.6C61.5,89.6,61.5,89.6,61.5,89.6C61.5,89.6,61.4,89.6,61.5,89.6C61.4,89.5,61.4,89.5,61.5,89.6c-0.1-0.1-0.1-0.1-0.1-0.1
	l0,0C61.4,89.5,61.4,89.5,61.5,89.6C61.4,89.5,61.4,89.5,61.5,89.6C61.4,89.6,61.4,89.6,61.5,89.6z M61.4,89.7
	C61.4,89.7,61.4,89.7,61.4,89.7C61.4,89.7,61.4,89.7,61.4,89.7C61.4,89.7,61.4,89.7,61.4,89.7z M61.4,89.7L61.4,89.7L61.4,89.7
	C61.3,89.7,61.3,89.7,61.4,89.7C61.3,89.7,61.4,89.7,61.4,89.7z M61.2,89.2C61.3,89.3,61.3,89.3,61.2,89.2L61.2,89.2
	C61.3,89.3,61.3,89.3,61.2,89.2c0.1,0.1,0.1,0.1,0.1,0.1l0,0l0,0l0,0c0,0,0,0,0,0l0,0c0.1,0,0.1,0,0.1,0.1c0,0,0,0,0,0c0,0,0,0,0,0
	c0,0,0,0,0,0c0,0,0,0,0,0c-0.1,0-0.1-0.1-0.2-0.1C61.3,89.3,61.3,89.3,61.2,89.2C61.3,89.3,61.3,89.3,61.2,89.2
	c0.2,0.1,0.2,0.1,0.3,0.1l0,0c0,0,0,0,0,0c0,0,0,0,0,0c0,0,0,0,0,0l0,0c0,0,0,0,0,0C61.4,89.3,61.3,89.2,61.2,89.2
	C61.2,89.2,61.2,89.2,61.2,89.2L61.2,89.2C61.2,89.2,61.2,89.2,61.2,89.2z M61.1,89.4C61.1,89.4,61.1,89.4,61.1,89.4
	C61.2,89.4,61.1,89.4,61.1,89.4L61.1,89.4z M60.7,89C60.7,89,60.7,89,60.7,89c0.1,0.1,0.2,0.1,0.2,0.1c0,0,0.1,0,0.1,0
	c0,0,0.1,0,0.1,0c-0.1,0-0.1-0.1-0.2-0.1C60.8,89,60.7,89,60.7,89L60.7,89z M60.5,88.8L60.5,88.8L60.5,88.8l0.3,0.1
	c0.1,0,0.2,0.1,0.3,0.2c0,0-0.1,0-0.1-0.1C60.9,88.9,60.8,88.9,60.5,88.8L60.5,88.8L60.5,88.8L60.5,88.8z M62.8,89
	C62.8,89,62.8,89,62.8,89L62.8,89C62.8,89,62.8,89,62.8,89C62.8,89,62.8,89,62.8,89z"/>
<path class="st0" d="M189.3,0c-19.3,0-34.9,15.7-34.9,34.9c0,16.9,12,30.9,28,34.2l1.1-3.6c-14.4-2.8-25.3-15.4-25.3-30.6
	c0-17.2,14-31.2,31.2-31.2c5.4,0,10.5,1.4,14.9,3.8l0.1,0.1l-6.3,23l-14.4,6.1l9.2-26.8c0,0,0,0,0-0.1c0,0,0,0,0-0.1
	c0.2-0.7,0.1-1.4-0.3-2c-0.4-0.6-0.9-1-1.6-1.2c-0.3-0.1-0.7-0.1-1-0.1c-0.3,0-0.7,0.2-1,0.3c-0.3,0.2-0.5,0.4-0.8,0.6
	c-0.2,0.3-0.4,0.6-0.5,0.9l-8.2,29.9l-5.9,2.5c-0.2,0.1-0.4,0.3-0.5,0.5c-0.1,0.3-0.1,0.6,0,0.9c0.1,0.3,0.3,0.5,0.6,0.7
	c0.3,0.1,0.6,0.2,0.9,0.1c0,0,1.6-0.5,4-1.4l-4,14.7c-0.1,0.3,0,0.5,0.1,0.7c0.1,0.2,0.3,0.4,0.5,0.5c0.3,0.1,0.5,0.1,0.7-0.1
	c0.2-0.1,0.4-0.3,0.5-0.6l5.7-16.5c4.1-1.4,9.4-3.2,14.3-4.8l-22.8,72.9c-0.1,0.2-0.1,0.4,0.1,0.6s0.3,0.4,0.5,0.4
	c0.2,0.1,0.5,0.1,0.7-0.1c0.2-0.1,0.4-0.3,0.4-0.5l25-74.7c5.9-2,10.4-3.5,10.4-3.5c0.7-0.3,1.1-0.7,1.4-1.4c0.3-0.7,0.3-1.3,0-2
	c-0.3-0.7-0.7-1.1-1.4-1.4c-0.7-0.3-1.3-0.3-2,0l-6.6,2.8l6.1-18.4c7.3,5.7,12.1,14.6,12.1,24.6c0,15.6-11.5,28.5-26.5,30.8l-1.3,4
	c17.7-1.7,31.6-16.6,31.6-34.8C224.2,15.7,208.5,0,189.3,0z"/>
<g>
	<path class="st1" d="M28.3,144.9v4.1H17.2v-4.1h3.3v-17.4H7.8v17.4h3.3v4.1H0v-4.1h3.3V108H0V104h11.1v4.1H7.8v15.4h12.7V108h-3.3
		V104h11.1v4.1H25v36.9H28.3z"/>
	<path class="st1" d="M42.1,103.3c8.5,0,12,6,12,23.2c0,17.1-3.5,23.2-12,23.2c-8.6,0-12-5.9-12-23.2
		C30.1,109.3,33.6,103.3,42.1,103.3z M42.1,145.4c5.6,0,7.4-4.6,7.4-18.9c0-14.3-1.8-19-7.4-19c-5.7,0-7.5,4.7-7.5,18.9
		C34.7,140.7,36.5,145.4,42.1,145.4z"/>
	<path class="st1" d="M79.4,137.5c0,8.6-3.7,12.2-10.6,12.2c-7,0-10.7-3.5-10.7-12.2V108h-3.3V104h11.1v4.1h-3.3v29.7
		c0,4.8,1.6,7.7,6.2,7.7c4.6,0,6.3-2.8,6.3-7.7V108h-3.3V104h10.9v4.1h-3.3V137.5z"/>
	<path class="st1" d="M105.5,115.2V108h-6.4v36.9h3.7v4.1h-12v-4.1h3.7V108h-6.4v7.2H84V104h25.6v11.3H105.5z"/>
	<path class="st1" d="M111.4,149v-4.1h3.3V108h-3.3V104h22.2v11h-4.2V108h-10.2v15.5h10v4.1h-10v17.4h10.6V137h4.2v12H111.4z"/>
	<path class="st1" d="M168.6,144.9v4.1h-10.9v-4.1h3.3v-13.4c0-13.4,0.1-20.8,0.1-20.8h-0.2c-0.1,0.1-0.8,4.1-2.8,11.4l-4,15h-3.5
		l-3.9-15c-1.9-7.3-2.7-11.3-2.8-11.4h-0.2c0,0.1,0.1,7.4,0.1,20.8v13.4h3.3v4.1h-10.6v-4.1h3.3V108h-3.3V104h9.9l6.2,25h0.1l6.2-25
		h9.5v4.1h-3.3v36.9H168.6z"/>
</g>
<g>
	<rect x="0" y="157.9" class="st0" width="168.6" height="3.9"/>
</g>
<g>
	<path class="st1" d="M2.5,91.8c0,2.2,1.4,4,3.9,4c2.3,0,3.6-1.4,3.6-4.2c0-3.1-1.8-4.7-4.4-6.6c-2.6-1.9-5.4-3.7-5.4-8.6
		c0-4,2.1-6,5.3-6c2.5,0,3.9,1,4.5,2.4H10l0.1-2h2.3v7.7H9.9V77c0-2.7-1.4-4.2-3.7-4.2c-1.8,0-3.2,1-3.2,3.7c0,3,1.8,4.3,3.9,5.9
		c3.3,2.5,5.8,4.4,5.8,9.3c0,4.5-2.2,6.7-5.7,6.7c-2.6,0-4.1-1.1-4.6-2.4H2.3l0,2.1H0v-8h2.5V91.8z"/>
	<path class="st1" d="M20.4,95.5V98h-6.7v-2.5h2V73.2h-2v-2.5h6.7v2.5h-2v22.4H20.4z"/>
	<path class="st1" d="M37.1,98h-3.3L26,75.2h-0.1c0,0,0,3.4,0,7.1v13.2h2V98h-6.2v-2.5h2V73.2h-2v-2.5H27l7.8,22.8H35
		c0,0,0-3.7,0-7.2V73.2h-2v-2.5h6.2v2.5h-2V98z"/>
	<path class="st1" d="M53.3,77.5v-4.4h-3.9v22.4h2.3V98h-7.2v-2.5h2.3V73.2h-3.9v4.4h-2.5v-6.8h15.5v6.8H53.3z"/>
</g>
<g>
	<path class="st1" d="M66.7,98v-2.5h2V73.2h-2v-2.5h6.7v2.5h-2v22.4h6.1v-4H80V98H66.7z"/>
	<path class="st1" d="M88,95.5V98h-6.7v-2.5h2V73.2h-2v-2.5H88v2.5h-2v22.4H88z"/>
	<path class="st1" d="M89.3,98v-2.5h2V73.2h-2v-2.5h13.4v6.7h-2.5v-4.2H94v9.4h6V85h-6v10.5h6.4v-4.8h2.5V98H89.3z"/>
	<path class="st1" d="M115,98h-4.1l-5-24.8H104v-2.5h6.7v2.5h-2l2.4,12.6c1.4,7.1,1.8,9.8,1.8,9.9h0.1c0,0,0.4-2.8,1.8-9.9l2.4-12.6
		h-2.1v-2.5h6.5v2.5H120L115,98z"/>
	<path class="st1" d="M122.9,98v-2.5h2V73.2h-2v-2.5h13.4v6.7h-2.5v-4.2h-6.2v9.4h6V85h-6v10.5h6.4v-4.8h2.5V98H122.9z"/>
	<path class="st1" d="M153.3,98H150l-7.8-22.8h-0.1c0,0,0,3.4,0,7.1v13.2h2V98H138v-2.5h2V73.2h-2v-2.5h5.3l7.8,22.8h0.1
		c0,0,0-3.7,0-7.2V73.2h-2v-2.5h6.2v2.5h-2V98z"/>
	<path class="st1" d="M158.7,91.8c0,2.2,1.4,4,3.9,4c2.3,0,3.6-1.4,3.6-4.2c0-3.1-1.8-4.7-4.4-6.6c-2.6-1.9-5.4-3.7-5.4-8.6
		c0-4,2.1-6,5.3-6c2.5,0,3.9,1,4.5,2.4h0.1l0.1-2h2.3v7.7h-2.5V77c0-2.7-1.4-4.2-3.7-4.2c-1.8,0-3.2,1-3.2,3.7c0,3,1.8,4.3,3.9,5.9
		c3.3,2.5,5.8,4.4,5.8,9.3c0,4.5-2.2,6.7-5.7,6.7c-2.6,0-4.1-1.1-4.6-2.4h-0.1l0,2.1h-2.3v-8h2.5V91.8z"/>
</g>
</svg>
