<?xml version="1.0" standalone="no"?>
<!DOCTYPE svg PUBLIC "-//W3C//DTD SVG 20010904//EN"
 "http://www.w3.org/TR/2001/REC-SVG-20010904/DTD/svg10.dtd">
<svg version="1.0" xmlns="http://www.w3.org/2000/svg"
 width="700.000000pt" height="700.000000pt" viewBox="0 0 700.000000 700.000000"
 preserveAspectRatio="xMidYMid meet">
<metadata>
Created by potrace 1.14, written by Peter Selinger 2001-2017
</metadata>
<g transform="translate(0.000000,700.000000) scale(0.100000,-0.100000)"
fill="#000000" stroke="none">
<path d="M3350 6924 c-135 -9 -294 -27 -400 -45 -687 -118 -1337 -474 -1807
-989 -479 -525 -768 -1174 -834 -1873 -17 -183 -7 -584 19 -752 58 -372 178
-736 345 -1045 433 -800 1164 -1370 2046 -1596 74 -19 136 -32 139 -30 2 3 26
76 53 162 50 161 50 173 9 174 -9 0 -61 11 -115 25 -529 136 -984 399 -1360
786 -219 225 -377 451 -515 734 -121 246 -185 433 -235 680 -44 221 -50 288
-49 580 0 303 13 418 70 653 241 989 993 1783 1968 2077 261 78 520 115 816
115 359 0 670 -55 997 -175 132 -49 373 -165 373 -181 0 -13 -569 -2096 -574
-2101 -8 -8 -1301 -553 -1306 -551 -3 2 184 554 417 1228 233 674 426 1245
429 1270 13 95 -39 191 -128 236 -116 59 -262 15 -317 -95 -10 -20 -186 -655
-391 -1411 -205 -756 -379 -1380 -386 -1386 -7 -6 -129 -59 -271 -119 -156
-65 -269 -118 -285 -134 -26 -25 -31 -42 -29 -89 1 -33 63 -92 94 -92 14 0
112 29 218 65 106 36 193 64 195 62 1 -1 -81 -306 -182 -677 -101 -371 -184
-685 -184 -698 0 -29 51 -82 80 -82 41 0 77 28 93 72 8 24 126 364 261 757
136 393 251 721 255 730 5 8 80 39 167 69 741 251 1136 384 1139 380 2 -1
-239 -779 -536 -1728 -296 -949 -539 -1733 -539 -1743 0 -27 27 -74 52 -91 12
-9 42 -16 66 -16 91 0 40 -136 716 1887 l610 1821 425 143 c519 173 567 191
604 226 66 63 89 151 62 237 -23 73 -71 128 -136 156 -87 37 -115 29 -469
-122 -173 -74 -316 -134 -317 -133 -3 1 547 1678 552 1683 6 6 229 -195 309
-279 413 -433 676 -969 767 -1560 31 -195 33 -610 6 -794 -94 -625 -351 -1154
-777 -1598 -381 -398 -909 -696 -1430 -807 -58 -12 -127 -28 -154 -34 l-49
-11 -54 -160 c-29 -88 -56 -169 -59 -179 -6 -18 -2 -19 61 -12 342 35 723 150
1065 321 314 158 571 344 830 604 518 519 830 1171 916 1911 20 179 15 615
-10 777 -56 369 -149 667 -307 983 -105 208 -185 338 -322 520 -113 150 -342
390 -487 512 -484 407 -1071 661 -1691 733 -131 15 -422 26 -519 19z"/>
</g>
</svg>
