 <svg aria-hidden="true" style="position: absolute; width: 0; height: 0; overflow: hidden;" version="1.1" xmlns="http://www.w3.org/2000/svg" xmlns:xlink="http://www.w3.org/1999/xlink">
    <defs>
        <symbol id="download" viewBox="0 0 24 24" data-category="Download">
            <path d="M3 19h18v2H3v-2zm10-5.828L19.071 7.1l1.414 1.414L12 17 3.515 8.515 4.929 7.1 11 13.17V2h2v11.172z"/>
        </symbol>

        <symbol id="file" viewBox="0 0 24 24" data-category="Download">
            <path d="M9 2.003V2h10.998C20.55 2 21 2.455 21 2.992v18.016a.993.993 0 0 1-.993.992H3.993A1 1 0 0 1 3 20.993V8l6-5.997zM5.83 8H9V4.83L5.83 8zM11 4v5a1 1 0 0 1-1 1H5v10h14V4h-8z"/>
        </symbol>

        <symbol id="txt" viewBox="0 0 24 24" data-category="Download">
            <path d="M21 8v12.993A1 1 0 0 1 20.007 22H3.993A.993.993 0 0 1 3 21.008V2.992C3 2.455 3.449 2 4.002 2h10.995L21 8zm-2 1h-5V4H5v16h14V9zM8 7h3v2H8V7zm0 4h8v2H8v-2zm0 4h8v2H8v-2z"/>
        </symbol>

        <symbol id="zip" viewBox="0 0 24 24" data-category="Download">
            <path d="M20 22H4a1 1 0 0 1-1-1V3a1 1 0 0 1 1-1h16a1 1 0 0 1 1 1v18a1 1 0 0 1-1 1zm-1-2V4H5v16h14zm-5-8v5h-4v-3h2v-2h2zm-2-8h2v2h-2V4zm-2 2h2v2h-2V6zm2 2h2v2h-2V8zm-2 2h2v2h-2v-2z"/>
        </symbol>

        <symbol id="code" viewBox="0 0 24 24" data-category="Download">
            <path d="M15 4H5v16h14V8h-4V4zM3 2.992C3 2.444 3.447 2 3.999 2H16l5 5v13.993A1 1 0 0 1 20.007 22H3.993A1 1 0 0 1 3 21.008V2.992zM17.657 12l-3.536 3.536-1.414-1.415L14.828 12l-2.12-2.121 1.413-1.415L17.657 12zM6.343 12L9.88 8.464l1.414 1.415L9.172 12l2.12 2.121-1.413 1.415L6.343 12z"/>
        </symbol>

        <symbol id="pdf" viewBox="0 0 24 24" data-category="Download">
            <path d="M12 16H8V8h4a4 4 0 1 1 0 8zm-2-6v4h2a2 2 0 1 0 0-4h-2zm5-6H5v16h14V8h-4V4zM3 2.992C3 2.444 3.447 2 3.999 2H16l5 5v13.993A1 1 0 0 1 20.007 22H3.993A1 1 0 0 1 3 21.008V2.992z"/>
        </symbol>

        <symbol id="word" viewBox="0 0 24 24" data-category="Download">
            <path d="M16 8v8h-2l-2-2-2 2H8V8h2v5l2-2 2 2V8h1V4H5v16h14V8h-3zM3 2.992C3 2.444 3.447 2 3.999 2H16l5 5v13.993A1 1 0 0 1 20.007 22H3.993A1 1 0 0 1 3 21.008V2.992z"/>
        </symbol>

        <symbol id="ppt" viewBox="0 0 24 24" data-category="Download">
            <path d="M3 2.992C3 2.444 3.447 2 3.999 2H16l5 5v13.993A1 1 0 0 1 20.007 22H3.993A1 1 0 0 1 3 21.008V2.992zM5 4v16h14V8h-3v6h-6v2H8V8h7V4H5zm5 6v2h4v-2h-4z"/>
        </symbol>

        <symbol id="xls" viewBox="0 0 24 24" data-category="Download">
            <path d="M13.2 12l2.8 4h-2.4L12 13.714 10.4 16H8l2.8-4L8 8h2.4l1.6 2.286L13.6 8H15V4H5v16h14V8h-3l-2.8 4zM3 2.992C3 2.444 3.447 2 3.999 2H16l5 5v13.993A1 1 0 0 1 20.007 22H3.993A1 1 0 0 1 3 21.008V2.992z"/>
        </symbol>

        <symbol id="audio" viewBox="0 0 24 24" data-category="Download">
            <path d="M16 8v2h-3v4.5a2.5 2.5 0 1 1-2-2.45V8h4V4H5v16h14V8h-3zM3 2.992C3 2.444 3.447 2 3.999 2H16l5 5v13.993A1 1 0 0 1 20.007 22H3.993A1 1 0 0 1 3 21.008V2.992z"/>
        </symbol>

        <symbol id="image" viewBox="0 0 24 24" data-category="Download">
            <path d="M4.828 21l-.02.02-.021-.02H2.992A.993.993 0 0 1 2 20.007V3.993A1 1 0 0 1 2.992 3h18.016c.548 0 .992.445.992.993v16.014a1 1 0 0 1-.992.993H4.828zM20 15V5H4v14L14 9l6 6zm0 2.828l-6-6L6.828 19H20v-1.172zM8 11a2 2 0 1 1 0-4 2 2 0 0 1 0 4z"/>
        </symbol>

        <symbol id="video" viewBox="0 0 24 24" data-category="Download">
            <path d="M3 3.993C3 3.445 3.445 3 3.993 3h16.014c.548 0 .993.445.993.993v16.014a.994.994 0 0 1-.993.993H3.993A.994.994 0 0 1 3 20.007V3.993zM5 5v14h14V5H5zm5.622 3.415l4.879 3.252a.4.4 0 0 1 0 .666l-4.88 3.252a.4.4 0 0 1-.621-.332V8.747a.4.4 0 0 1 .622-.332z"/>
        </symbol>

        <symbol id="database" viewBox="0 0 24 24" data-category="Download">
            <path d="M5 12.5c0 .313.461.858 1.53 1.393C7.914 14.585 9.877 15 12 15c2.123 0 4.086-.415 5.47-1.107 1.069-.535 1.53-1.08 1.53-1.393v-2.171C17.35 11.349 14.827 12 12 12s-5.35-.652-7-1.671V12.5zm14 2.829C17.35 16.349 14.827 17 12 17s-5.35-.652-7-1.671V17.5c0 .313.461.858 1.53 1.393C7.914 19.585 9.877 20 12 20c2.123 0 4.086-.415 5.47-1.107 1.069-.535 1.53-1.08 1.53-1.393v-2.171zM3 17.5v-10C3 5.015 7.03 3 12 3s9 2.015 9 4.5v10c0 2.485-4.03 4.5-9 4.5s-9-2.015-9-4.5zm9-7.5c2.123 0 4.086-.415 5.47-1.107C18.539 8.358 19 7.813 19 7.5c0-.313-.461-.858-1.53-1.393C16.086 5.415 14.123 5 12 5c-2.123 0-4.086.415-5.47 1.107C5.461 6.642 5 7.187 5 7.5c0 .313.461.858 1.53 1.393C7.914 9.585 9.877 10 12 10z"/>
        </symbol>

        <symbol id="googledrive" viewBox="0 0 24 24" data-category="Download">
            <path d="M9.097 6.15L4.31 14.443l1.755 3.032 4.785-8.29L9.097 6.15zm-1.3 12.324h9.568l1.751-3.034H9.55l-1.752 3.034zm11.314-5.034l-4.786-8.29H10.83l4.787 8.29h3.495zM8.52 3.15h6.96L22 14.444l-3.48 6.03H5.49L2 14.444 8.52 3.15zm3.485 8.036l-1.302 2.254h2.603l-1.301-2.254z"/>
        </symbol>

        <symbol id="link" viewBox="0 0 24 24" data-category="Download">
            <path d="M13.06 8.11l1.415 1.415a7 7 0 0 1 0 9.9l-.354.353a7 7 0 0 1-9.9-9.9l1.415 1.415a5 5 0 1 0 7.071 7.071l.354-.354a5 5 0 0 0 0-7.07l-1.415-1.415 1.415-1.414zm6.718 6.011l-1.414-1.414a5 5 0 1 0-7.071-7.071l-.354.354a5 5 0 0 0 0 7.07l1.415 1.415-1.415 1.414-1.414-1.414a7 7 0 0 1 0-9.9l.354-.353a7 7 0 0 1 9.9 9.9z"/>
        </symbol>

        <symbol id="office-365" viewBox="0 0 32 32">
            <path d="M28.324 3.413l-7.944-2.112c-0.123-0.033-0.253-0.028-0.372 0.013l-16.376 5.632c-0.259 0.089-0.432 0.332-0.432 0.605v16.944c0 0.232 0.183 0.472 0.432 0.557l16.376 5.632c0.067 0.022 0.138 0.035 0.208 0.035 0.055 0 0.111-0.007 0.164-0.021l7.944-2.112c0.28-0.075 0.476-0.329 0.476-0.619v-23.936c0-0.29-0.195-0.544-0.476-0.619zM19.2 6.929v18.9l-13.982-1.845 4.602-1.688c0.252-0.092 0.42-0.332 0.42-0.601v-12.918l8.96-1.848z"></path>
        </symbol>
    </defs>
</svg>