 <svg aria-hidden="true" style="position: absolute; width: 0; height: 0; overflow: hidden;" version="1.1" xmlns="http://www.w3.org/2000/svg" xmlns:xlink="http://www.w3.org/1999/xlink">
    <defs>
        <symbol id="brandweer" viewBox="0 0 22 32">
            <path d="M11.982 32c10.92-1.472 12.124-10.586 8.362-15.962-3.345-4.804-1.576-9.026-1.576-9.026-1.999 0.661-3.542 2.206-4.189 4.16s0.948-7.927-5.097-11.171c2.508 7.040-10.126 10.080-4.733 22.526-2.178-1.054-3.29-4.444-3.52-7.128-3.683 7.421 1.697 14.955 5.916 15.862 3.345 0.715 6.317-1.509 3.303-5.669-5.786-7.977-3.069-13.32 0.217-15.862-4.515 10.168 9.29 11.288 6.033 18.889-0.443-1.58-1.672-4.473-4.808-5.523 2.149 2.893 3.637 6.706 0.092 8.905zM19.090 25.035c0.351-3.274-1.932-4.147-2.981-6.271-1.401-2.864 0.418-5.887 0.418-5.887 0.18 2.161 0.949 3.345 2.090 5.067 0.776 1.093 1.24 2.455 1.24 3.925 0 1.159-0.289 2.251-0.798 3.207z"></path>
        </symbol>

        <symbol id="politie" viewBox="0 0 32 32">
            <path d="M14.851 28.923c-5.456-0.123-11.528-4.759-12.103-11.815-0.615-8.164 5.662-13.579 11.979-14.154 4.39-0.41 8.082 1.026 11.077 4.267 2.38 2.585 3.446 5.662 3.323 9.149-0.287 7.344-6.441 12.513-12.677 12.677 0.041-0.205 0.041-0.369 0.082-0.574 0.697-2.749 1.805-5.292 3.241-7.713 0.862-1.436 1.477-2.995 1.682-4.677 0.246-2.215-0.287-4.226-1.436-6.113-0.574-0.944-1.231-1.846-1.805-2.831-0.779-1.272-1.518-2.585-2.297-3.897-0.041 0.082-0.123 0.246-0.164 0.41-0.369 1.477-0.164 2.872 0.492 4.267 0.533 1.067 1.026 2.133 1.231 3.323 0.492 2.708-0.041 5.128-1.764 7.303-0.246 0.328-0.533 0.656-0.862 1.149-0.082-0.328-0.246-0.533-0.205-0.697 0.123-0.738 0.246-1.518 0.41-2.256 0.287-1.108 0.697-2.215 0.862-3.364 0.205-1.231-0.492-2.215-1.272-3.2-0.082 0.164-0.123 0.287-0.123 0.369-0.246 1.641-0.862 3.159-1.805 4.595-0.615 0.944-1.149 1.928-1.641 2.913-0.78 1.641-0.615 3.282-0.041 4.923 0.697 1.969 1.928 3.569 3.159 5.21 0.205 0.205 0.41 0.451 0.656 0.738z"></path>
        </symbol>

        <symbol id="ocmw" viewBox="0 0 32 32">
            <path d="M21.292 19.774c-1.928 0-3.487-1.559-3.487-3.487s1.559-3.487 3.487-3.487c1.395 0 2.585 0.82 3.159 2.010-0.492-5.826-5.415-10.421-11.364-10.421-6.318-0.041-11.446 5.087-11.446 11.364s5.128 11.405 11.405 11.405c5.497 0 10.092-3.897 11.159-9.067-0.574 1.026-1.682 1.682-2.913 1.682z"></path>
            <path d="M31.426 16.656c0 1.926-1.561 3.487-3.487 3.487s-3.487-1.561-3.487-3.487c0-1.926 1.561-3.487 3.487-3.487s3.487 1.561 3.487 3.487z"></path>
        </symbol>

        <symbol id="uitin" viewBox="0 0 53 32">
            <path d="M18.25 18.436c0 2.142-0.217 3.849-1.862 5.401-1.459 1.366-3.259 1.862-5.059 2.017-1.583 0.124-3.631-0.093-4.935-1.024-1.831-1.304-2.173-3.259-2.173-5.711v-13.657l5.338 0.435v12.353c0 0.652-0.031 1.552 0.31 2.142 0.403 0.621 1.21 0.838 1.862 0.807 0.59-0.031 1.335-0.248 1.8-0.714 0.683-0.652 0.59-1.676 0.59-2.545v-11.639l4.128 0.341v11.794z"></path>
            <path d="M24.83 11.236l-4.966-0.217v-4.252l4.966 0.404v4.066zM24.83 24.334l-4.966 0.404v-12.322l4.966 0.155v11.763z"></path>
            <path d="M34.669 23.62l-4.997 0.404v-12.477l-3.6-0.155v-4.097l12.105 0.993v3.6l-3.507-0.155v11.887z"></path>
            <path d="M0 0h52.795v31.659h-52.795l42.242-5.276v-21.106z"></path>
        </symbol>

        <symbol id="uitvlieg" viewBox="0 0 45 32">
            <path d="M27.252 1.536c-1.154-1.415-3.082-1.857-5.732-1.305l-3.593 1.626c-0.010 0.010-0.010 0.010-0.020 0.020 0.171 0.161 0.351 0.311 0.472 0.502 0.733-0.683 1.827-1.174 3.282-1.476 2.389-0.492 4.095-0.141 5.069 1.064 0.763 0.944 1.064 2.319 1.074 3.875 0.020 3.945-1.807 9.024-2.58 11.001 0.191 0.311 0.291 0.642 0.331 0.994 0.582-1.395 5.019-12.226 1.696-16.301z"></path>
            <path d="M17.927 1.857l3.593-1.626c-1.576 0.331-2.78 0.873-3.593 1.626z"></path>
            <path d="M21.952 2.349c-0.181 0.040-0.301 0.221-0.261 0.401l0.823 4.186c0.040 0.181 0.221 0.301 0.401 0.261s0.823 2.058 0.783 1.867l-1.345-6.454c-0.040-0.181-0.221-0.301-0.401-0.261z"></path>
            <path d="M25.706 3.072l-2.73 4.858c-0.090 0.161-0.030 0.371 0.131 0.462s0.371 0.030 0.462-0.13l2.73-4.858c0.090-0.161 0.030-0.371-0.131-0.462-0.171-0.090-0.371-0.030-0.462 0.131z"></path>
            <path d="M18.389 1.917c-1.526-0.311-3.202 0.331-4.979 1.897zM13.41 3.824c-2.038 1.797-2.841 3.603-2.399 5.37 1.335 5.33 13.681 8.301 14.213 8.432l0.472 0.11-0.050-0.482c-0.060-0.532-1.476-13.149-6.605-15.147-0.211-0.080-0.432-0.151-0.642-0.191zM11.674 9.034c-0.060-0.251-0.090-0.502-0.1-0.753-0.010-1.275 0.753-2.6 2.279-3.945 1.827-1.616 3.483-2.148 4.928-1.586 4.206 1.626 5.792 11.734 6.113 14.093-2.289-0.612-12.115-3.443-13.22-7.809z"></path>
            <path d="M25.556 17.064l-6.384-7.227c0-0.020 0-0.030 0-0.050l-0.040-5.571c0-0.191-0.151-0.341-0.341-0.341s-0.341 0.161-0.341 0.341l0.030 4.848-3.172-3.583c-0.12-0.141-0.341-0.151-0.482-0.030s-0.151 0.341-0.030 0.482l4.336 4.908-5.179-0.833c-0.181-0.030-0.361 0.1-0.391 0.281s0.1 0.361 0.281 0.391l6.013 0.954 5.189 5.872c0.12 0.141 0.341 0.151 0.482 0.030 0.141-0.11 0.161-0.331 0.030-0.472z"></path>
            <path d="M28.136 10.65c-0.954 2.429 0.251 5.179 2.68 6.133v0c1.586 0.622 3.373 0.331 4.688-0.723 0.391 0.662 0.994 1.174 1.726 1.465 0.863 0.341 1.817 0.321 2.67-0.050s1.516-1.064 1.857-1.927c0.341-0.873 0.321-1.817-0.050-2.67s-1.064-1.516-1.927-1.857c-0.883-0.341-1.837-0.321-2.69 0.070-0.401-1.415-1.425-2.56-2.821-3.102-2.439-0.974-5.189 0.231-6.133 2.66zM28.487 12.386c0-0.502 0.090-1.004 0.281-1.496 0.813-2.078 3.162-3.112 5.24-2.299 1.305 0.512 2.248 1.646 2.499 3.041l0.090 0.492 0.422-0.261c0.763-0.472 1.666-0.552 2.499-0.231 0.703 0.271 1.255 0.803 1.556 1.496s0.311 1.455 0.040 2.148c-0.271 0.703-0.803 1.255-1.496 1.556s-1.455 0.311-2.148 0.040c-0.703-0.281-1.255-0.813-1.556-1.506l-0.201-0.452-0.351 0.351c-1.134 1.104-2.821 1.455-4.306 0.873-1.586-0.622-2.56-2.138-2.57-3.754z"></path>
            <path d="M35.513 12.718c-0.1 0.753-0.783 1.285-1.536 1.184s-1.285-0.783-1.194-1.536c0.1-0.753 0.783-1.285 1.536-1.184 0.763 0.1 1.295 0.783 1.194 1.536z"></path>
            <path d="M40.923 14.645c-0.1 0.753-0.783 1.285-1.536 1.184-0.753-0.090-1.285-0.783-1.194-1.536s0.783-1.285 1.536-1.184c0.753 0.090 1.285 0.783 1.194 1.536z"></path>
            <path d="M6.274 22.274c-0.020-1.205-0.221-2.188-0.502-2.459-0.020-0.020-0.050-0.040-0.070-0.050-0.090-0.261-0.191-0.452-0.301-0.552-0.080-0.080-0.161-0.11-0.251-0.11s-0.171 0.040-0.241 0.12c-0.151 0.151-0.281 0.472-0.371 0.913-0.161-0.933-0.432-1.596-0.783-1.586-0.080 0-0.151 0.040-0.221 0.1-0.231-0.813-0.532-1.335-0.903-1.335-0.221 0-0.412 0.201-0.582 0.552-0.221-0.683-0.502-1.114-0.833-1.104-0.12 0-0.231 0.060-0.331 0.171-0.572 0.592-0.933 2.841-0.883 5.471s0.492 4.868 1.084 5.43c0.11 0.1 0.221 0.151 0.341 0.151 0.221 0 0.412-0.211 0.582-0.552 0.221 0.683 0.502 1.114 0.833 1.104 0.512-0.010 0.863-1.034 1.054-2.439 0 0 0 0 0 0 0.271-0.010 0.482-0.412 0.622-1.034 0.13 0.733 0.321 1.265 0.532 1.476 0.080 0.080 0.161 0.11 0.251 0.11s0.171-0.040 0.251-0.12c0.281-0.291 0.482-1.164 0.562-2.299 0.13-0.562 0.171-1.405 0.161-1.957zM5.922 22.866c0.010 0.482 0 0.923-0.030 1.325-0.080 0.291-0.161 0.442-0.221 0.442-0.010 0-0.030-0.010-0.040-0.030-0.191-0.191-0.412-1.064-0.432-2.309-0.030-1.405 0.211-2.218 0.361-2.339 0.181 0.612 0.341 1.626 0.361 2.911zM1.415 27.774c-0.060 0-0.12-0.030-0.191-0.090-0.542-0.522-0.974-2.75-1.014-5.29-0.050-2.54 0.301-4.778 0.823-5.32 0.060-0.070 0.131-0.1 0.191-0.1 0.231 0 0.492 0.432 0.703 1.205-0.371 1.064-0.542 2.961-0.512 4.778 0.030 1.516 0.201 3.092 0.492 4.176-0.151 0.401-0.321 0.632-0.492 0.642zM2.028 26.74c-0.221-0.944-0.381-2.258-0.412-3.804-0.030-1.887 0.141-3.443 0.401-4.396 0.221 0.944 0.381 2.258 0.412 3.794 0.030 1.907-0.141 3.463-0.401 4.407zM2.821 28.326c-0.231 0-0.492-0.432-0.703-1.205 0.371-1.064 0.552-2.961 0.512-4.788-0.030-1.516-0.201-3.082-0.492-4.176 0.151-0.412 0.321-0.642 0.492-0.652 0.251 0 0.512 0.482 0.743 1.335-0.341 0.612-0.492 2.058-0.472 3.483 0.030 1.767 0.331 3.262 0.733 3.644 0.020 0.020 0.030 0.030 0.050 0.040-0.201 1.445-0.532 2.319-0.863 2.319zM3.453 19.172c0.211 0.933 0.361 2.228 0.391 3.724 0.020 1.084-0.030 2.048-0.131 2.861-0.291-0.401-0.572-1.646-0.602-3.433-0.030-1.476 0.131-2.58 0.341-3.152zM3.905 25.887c0.11-0.913 0.161-1.957 0.141-2.981-0.030-1.445-0.181-2.951-0.452-4.025 0.050-0.080 0.11-0.12 0.161-0.12 0.221 0 0.512 0.743 0.673 2.028-0.080 0.602-0.12 1.335-0.11 2.118 0.010 0.542 0.040 1.064 0.1 1.526-0.13 0.873-0.331 1.395-0.512 1.455zM4.517 22.223c0 0.030 0 0.060 0 0.090 0 0.231 0 0.452 0 0.662 0-0.030 0-0.050 0-0.080-0.010-0.241-0.010-0.462 0-0.673zM5.38 26.389c-0.040 0.040-0.070 0.060-0.1 0.060s-0.060-0.020-0.1-0.050c-0.211-0.201-0.432-0.913-0.562-1.967 0.080-0.632 0.12-1.375 0.11-2.118-0.010-0.522-0.040-1.054-0.1-1.536 0.1-0.743 0.261-1.235 0.432-1.405 0.040-0.040 0.070-0.060 0.1-0.060s0.060 0.020 0.1 0.050c0.080 0.070 0.151 0.211 0.231 0.401-0.422 0.211-0.512 1.716-0.492 2.54 0.020 1.205 0.221 2.188 0.492 2.459 0.060 0.060 0.12 0.080 0.191 0.080 0.060 0 0.12-0.030 0.171-0.070-0.11 0.853-0.281 1.425-0.472 1.616z"></path>
            <path d="M7.679 22.946c0-0.040 0-0.080 0-0.11-0.020-1.205-0.221-2.188-0.492-2.459-0.060-0.060-0.12-0.080-0.191-0.080-0.512 0.010-0.612 1.676-0.592 2.56s0.181 2.55 0.693 2.54c0.472-0.010 0.592-1.546 0.582-2.449zM7.077 25.194c-0.151 0-0.452-0.823-0.482-2.339s0.251-2.349 0.391-2.349c0.010 0 0.030 0.010 0.040 0.030 0.191 0.191 0.412 1.064 0.432 2.309 0.040 1.516-0.231 2.339-0.381 2.349z"></path>
            <path d="M35.875 27.523l-9.235-9.275-0.331 0.321 0.010 0.010c-0.652 0.723-0.803 1.847-0.412 3.192s1.275 2.76 2.499 3.985c1.676 1.686 3.724 2.73 5.36 2.73 0.773 0 1.425-0.231 1.877-0.683l-0.020-0.020 0.251-0.261zM33.335 25.616l-1.827 1.817c-0.803-0.381-1.626-0.944-2.379-1.636l2.198-2.188 2.008 2.008zM26.65 18.911l2.018 2.028-1.867 1.857c-0.783-1.576-0.893-3.061-0.151-3.885zM27.031 23.217l1.957-1.957 2.008 2.018-2.208 2.198c-0.020-0.020-0.040-0.040-0.060-0.060-0.693-0.693-1.265-1.445-1.696-2.198zM31.96 27.634l1.696-1.686 1.586 1.586c-0.361 0.321-0.863 0.482-1.476 0.482-0.562 0-1.174-0.131-1.807-0.381z"></path>
            <path d="M27.965 13.802c-7.95 0.050-14.565 3.192-16.11 7.327l-1.486 0.703-1.987 0.933 3.302 1.496c0.231 0.883 0.683 1.726 1.335 2.509l-1.435 1.736c-0.351-0.11-0.753-0.010-1.004 0.291-0.331 0.391-0.271 0.984 0.13 1.305 0.391 0.331 0.984 0.271 1.315-0.12 0.251-0.301 0.271-0.723 0.1-1.044l1.375-1.666c0.391 0.401 0.833 0.783 1.325 1.144l-0.602 0.733c-0.351-0.12-0.753-0.010-1.004 0.291-0.331 0.391-0.271 0.984 0.12 1.305 0.391 0.331 0.984 0.271 1.305-0.12 0.251-0.301 0.271-0.723 0.1-1.044l0.642-0.783c3.041 1.977 7.598 3.232 12.698 3.192 9.114-0.050 16.482-4.176 16.452-9.194-0.050-5.019-7.458-9.054-16.572-8.994zM35.483 27.634c-1.355 1.345-4.447 0.432-6.906-2.048-2.469-2.479-3.363-5.571-2.008-6.916v0l8.913 8.964z"></path>
        </symbol>

        <symbol id="uitpas" viewBox="0 0 137 32">
            <path d="M9.492 5.953l-5.378-0.446v13.769c0 2.495 0.348 4.455 2.187 5.775 1.328 0.939 3.394 1.183 4.973 1.037 1.806-0.154 3.62-0.64 5.094-2.033 1.652-1.555 1.879-3.296 1.879-5.459h0.008v-11.914l-4.147-0.348v11.768c0 0.899 0.073 1.903-0.607 2.576-0.454 0.478-1.207 0.705-1.806 0.737-0.68 0.032-1.482-0.194-1.887-0.818-0.348-0.599-0.324-1.506-0.324-2.179v-12.465z"></path>
            <path d="M19.884 24.986l4.973-0.413v-11.89l-4.973-0.154z"></path>
            <path d="M24.857 7.241l-4.973-0.421v4.301l4.973 0.219z"></path>
            <path d="M34.778 23.836v-11.979l3.539 0.154v-3.653l-12.181-1.021v4.147l3.62 0.154v12.619z"></path>
            <path d="M87.528 0l-9.93 32h7.978l1.96-6.293h8.537l1.822 6.293h10.027l-10.035-32h-10.359zM89.164 18.701l2.608-9.282 2.608 9.282h-5.216z"></path>
            <path d="M132.171 13.599c-2.721-1.401-5.848-1.903-8.796-2.495-1.183-0.275-3.442-0.591-3.442-2.219s1.814-1.992 3.086-1.992c2.406 0 4.123 0.818 5.030 3.126l7.889-2.405c-1.911-5.394-7.119-7.613-12.513-7.613-3.086 0-6.39 0.591-8.925 2.357-2.495 1.766-3.993 4.762-3.993 7.791 0 7.386 6.933 8.974 12.781 10.108 1.401 0.275 3.807 0.632 3.807 2.535 0 1.725-2.446 1.903-3.669 1.903-2.77 0-4.851-0.996-5.661-3.758l-8.836 1.587c1.677 6.755 7.476 9.476 14.004 9.476 6.431 0 13.866-2.989 13.866-10.464 0-3.41-1.587-6.301-4.625-7.937z"></path>
            <path d="M75.379 1.685c-2.746-1.595-6.245-1.685-9.371-1.685h-66.009l42.513 5.337v21.333l-42.513 5.321h62.882v-11.606h4.989c3.078 0 6.253-0.47 8.723-2.47 2.381-1.911 3.539-4.803 3.539-7.832 0.008-3.458-1.766-6.625-4.754-8.399zM65.45 13.526h-2.567v-6.204h2.843c2.243 0 4.665 0.235 4.665 3.078 0 2.989-2.705 3.126-4.941 3.126z"></path>
        </symbol>

        <symbol id="recycle" viewBox="0 0 33 32">
            <path d="M8.941 18.107l2.516 1.485-3.27-6.498-7.33 0.218 2.367 1.404-3.224 5.959s2.585 4.686 4.348 7.483c0.508 0.982 1.467 1.67 2.595 1.792l0.015 0.001h9.413v-6.789h-10.224z"></path>
            <path d="M17.606 10.437l7.134 0.422 3.424-6.479-2.388 1.371-3.603-5.74s-5.351-0.061-8.649 0.098c-0.043-0.002-0.093-0.003-0.143-0.003-1.11 0-2.094 0.544-2.698 1.38l-0.007 0.010-4.641 8.193 5.907 3.344 5.042-8.897 3.020 4.921z"></path>
            <path d="M32.942 18.716l-4.478-8.28-5.969 3.23 4.86 8.994-5.773-0.056 0.087-2.615-4.135 5.668 3.678 6.344 0.105-2.749h6.774s2.892-4.504 4.511-7.384c0.369-0.527 0.59-1.182 0.59-1.888 0-0.456-0.092-0.89-0.259-1.286l0.008 0.022z"></path>
        </symbol>

        <symbol id="itsme" viewBox="0 0 24 24">
            <path d="M13.535 0.159c0.185 0 0.377 0 0.562 0 0.271 0.046 0.549 0.073 0.814 0.132 0.913 0.205 1.72 0.602 2.388 1.283 1.72 1.74 3.447 3.46 5.18 5.186 0.463 0.456 0.8 0.986 1.019 1.594 0.331 0.893 0.483 1.813 0.238 2.745-0.602 2.302-1.237 4.598-1.832 6.9-0.218 0.834-0.523 1.614-1.105 2.262-0.602 0.662-1.29 1.211-2.17 1.449-2.289 0.622-4.591 1.217-6.873 1.852-0.86 0.238-1.713 0.351-2.587 0.146-0.926-0.212-1.74-0.602-2.421-1.29-1.713-1.733-3.433-3.447-5.16-5.16-0.483-0.483-0.84-1.039-1.065-1.674-0.324-0.913-0.456-1.839-0.198-2.792 0.609-2.282 1.23-4.565 1.832-6.847 0.192-0.734 0.45-1.429 0.939-2.024 0.648-0.781 1.409-1.389 2.408-1.66 2.17-0.582 4.346-1.171 6.516-1.746 0.496-0.132 1.006-0.238 1.515-0.357zM15.678 16.518c0.126 0 0.238 0 0.351 0 1.045 0 2.090 0 3.136 0 0.404 0 0.642-0.232 0.635-0.622-0.007-0.258-0.020-0.509-0.060-0.761-0.146-0.86-0.549-1.548-1.33-1.971-0.642-0.351-1.33-0.41-2.037-0.311-1.171 0.165-1.978 0.8-2.375 1.932-0.020 0.053-0.040 0.112-0.066 0.198-0.132-0.92-0.529-1.621-1.416-1.899-1.025-0.318-1.938-0.139-2.633 0.767-0.020-0.026-0.046-0.053-0.060-0.073-0.311-0.41-0.714-0.668-1.217-0.761-0.701-0.126-1.402-0.093-2.084 0.132-0.668 0.225-1.125 0.681-1.383 1.336-0.146 0.37-0.218 0.761-0.225 1.158-0.007 0.84-0.007 1.68-0.007 2.52 0 0.536 0.536 0.933 1.052 0.794 0.397-0.106 0.635-0.423 0.635-0.86 0-0.781 0-1.555 0-2.335 0-0.245 0.026-0.49 0.146-0.714 0.185-0.357 0.589-0.569 0.992-0.516 0.423 0.053 0.688 0.284 0.794 0.708 0.026 0.106 0.046 0.218 0.046 0.324 0.007 0.853 0.007 1.7 0.007 2.553 0 0.271 0.099 0.503 0.311 0.675 0.271 0.218 0.582 0.258 0.893 0.112 0.324-0.146 0.49-0.417 0.49-0.774 0.007-0.86 0-1.72 0-2.587 0-0.721 0.655-1.191 1.343-0.966 0.37 0.119 0.609 0.47 0.615 0.939 0.007 0.867 0 1.733 0.007 2.6 0.007 0.595 0.556 0.999 1.111 0.82 0.351-0.112 0.582-0.43 0.589-0.8 0-0.185 0-0.364 0-0.549 0-0.179 0-0.351 0-0.529 0.033 0.026 0.040 0.060 0.053 0.086 0.304 0.873 0.886 1.475 1.76 1.779 0.496 0.172 1.012 0.225 1.541 0.172 0.635-0.066 1.204-0.271 1.707-0.675 0.265-0.212 0.377-0.49 0.291-0.814-0.079-0.324-0.291-0.536-0.628-0.609-0.324-0.066-0.595 0.040-0.8 0.298-0.165 0.205-0.377 0.331-0.635 0.37-0.159 0.026-0.324 0.033-0.483 0.026-0.615-0.033-1.105-0.562-1.065-1.177zM9.010 11.888c0.265 0.146 0.49 0.318 0.748 0.397 0.906 0.284 1.799 0.225 2.666-0.159 0.106-0.046 0.179-0.053 0.284-0.007 0.814 0.37 1.667 0.456 2.534 0.225 1.032-0.278 1.488-1.125 1.389-2.090-0.053-0.516-0.37-0.873-0.814-1.098-0.41-0.212-0.853-0.364-1.277-0.542-0.238-0.099-0.476-0.179-0.708-0.284-0.159-0.073-0.245-0.212-0.225-0.397 0.020-0.198 0.119-0.351 0.318-0.404 0.357-0.093 0.84-0.033 1.045 0.37 0.212 0.417 0.767 0.516 1.151 0.251 0.39-0.271 0.47-0.807 0.152-1.171-0.132-0.152-0.291-0.291-0.456-0.404-0.45-0.304-0.966-0.404-1.495-0.437-0.463-0.026-0.92 0.020-1.35 0.205-0.953 0.404-1.402 1.548-0.953 2.421 0.179 0.357 0.483 0.576 0.834 0.721 0.417 0.179 0.847 0.318 1.27 0.483 0.198 0.079 0.404 0.152 0.582 0.265 0.271 0.172 0.265 0.562 0 0.754-0.298 0.218-1.085 0.159-1.31-0.271-0.258-0.49-0.867-0.569-1.297-0.212-0.159 0.132-0.344 0.251-0.536 0.304-0.602 0.179-1.316 0.020-1.283-0.939 0.013-0.483 0.013-0.959 0.013-1.442 0-0.185 0-0.37 0-0.562 0.582 0.172 0.966 0.086 1.237-0.271 0.238-0.311 0.265-0.734 0.040-1.072-0.311-0.463-0.748-0.536-1.257-0.337 0-0.251 0-0.483 0-0.714 0-0.331-0.212-0.549-0.542-0.556-0.212-0.007-0.43-0.007-0.642 0-0.318 0.007-0.529 0.212-0.549 0.529 0 0.040-0.007 0.086-0.007 0.126-0.007 1.469-0.020 2.944-0.026 4.412 0 0.126-0.013 0.265-0.060 0.384-0.132 0.377-0.483 0.556-0.972 0.503-0.423-0.046-0.721-0.344-0.721-0.767 0-0.992 0.013-1.985 0.026-2.977 0.007-0.265-0.132-0.43-0.397-0.43-0.311 0-0.615 0-0.926 0-0.284 0-0.417 0.119-0.417 0.404-0.013 1.111-0.033 2.223-0.033 3.334 0 0.893 0.443 1.502 1.29 1.793 0.278 0.093 0.576 0.146 0.867 0.185 0.695 0.106 1.33 0.013 1.806-0.523zM6 4.101c-0.516 0-0.939 0.417-0.946 0.946-0.007 0.523 0.41 0.946 0.939 0.946s0.959-0.423 0.953-0.953c-0.007-0.523-0.423-0.939-0.946-0.939z"></path>
            <path d="M15.665 15.334c0.026-0.437 0.179-0.794 0.556-1.006 0.443-0.238 0.906-0.251 1.336 0.013 0.357 0.218 0.456 0.582 0.483 0.992-0.794 0-1.574 0-2.375 0z"></path>
        </symbol>

        <symbol id="itsme-typo" viewBox="0 0 48 24">
            <path d="M30.556 5.652c0.077-0.103 0.133-0.177 0.189-0.25 0.65-0.857 1.524-1.296 2.583-1.391 0.68-0.060 1.352-0.009 1.997 0.232 1.141 0.426 1.86 1.248 2.208 2.398 0.108 0.357 0.164 0.732 0.258 1.149 0.039-0.112 0.065-0.181 0.086-0.258 0.241-0.844 0.637-1.601 1.253-2.239 0.667-0.689 1.477-1.137 2.402-1.36 1.102-0.271 2.208-0.284 3.298 0.039 1.739 0.512 2.781 1.696 3.229 3.435 0.159 0.629 0.198 1.266 0.181 1.911-0.013 0.56-0.366 0.921-0.926 0.973-0.103 0.009-0.207 0.004-0.31 0.004-1.933 0-3.87 0-5.803 0-0.112 0-0.22 0-0.34 0-0.009 0.069-0.030 0.121-0.022 0.164 0.125 1.236 0.883 1.933 1.937 2.045 0.353 0.039 0.702 0.013 1.046-0.060 0.435-0.095 0.792-0.306 1.068-0.659 0.344-0.443 0.801-0.629 1.36-0.529s0.921 0.439 1.089 0.969c0.168 0.53 0.039 1.003-0.37 1.382-0.551 0.508-1.205 0.848-1.916 1.059-1.343 0.4-2.686 0.387-4.008-0.086-1.593-0.568-2.617-1.696-3.121-3.302-0.026-0.082-0.047-0.159-0.077-0.258-0.112 0.069-0.073 0.159-0.073 0.232-0.004 0.607 0 1.214-0.004 1.825 0 0.164 0 0.327-0.039 0.486-0.142 0.629-0.74 1.201-1.593 1.119-0.672-0.065-1.244-0.659-1.291-1.352-0.004-0.095-0.004-0.189-0.004-0.284 0-1.386 0.004-2.772-0.004-4.159-0.004-0.297-0.034-0.598-0.103-0.887-0.25-1.033-1.063-1.365-1.916-1.261-0.964 0.121-1.597 0.861-1.601 1.855-0.009 1.072 0 2.14 0 3.211 0 0.461 0.004 0.926 0 1.386-0.009 0.672-0.396 1.218-0.986 1.425-0.947 0.323-1.916-0.353-1.95-1.369-0.013-0.375-0.004-0.753-0.004-1.128 0-1.055 0.004-2.105-0.004-3.16 0-0.254-0.013-0.517-0.056-0.766-0.228-1.322-1.274-1.64-2.217-1.403-0.59 0.151-0.982 0.529-1.205 1.093-0.151 0.375-0.177 0.766-0.177 1.158-0.004 1.326 0 2.652-0.004 3.982 0 0.181 0 0.362-0.039 0.538-0.142 0.633-0.74 1.201-1.589 1.124-0.676-0.065-1.248-0.65-1.291-1.347-0.004-0.034-0.004-0.069-0.004-0.103 0-1.455-0.009-2.91 0.013-4.365 0.013-0.801 0.151-1.584 0.474-2.325 0.465-1.072 1.24-1.821 2.346-2.196 1.231-0.418 2.501-0.482 3.775-0.241 0.895 0.168 1.61 0.65 2.144 1.391 0.017 0.034 0.052 0.073 0.112 0.151zM45.236 8.274c-0.030-0.224-0.039-0.418-0.082-0.607-0.146-0.654-0.474-1.18-1.128-1.425-0.667-0.25-1.343-0.237-1.997 0.060-0.732 0.331-1.236 1.214-1.145 1.967 1.429 0.004 2.863 0.004 4.352 0.004z"></path>
            <path d="M7.224 13.823c-0.047 0.043-0.082 0.069-0.112 0.099-0.568 0.62-1.274 0.938-2.109 0.973-0.947 0.039-1.881-0.065-2.768-0.426-0.934-0.379-1.623-1.003-1.937-1.989-0.103-0.319-0.159-0.65-0.155-0.986 0.013-2.019 0.026-4.042 0.043-6.061 0-0.086 0.013-0.172 0.030-0.254 0.056-0.263 0.254-0.443 0.521-0.448 0.633-0.009 1.266-0.009 1.898 0 0.314 0.004 0.525 0.22 0.547 0.534 0.004 0.086 0.004 0.172 0.004 0.258-0.017 1.584-0.034 3.168-0.052 4.753 0 0.22 0.004 0.448 0.034 0.663 0.090 0.629 0.448 1.037 1.068 1.21 0.344 0.095 0.693 0.099 1.042 0.009 0.684-0.172 1.098-0.706 1.115-1.446 0.013-0.753 0.022-1.507 0.026-2.26 0.013-1.916 0.017-3.836 0.030-5.751 0-0.146 0.009-0.293 0.030-0.435 0.065-0.396 0.392-0.697 0.796-0.71 0.443-0.017 0.891-0.017 1.335 0 0.465 0.013 0.818 0.379 0.831 0.848 0.013 0.383 0 0.771 0 1.154 0 0.090 0 0.185 0 0.306 0.921-0.392 1.696-0.284 2.26 0.555 0.387 0.573 0.327 1.33-0.099 1.873-0.254 0.323-0.585 0.512-0.99 0.594s-0.779-0.022-1.171-0.202c-0.013 0.125-0.026 0.224-0.030 0.323-0.009 1.205-0.022 2.415-0.013 3.62 0 0.232 0.056 0.478 0.133 0.697 0.151 0.426 0.465 0.706 0.9 0.809 0.835 0.198 1.619 0.125 2.256-0.534 0.508-0.525 1.266-0.56 1.812-0.211 0.159 0.103 0.323 0.25 0.409 0.413 0.31 0.598 0.835 0.796 1.455 0.844 0.301 0.022 0.598-0.013 0.878-0.142 0.336-0.155 0.495-0.435 0.521-0.792 0.026-0.331-0.112-0.59-0.392-0.753-0.22-0.129-0.452-0.241-0.693-0.331-0.616-0.228-1.24-0.435-1.86-0.663-0.474-0.172-0.934-0.383-1.356-0.663-0.62-0.409-1.029-0.964-1.106-1.709-0.194-1.795 0.641-3.151 2.342-3.633 1.369-0.387 2.729-0.297 4.047 0.237 0.521 0.211 0.969 0.538 1.343 0.964 0.366 0.418 0.478 0.891 0.28 1.408-0.194 0.512-0.577 0.827-1.124 0.9s-0.99-0.129-1.322-0.568c-0.026-0.034-0.047-0.069-0.069-0.108-0.263-0.534-0.719-0.736-1.279-0.736-0.22 0-0.448 0.017-0.659 0.077-0.344 0.103-0.525 0.362-0.568 0.719-0.043 0.344 0.099 0.607 0.392 0.775 0.215 0.121 0.443 0.224 0.676 0.31 0.65 0.241 1.309 0.461 1.954 0.706 0.504 0.189 0.982 0.443 1.416 0.771 0.788 0.598 1.098 1.399 0.999 2.363-0.065 0.659-0.267 1.27-0.68 1.799-0.461 0.59-1.068 0.951-1.774 1.158-0.895 0.263-1.808 0.263-2.721 0.138-0.676-0.090-1.326-0.271-1.924-0.603-0.103-0.056-0.189-0.047-0.288 0.009-1.003 0.542-2.092 0.654-3.211 0.637-0.62-0.009-1.227-0.095-1.808-0.327-0.375-0.151-0.719-0.357-1.012-0.641-0.043-0.043-0.086-0.073-0.142-0.121z"></path>
            <path d="M9.092 22.312c0 0.323 0 0.624 0 0.951 0.086 0.022 0.172 0.052 0.258 0.069 0.121 0.022 0.185 0.077 0.177 0.207-0.004 0.099 0 0.202 0 0.319-0.598 0-1.167 0-1.748 0 0-0.164 0-0.314 0-0.469 0.060-0.022 0.116-0.043 0.172-0.056 0.263-0.060 0.267-0.060 0.267-0.31 0-0.982 0-1.967 0-2.949 0-0.077-0.009-0.151-0.017-0.237-0.164-0.047-0.319-0.090-0.474-0.133 0-0.159 0-0.306 0-0.443 0.185-0.060 0.878-0.073 1.266-0.026 0.022 0.095 0.047 0.198 0.077 0.327 0.060-0.047 0.103-0.069 0.133-0.103 0.375-0.443 1.214-0.366 1.567 0.034 0.263 0.293 0.387 0.637 0.435 1.020 0.065 0.499 0.052 0.99-0.172 1.455-0.276 0.564-0.891 0.827-1.464 0.62-0.159-0.065-0.297-0.168-0.478-0.276zM10.401 20.995c-0.056-0.267-0.082-0.555-0.181-0.814-0.194-0.495-0.796-0.435-1.016-0.172-0.060 0.073-0.112 0.181-0.116 0.271-0.013 0.418-0.013 0.839 0 1.257 0.004 0.090 0.060 0.198 0.125 0.263 0.31 0.297 0.865 0.194 1.033-0.198 0.077-0.185 0.103-0.392 0.155-0.607z"></path>
            <path d="M1.748 3.336c-0.926-0.004-1.619-0.706-1.61-1.636 0.004-0.9 0.74-1.64 1.632-1.636 0.913 0.009 1.644 0.758 1.632 1.666-0.013 0.913-0.732 1.614-1.653 1.606z"></path>
            <path d="M37.526 23.905c0.039-0.237 0.065-0.422 0.090-0.598 0.043-0.013 0.065-0.026 0.090-0.026 0.357 0.026 0.547-0.181 0.672-0.486 0.052-0.125 0.060-0.237 0.009-0.37-0.323-0.818-0.641-1.64-0.947-2.467-0.073-0.194-0.224-0.207-0.383-0.25 0-0.164 0-0.314 0-0.478 0.53 0 1.050 0 1.589 0 0 0.155 0 0.301 0 0.469-0.103 0.030-0.211 0.069-0.349 0.112 0.177 0.534 0.349 1.050 0.521 1.571 0.017 0 0.034 0 0.056 0.004 0.172-0.521 0.349-1.037 0.525-1.576-0.142-0.043-0.25-0.073-0.375-0.112 0-0.159 0-0.306 0-0.474 0.534 0 1.055 0 1.597 0 0 0.146 0 0.297 0 0.448-0.009 0.009-0.022 0.030-0.034 0.030-0.22 0.017-0.306 0.159-0.379 0.349-0.357 0.973-0.723 1.937-1.089 2.906-0.065 0.177-0.155 0.344-0.25 0.504-0.194 0.319-0.482 0.474-0.857 0.465-0.142 0-0.293-0.013-0.486-0.022z"></path>
            <path d="M46.855 19.829c-0.116-0.034-0.224-0.065-0.349-0.099 0-0.155 0-0.314 0-0.491 0.409 0 0.814 0 1.248 0 0 0.913 0 1.817 0 2.721 0.146 0.047 0.267 0.082 0.4 0.125 0 0.159 0 0.31 0 0.482-0.375 0-0.749 0-1.149 0-0.022-0.112-0.047-0.232-0.082-0.387-0.073 0.065-0.129 0.108-0.185 0.155-0.375 0.34-0.809 0.396-1.266 0.211-0.448-0.181-0.594-0.573-0.62-1.012-0.026-0.426-0.013-0.857-0.017-1.283 0-0.095-0.004-0.189 0-0.284 0-0.086-0.034-0.146-0.121-0.172-0.077-0.026-0.198-0.043-0.224-0.095-0.043-0.095-0.030-0.215-0.034-0.323 0-0.039 0.013-0.082 0.026-0.138 0.396 0 0.788 0 1.205 0 0.004 0.090 0.013 0.181 0.013 0.271 0 0.564-0.004 1.128 0.004 1.696 0 0.142 0.017 0.293 0.052 0.431 0.043 0.194 0.177 0.314 0.375 0.34 0.228 0.034 0.448-0.013 0.624-0.164 0.065-0.056 0.125-0.155 0.125-0.237 0.009-0.547 0.004-1.093 0-1.644 0.004-0.030-0.009-0.056-0.026-0.103z"></path>
            <path d="M24.508 21.154c-0.693 0-1.347 0-1.997 0-0.009 0.439 0.232 0.74 0.62 0.801 0.267 0.043 0.53 0.009 0.779-0.090 0.095-0.039 0.189-0.073 0.297-0.116 0.077 0.177 0.146 0.336 0.224 0.517-0.465 0.323-0.964 0.413-1.498 0.349-0.185-0.022-0.37-0.077-0.538-0.155-0.392-0.185-0.646-0.508-0.753-0.926-0.116-0.435-0.116-0.883 0.017-1.317 0.344-1.093 1.36-1.227 2.101-0.934 0.228 0.090 0.405 0.254 0.53 0.469 0.258 0.422 0.258 0.887 0.22 1.403zM23.63 20.547c0.043-0.465-0.155-0.732-0.521-0.74-0.37-0.009-0.62 0.288-0.603 0.74 0.37 0 0.736 0 1.124 0z"></path>
            <path d="M17.521 20.943c-0.013 0.116-0.017 0.288-0.052 0.456-0.146 0.732-0.736 1.373-1.817 1.214-0.633-0.090-1.042-0.465-1.21-1.072-0.181-0.654-0.151-1.291 0.276-1.855 0.232-0.31 0.551-0.491 0.938-0.517 0.245-0.017 0.499-0.022 0.736 0.030 0.611 0.138 1.046 0.689 1.111 1.356 0.009 0.112 0.009 0.224 0.017 0.387zM15.196 20.883c0.047 0.232 0.073 0.456 0.142 0.663 0.099 0.297 0.306 0.426 0.603 0.426 0.288 0 0.491-0.133 0.594-0.405 0.168-0.456 0.168-0.921-0.017-1.373-0.103-0.254-0.306-0.379-0.581-0.379-0.28 0-0.486 0.125-0.577 0.383-0.077 0.215-0.112 0.456-0.164 0.684z"></path>
            <path d="M5.76 20.935c-0.013 0.116-0.017 0.288-0.052 0.456-0.151 0.749-0.732 1.36-1.782 1.231-0.641-0.082-1.068-0.452-1.244-1.068-0.189-0.663-0.159-1.304 0.284-1.877 0.232-0.297 0.542-0.478 0.917-0.504 0.245-0.017 0.499-0.022 0.736 0.030 0.611 0.133 1.050 0.68 1.119 1.347 0.013 0.103 0.013 0.215 0.022 0.383zM4.89 20.888c0.004-0.25-0.034-0.495-0.142-0.723-0.116-0.241-0.31-0.353-0.573-0.357-0.254 0-0.452 0.103-0.555 0.34-0.215 0.486-0.211 0.982-0.013 1.468 0.099 0.25 0.314 0.353 0.577 0.353s0.456-0.112 0.573-0.357c0.099-0.232 0.138-0.474 0.133-0.723z"></path>
            <path d="M44.13 20.905c-0.022 0.159-0.026 0.323-0.060 0.482-0.185 0.883-0.913 1.378-1.808 1.231-0.728-0.121-1.188-0.607-1.296-1.39-0.043-0.314-0.034-0.633 0.047-0.943 0.194-0.745 0.801-1.18 1.589-1.145 0.857 0.039 1.451 0.62 1.511 1.481 0.009 0.095 0 0.189 0 0.284 0.004 0 0.009 0 0.017 0zM41.779 20.888c0.056 0.237 0.095 0.474 0.168 0.697 0.090 0.267 0.31 0.379 0.581 0.379 0.276 0 0.482-0.116 0.585-0.375 0.181-0.465 0.181-0.934-0.004-1.399-0.103-0.254-0.306-0.379-0.581-0.383-0.28 0-0.486 0.125-0.577 0.383-0.082 0.224-0.116 0.461-0.172 0.697z"></path>
            <path d="M34.986 20.319c-0.207 0-0.366 0-0.551 0-0.022-0.065-0.056-0.133-0.065-0.207-0.026-0.177-0.129-0.288-0.293-0.314-0.181-0.030-0.375-0.047-0.555-0.026-0.181 0.017-0.297 0.168-0.314 0.327-0.017 0.177 0.052 0.297 0.25 0.375 0.151 0.060 0.314 0.086 0.465 0.138 0.258 0.086 0.53 0.146 0.766 0.28 0.508 0.28 0.581 0.943 0.168 1.352-0.103 0.099-0.224 0.194-0.357 0.241-0.65 0.254-1.287 0.207-1.898-0.142-0.133-0.077-0.198-0.168-0.189-0.327 0.013-0.168 0.004-0.336 0.004-0.521 0.207 0 0.383 0 0.585 0 0.026 0.086 0.065 0.177 0.086 0.276 0.030 0.133 0.108 0.22 0.241 0.232 0.194 0.017 0.392 0.043 0.581 0.022 0.211-0.026 0.336-0.164 0.353-0.319 0.017-0.159-0.073-0.306-0.276-0.387-0.164-0.069-0.344-0.099-0.512-0.159-0.232-0.082-0.478-0.146-0.689-0.263-0.448-0.25-0.56-0.788-0.271-1.218 0.177-0.263 0.426-0.422 0.732-0.478 0.525-0.099 1.037-0.047 1.528 0.185 0.146 0.069 0.224 0.164 0.215 0.336-0.013 0.181-0.004 0.375-0.004 0.598z"></path>
            <path d="M17.835 19.704c0-0.159 0-0.301 0-0.443 0.189-0.065 1.175-0.077 1.464-0.013 0 0.146 0 0.293 0 0.448-0.086 0.030-0.164 0.056-0.276 0.095 0.121 0.611 0.362 1.192 0.542 1.808 0.172-0.59 0.34-1.184 0.517-1.787-0.112-0.043-0.202-0.077-0.301-0.116 0-0.155 0-0.301 0-0.469 0.495 0 0.969 0 1.459 0 0 0.164 0 0.314 0 0.482-0.267-0.004-0.323 0.194-0.392 0.392-0.258 0.732-0.517 1.464-0.783 2.196-0.112 0.306-0.060 0.284-0.392 0.284-0.112 0-0.224 0-0.331 0-0.215-0.004-0.215-0.004-0.288-0.207-0.271-0.753-0.542-1.511-0.814-2.269-0.077-0.198-0.129-0.4-0.405-0.4z"></path>
            <path d="M29.093 19.816c-0.185-0.013-0.319-0.022-0.474-0.034 0-0.189 0-0.362 0-0.56 0.155-0.017 0.301-0.034 0.478-0.056 0-0.267 0-0.521 0-0.792 0.297 0 0.564 0 0.861 0 0.004 0.142 0.013 0.271 0.013 0.405 0.004 0.125 0 0.254 0 0.4 0.202 0.013 0.375 0.026 0.564 0.043 0 0.189 0 0.366 0 0.564-0.181 0.009-0.357 0.022-0.551 0.030-0.004 0.099-0.017 0.181-0.017 0.263 0 0.461 0.009 0.926-0.004 1.386-0.009 0.362 0.121 0.517 0.486 0.469 0.034-0.004 0.069 0.004 0.138 0.009 0.026 0.185 0.047 0.375 0.073 0.577-0.413 0.138-0.792 0.159-1.162-0.039-0.211-0.112-0.327-0.301-0.366-0.529-0.030-0.177-0.047-0.357-0.047-0.534-0.009-0.435-0.004-0.874-0.004-1.309 0.013-0.090 0.013-0.181 0.013-0.293z"></path>
            <path d="M2.213 21.942c0.026 0.198 0.052 0.375 0.077 0.547-0.366 0.228-1.003 0.177-1.304-0.103-0.198-0.181-0.254-0.422-0.258-0.676-0.009-0.521-0.004-1.046-0.009-1.567 0-0.099 0-0.202 0-0.323-0.181-0.017-0.327-0.026-0.491-0.043 0-0.189 0-0.366 0-0.56 0.159-0.017 0.306-0.034 0.482-0.052 0-0.267 0-0.521 0-0.796 0.297 0 0.568 0 0.87 0 0 0.267 0 0.53 0 0.809 0.211 0.013 0.387 0.026 0.581 0.039 0 0.181 0 0.357 0 0.564-0.181 0.013-0.366 0.022-0.56 0.034-0.009 0.090-0.017 0.168-0.017 0.241 0 0.469 0 0.943 0 1.412 0 0.060 0 0.121 0.009 0.181 0.034 0.194 0.133 0.28 0.331 0.288 0.086 0.009 0.172 0.004 0.288 0.004z"></path>
            <path d="M11.783 22.575c0-0.198 0-0.349 0-0.508 0.133-0.034 0.254-0.069 0.409-0.112 0.009-0.702 0.004-1.408 0.004-2.127-0.164-0.043-0.31-0.082-0.465-0.121 0-0.159 0-0.31 0-0.478 0.426 0 0.844 0 1.27 0 0.022 0.133 0.043 0.263 0.069 0.413 0.151-0.151 0.267-0.293 0.413-0.4 0.159-0.121 0.353-0.099 0.555-0.069 0.069 0.263-0.052 0.508-0.030 0.792-0.146 0-0.263 0-0.379 0-0.151-0.004-0.297 0.026-0.4 0.138-0.065 0.069-0.138 0.168-0.138 0.258-0.013 0.512 0 1.025 0 1.537 0 0.017 0.013 0.030 0.026 0.065 0.108 0.030 0.228 0.065 0.37 0.103 0 0.155 0 0.31 0 0.504-0.564 0.013-1.124 0.004-1.705 0.004z"></path>
            <path d="M26.574 22.536c0-0.146 0-0.297 0-0.469 0.125-0.034 0.254-0.073 0.4-0.112 0-0.706 0-1.412 0-2.131-0.155-0.039-0.297-0.077-0.448-0.116 0-0.168 0-0.319 0-0.482 0.448 0 0.878 0 1.343 0 0 0.908 0 1.808 0 2.716 0.146 0.043 0.271 0.077 0.392 0.112 0.069 0.189 0.069 0.228 0.022 0.469-0.181 0.065-1.442 0.077-1.709 0.013z"></path>
            <path d="M32.007 17.702c0.121 0.697-0.069 1.356-0.534 1.752-0.060-0.030-0.129-0.060-0.194-0.095s-0.129-0.077-0.211-0.133c0.301-0.474 0.215-1.007 0.267-1.524 0.241 0 0.456 0 0.672 0z"></path>
            <path d="M27.022 18.313c0-0.211 0-0.4 0-0.611 0.28 0 0.542 0 0.818 0 0.065 0.198 0.034 0.396 0.017 0.611-0.276 0-0.538 0-0.835 0z"></path>
        </symbol>

        <symbol id="beid" viewBox="0 0 45 32">
            <path d="M30.817 14.304c-0.027-0.204-0.070-0.376-0.124-0.516s-0.129-0.263-0.226-0.376c-0.167-0.204-0.366-0.36-0.602-0.462-0.231-0.102-0.516-0.156-0.855-0.156h-1.468v6.483h1.468c0.333 0 0.618-0.054 0.855-0.156 0.231-0.102 0.435-0.258 0.602-0.462 0.091-0.113 0.167-0.242 0.226-0.392 0.054-0.151 0.097-0.328 0.124-0.543s0.048-0.462 0.054-0.747c0.011-0.285 0.016-0.613 0.016-0.984 0-0.382-0.005-0.71-0.016-0.978-0.005-0.263-0.027-0.505-0.054-0.71zM12.858 15.524c-0.5 0-0.79 0.124-1 0.21v3.795c0.263 0.086 0.527 0.113 0.763 0.113 1.193 0 1.951-0.871 1.951-2.161 0.005-1.15-0.634-1.957-1.715-1.957zM18.642 15.417c-0.817 0-1.258 0.693-1.274 1.484h2.537c-0.016-0.753-0.387-1.484-1.263-1.484zM36.725 19.475v-6.95c0-3.258-2.639-5.902-5.902-5.902h-20.389c-3.258 0-5.902 2.639-5.902 5.902v6.95c0 3.258 2.639 5.902 5.902 5.902h20.394c3.258 0 5.897-2.645 5.897-5.902zM8.956 21.013c-0.5 0-0.903-0.403-0.903-0.903s0.403-0.903 0.903-0.903 0.903 0.403 0.903 0.903c0.005 0.495-0.403 0.903-0.903 0.903zM21.582 18.045h-4.198c0.043 1.011 0.763 1.661 1.855 1.661 0.65 0 1.177-0.183 1.65-0.441l0.5 1.134c-0.693 0.43-1.511 0.607-2.311 0.607-1.736 0-2.72-0.871-3.123-2.027-0.597 1.301-1.946 2.027-3.585 2.027-0.844 0-1.591-0.167-2.145-0.457v-9.488h1.65v3.284c0.376-0.113 0.763-0.194 1.274-0.194 1.295 0 2.397 0.634 2.881 1.812 0.441-1.097 1.355-1.812 2.655-1.812 1.844 0 2.908 1.328 2.908 3.505v0.387zM24.899 21.013h-1.941v-9.945h1.941v9.945zM29.194 21.013h-3.591v-9.945h3.591c0.521 0 1.005 0.075 1.462 0.231 0.452 0.156 0.839 0.392 1.166 0.72 0.28 0.28 0.489 0.575 0.629 0.882s0.237 0.629 0.296 0.962c0.054 0.333 0.086 0.683 0.086 1.048v2.209c0 0.366-0.027 0.715-0.086 1.059-0.054 0.344-0.156 0.677-0.296 0.994s-0.349 0.613-0.629 0.892c-0.328 0.328-0.715 0.564-1.166 0.72-0.452 0.145-0.941 0.226-1.462 0.226zM30.828 2.629h-3.704v3.107h3.704c3.741 0 6.789 3.043 6.789 6.789v6.95c0 3.741-3.042 6.789-6.789 6.789h-3.704v3.107h3.704c5.456 0 9.896-4.44 9.896-9.896v-6.95c0-5.456-4.44-9.896-9.896-9.896z"></path>
        </symbol>

        <symbol id="bib" viewBox="0 0 32 32">
            <path d="M23.59 29.579c-0.123-1.149-0.287-2.174-0.41-3.282-0.164 0-0.369 0-0.533 0-3.692 0.451-7.344 0.903-11.036 1.354-1.723 0.205-3.446 0.41-5.169 0.615-1.108 0.123-1.723-0.369-1.846-1.477-0.082-0.862-0.205-1.723-0.287-2.585 0-0.041 0-0.082 0-0.205 0.205 0 0.369 0 0.574 0 1.887-0.041 3.733-0.082 5.62-0.205 1.149-0.082 1.969-0.738 2.297-1.887 0.328-1.19 0.123-2.256-0.82-3.118-0.205-0.205-0.492-0.328-0.78-0.533 1.231-0.574 1.6-1.559 1.395-2.79-0.205-1.272-1.19-2.051-2.708-2.092-2.133-0.041-4.267-0.041-6.4-0.041-0.451 0-0.574-0.123-0.615-0.574-0.164-1.477-0.369-2.995-0.574-4.554-0.082-0.533 0.082-0.985 0.492-1.313 0.903-0.697 1.846-1.395 2.79-2.092 1.026-0.779 2.092-1.518 3.2-2.338 0.123 0.944 0.246 1.846 0.328 2.708 0.041 0.41 0.164 0.574 0.615 0.533 3.364-0.369 6.728-0.779 10.133-1.19 1.928-0.246 3.856-0.492 5.785-0.697 0.779-0.082 1.477 0.369 1.6 1.272 0.492 4.144 1.026 8.287 1.518 12.431 0.246 2.010 0.492 4.062 0.779 6.072 0.123 0.82-0.082 1.436-0.82 1.969-1.6 1.19-3.118 2.462-4.718 3.692-0.082 0.123-0.205 0.164-0.41 0.328zM18.256 13.374c0 0.78 0 1.518 0 2.297 0.246 0.041 0.451 0.041 0.656 0.082 0 1.969 0 3.897 0 5.867-0.205 0.041-0.41 0.041-0.656 0.082 0 0.779 0 1.518 0 2.297 1.231 0 2.421 0 3.651 0 0.041-0.123 0.041-0.287 0.082-0.41 0.164 0.082 0.287 0.164 0.41 0.205 1.272 0.656 2.626 0.41 3.528-0.697 0.944-1.149 1.067-2.503 0.862-3.897-0.287-1.641-1.395-2.708-2.954-2.708-0.615 0-1.231 0.246-1.887 0.369 0-1.108 0-2.256 0-3.446-1.231-0.041-2.462-0.041-3.692-0.041zM17.477 23.959c0-0.779 0-1.518 0-2.256-0.164-0.041-0.287-0.082-0.451-0.123 0-0.205 0-0.41 0-0.615 0-1.313 0-2.626 0-3.938 0-0.164-0.123-0.451-0.205-0.451-1.067-0.041-2.174-0.041-3.282-0.041 0 0.82 0 1.559 0 2.297 0.164 0.041 0.328 0.082 0.492 0.123 0 0.903 0 1.723 0 2.585-0.164 0.041-0.328 0.082-0.451 0.082 0 0.779 0 1.518 0 2.256 1.313 0.082 2.585 0.082 3.897 0.082zM8.123 12.021c-0.041-0.533 0.041-1.067-0.164-1.313-0.246-0.246-0.246-0.41-0.246-0.656 0-0.738 0-1.436 0-2.174 0-0.574 0-1.149 0-1.723-0.697 0-1.354 0-2.092 0 0.041 0.41-0.041 1.026 0.164 1.19 0.328 0.246 0.246 0.451 0.246 0.697-0.862-0.328-1.354-0.287-1.887 0.082-0.615 0.41-0.903 1.559-0.697 2.503 0.287 1.149 1.231 1.641 2.338 1.231 0.082-0.041 0.164-0.041 0.205-0.041 0.656 0.041 1.354 0.123 2.133 0.205zM12.308 10.872c-0.205-0.041-0.328-0.041-0.492-0.082-0.41-0.082-0.82-0.246-1.108 0.205-0.041 0.041-0.451 0-0.533-0.123-0.123-0.164-0.164-0.451-0.246-0.78 0.862 0 1.641 0 2.421 0 0.041-1.272-0.615-2.174-1.682-2.338s-1.969 0.492-2.215 1.6c-0.246 1.19 0.287 2.256 1.272 2.544 1.149 0.41 2.174 0 2.585-1.026zM15.426 15.754c0.779 0 1.436-0.41 1.559-1.026 0.123-0.656-0.164-1.19-0.862-1.436-0.656-0.246-1.313-0.164-1.887 0.287-0.41 0.328-0.492 0.903-0.328 1.354 0.205 0.492 0.862 0.82 1.518 0.82z"></path>
            <path d="M3.364 15.959c0.328 0 0.656 0 1.026 0 0 1.805 0 3.61 0 5.579-0.205-0.164-0.41-0.246-0.451-0.369-0.246-1.682-0.451-3.364-0.656-5.087 0 0 0.041-0.041 0.082-0.123z"></path>
            <path d="M7.631 21.662c0-0.738 0-1.395 0-2.092 0.656 0 1.354-0.205 1.764 0.41 0.164 0.287 0.164 0.903-0.041 1.231-0.41 0.615-1.108 0.369-1.723 0.451z"></path>
            <path d="M7.631 17.641c0-0.615 0-1.231 0-1.887 0.574 0 1.19-0.246 1.559 0.328 0.205 0.287 0.205 0.862 0.041 1.149-0.328 0.574-1.026 0.369-1.6 0.41z"></path>
            <path d="M23.959 20.267c-0.082 0.41-0.082 0.779-0.246 1.067-0.123 0.246-0.451 0.492-0.697 0.492-0.287 0-0.656-0.205-0.779-0.451-0.369-0.738-0.369-1.559 0.041-2.297 0.123-0.205 0.492-0.41 0.738-0.41s0.574 0.246 0.697 0.451c0.123 0.369 0.164 0.82 0.246 1.149z"></path>
            <path d="M4.964 9.887c0.041-0.164 0.041-0.369 0.123-0.492 0.082-0.164 0.287-0.328 0.41-0.328 0.164 0 0.41 0.205 0.41 0.328 0.082 0.328 0.082 0.697 0 1.026-0.041 0.123-0.287 0.369-0.41 0.328-0.164 0-0.369-0.205-0.451-0.369-0.041-0.123-0.041-0.328-0.082-0.492z"></path>
            <path d="M10.913 9.559c-0.328 0-0.574 0-0.903 0-0.041-0.369-0.041-0.738 0.369-0.821 0.492-0.041 0.41 0.451 0.533 0.82z"></path>
        </symbol>

        <symbol id="universal-access" viewBox="0 0 32 32">
            <path d="M16 32c-2.206 0-4.281-0.421-6.226-1.262s-3.639-1.984-5.083-3.429-2.587-3.139-3.429-5.083-1.262-4.020-1.262-6.226 0.421-4.276 1.262-6.209 1.984-3.628 3.429-5.083 3.139-2.604 5.083-3.446c1.945-0.842 4.020-1.262 6.226-1.262s4.276 0.421 6.209 1.262c1.933 0.841 3.628 1.99 5.083 3.446s2.604 3.15 3.446 5.083c0.842 1.933 1.262 4.003 1.262 6.209s-0.421 4.281-1.262 6.226c-0.841 1.945-1.99 3.639-3.446 5.083s-3.15 2.587-5.083 3.429-4.003 1.262-6.209 1.262zM16 2.149c-1.91 0-3.707 0.364-5.39 1.092s-3.15 1.717-4.401 2.968-2.24 2.718-2.968 4.401-1.092 3.48-1.092 5.39c0 1.91 0.364 3.707 1.092 5.39s1.717 3.15 2.968 4.401c1.251 1.251 2.718 2.24 4.401 2.968s3.48 1.092 5.39 1.092c1.911 0 3.707-0.364 5.39-1.092s3.15-1.717 4.401-2.968c1.251-1.251 2.24-2.718 2.968-4.401s1.092-3.48 1.092-5.39c0-1.91-0.364-3.707-1.092-5.39s-1.717-3.15-2.968-4.401c-1.251-1.251-2.718-2.24-4.401-2.968s-3.48-1.092-5.39-1.092zM18.354 6.345c0-0.66-0.227-1.217-0.682-1.672s-1.012-0.682-1.672-0.682-1.211 0.227-1.655 0.682-0.665 1.012-0.665 1.672 0.222 1.217 0.665 1.672 0.995 0.682 1.655 0.682 1.217-0.227 1.672-0.682 0.682-1.012 0.682-1.672zM24.597 14.431l-3.377-2.934c-0.114-0.114-0.245-0.239-0.392-0.375s-0.301-0.273-0.461-0.409c-0.227-0.205-0.438-0.398-0.631-0.58s-0.347-0.307-0.461-0.375c-0.25-0.182-0.483-0.301-0.699-0.358s-0.483-0.085-0.802-0.085h-3.548c-0.318 0-0.586 0.028-0.802 0.085s-0.449 0.165-0.699 0.324c-0.114 0.091-0.267 0.227-0.461 0.409s-0.404 0.375-0.631 0.58c-0.159 0.136-0.313 0.273-0.461 0.409s-0.279 0.262-0.392 0.375l-3.377 2.934c-0.205 0.182-0.33 0.421-0.375 0.716 0 0.296 0.091 0.557 0.273 0.785 0.182 0.205 0.426 0.318 0.733 0.341s0.563-0.057 0.768-0.239c0.091-0.068 0.296-0.245 0.614-0.529s0.682-0.603 1.092-0.955c0.409-0.353 0.83-0.711 1.262-1.075s0.796-0.671 1.092-0.921c0.205-0.182 0.37-0.267 0.495-0.256s0.188 0.176 0.188 0.495v1.979c0 0.841-0.023 1.495-0.068 1.962s-0.080 0.722-0.102 0.768l-1.535 8.768c-0.068 0.387 0 0.717 0.205 0.989 0.182 0.296 0.466 0.478 0.853 0.546 0.364 0.068 0.694-0.006 0.989-0.222s0.478-0.495 0.546-0.836l0.085-0.495c0 0 0.068-0.415 0.205-1.245s0.227-1.37 0.273-1.62 0.142-0.802 0.29-1.655c0.148-0.853 0.233-1.313 0.256-1.382l0.154-0.768c0.023-0.091 0.034-0.165 0.034-0.222s0.011-0.12 0.034-0.188c0.046-0.25 0.125-0.37 0.239-0.358s0.193 0.131 0.239 0.358c0.023 0.068 0.034 0.131 0.034 0.188s0.011 0.131 0.034 0.222l0.154 0.768c0 0 0.085 0.461 0.256 1.382s0.267 1.473 0.29 1.655c0.023 0.182 0.114 0.722 0.273 1.62s0.227 1.313 0.205 1.245l0.085 0.495c0.045 0.318 0.193 0.58 0.444 0.785s0.534 0.307 0.853 0.307c0.114 0 0.193-0.011 0.239-0.034 0.387-0.068 0.671-0.25 0.853-0.546 0.205-0.273 0.273-0.603 0.205-0.989l-1.535-8.733c0-0.068-0.028-0.336-0.085-0.802s-0.085-1.12-0.085-1.962l-0.034-2.013c0-0.318 0.068-0.478 0.205-0.478s0.307 0.091 0.512 0.273v-0.034c0.296 0.273 0.66 0.591 1.092 0.955s0.853 0.722 1.262 1.075c0.409 0.353 0.773 0.671 1.092 0.955s0.523 0.461 0.614 0.529c0.205 0.182 0.461 0.267 0.768 0.256s0.551-0.131 0.733-0.358c0.182-0.227 0.267-0.489 0.256-0.785s-0.131-0.535-0.358-0.716z"></path>
        </symbol>

        <symbol id="lcp" viewBox="0 0 24 24">
            <path class="st0" d="M8.2,12.2c-0.3-0.3-0.3-0.7,0-1c0.1-0.1,0.3-0.3,0.3-0.3l4.6-4.6c0.3-0.1,0.4-0.4,0.4-0.9s-0.1-0.9-0.4-1
            l-1.6-1.7C11,2,10,2,9.4,2.6L2.2,9.9c-1,1-1,2.8,0,3.8l4.1,4.1c0.3,0.3,0.7,0.4,1,0.4c0.3,0,0.7-0.1,1-0.4l1.6-1.6
            c0.7-0.7,0.7-1.6,0.1-2.2L8.2,12.2z M21.9,10.6l-4.1-4.1c-0.6-0.6-1.6-0.6-2.2,0L14,8.1c-0.6,0.6-0.6,1.6,0,2.2l1.6,1.6
            c0.3,0.3,0.3,0.7,0,1l0,0c-0.1,0.1-0.1,0.3-0.1,0.3l-4.6,4.5c-0.3,0.3-0.4,0.7-0.4,1s0.1,0.7,0.4,1l1.6,1.6c0.6,0.6,1.6,0.6,2.2,0
            l7.2-7.2c0.4-0.4,0.7-1,0.7-1.6v-0.1C22.6,11.7,22.3,11,21.9,10.6z"/>
        </symbol>

        <symbol id="lcp-full" viewBox="0 0 24 24">
            <path d="M22.3,10.3l-4.2-4.2c-0.3-0.3-0.8-0.5-1.2-0.5c-0.5,0-0.9,0.2-1.2,0.5L14,7.9c-0.7,0.7-0.7,1.8,0,2.4l1.7,1.7
            c0.2,0.2,0.2,0.5,0,0.8c-0.1,0.1-4.9,4.9-4.9,4.9c-0.3,0.3-0.5,0.8-0.5,1.2c0,0.5,0.2,0.9,0.5,1.2l1.7,1.7c0.3,0.3,0.8,0.5,1.2,0.5
            s0.9-0.2,1.2-0.5l7.4-7.4c0.5-0.5,0.8-1.1,0.8-1.8c0-0.1,0-0.2,0-0.3C23.1,11.6,22.8,10.9,22.3,10.3z M13.2,21l-1.7-1.7
            c-0.1-0.1-0.2-0.2-0.2-0.4c0-0.1,0.1-0.3,0.2-0.4l4.7-4.7c0,0,0.1-0.1,0.3-0.3c0.7-0.7,2.4-2.6,2.7-4.6l2.2,2.2
            c0.3,0.3,0.5,0.7,0.5,1.2c0,0.4-0.2,0.9-0.5,1.2L14,21c-0.1,0.1-0.2,0.2-0.4,0.2C13.5,21.1,13.3,21.1,13.2,21z M16.9,6.9L16.9,6.9
            c0.1,0,0.3,0.1,0.4,0.2l0.8,0.8c0.3,1.2-0.5,2.6-1.3,3.7c-0.1-0.1-0.2-0.2-0.3-0.3l-1.7-1.7c-0.2-0.2-0.2-0.6,0-0.8L16.5,7
            C16.6,6.9,16.7,6.9,16.9,6.9z M10,13.7L8.3,12c-0.2-0.2-0.2-0.5,0-0.8l4.9-4.9c0.3-0.3,0.5-0.8,0.5-1.2c0-0.5-0.2-0.9-0.5-1.2
            l-1.7-1.7c-0.3-0.3-0.8-0.5-1.2-0.5c-0.5,0-0.9,0.2-1.2,0.5L1.7,9.6c-1.1,1.1-1.1,3,0,4.1l4.2,4.2c0.3,0.3,0.8,0.5,1.2,0.5h0
            c0.5,0,0.9-0.2,1.2-0.5l1.7-1.7C10.7,15.5,10.7,14.4,10,13.7z M2.6,10.4L10,3c0.1-0.1,0.2-0.2,0.4-0.2c0.1,0,0.3,0.1,0.4,0.2
            l1.7,1.7c0.1,0.1,0.2,0.2,0.2,0.4c0,0.1-0.1,0.3-0.2,0.4l-4.7,4.7c0,0-0.1,0.1-0.3,0.3c-0.9,0.9-2.4,2.7-2.7,4.6l-2.2-2.2
            C1.9,12.2,1.9,11.1,2.6,10.4z M7.2,12.5c0.1,0.1,0.2,0.2,0.3,0.3l1.7,1.7c0.2,0.2,0.2,0.6,0,0.8L7.5,17c-0.1,0.1-0.2,0.2-0.4,0.2
            S6.8,17.1,6.7,17l-0.8-0.8C5.7,15,6.4,13.6,7.2,12.5z"/>
        </symbol>

        <symbol id="lcp-old" viewBox="0 0 24 24">
            <path d="M19.55,6.58a.51.51,0,0,0-.26-.45l-7-4.06a.52.52,0,0,0-.52,0l-7,4.06a.51.51,0,0,0-.26.45A.54.54,0,0,0,4.7,7l7,4.06a.48.48,0,0,0,.26.07.47.47,0,0,0,.25-.07l7-4.06a.54.54,0,0,0,.26-.45ZM11,13.09a.57.57,0,0,0-.19-.19l-7-4.06A.52.52,0,0,0,3,9.29v8.13a.43.43,0,0,0,.07.25.44.44,0,0,0,.19.19l7,4.07a.53.53,0,0,0,.52,0,.52.52,0,0,0,.26-.45V13.35a.48.48,0,0,0-.07-.26Zm9.73-4.25a.53.53,0,0,0-.52,0l-7,4.06a.5.5,0,0,0-.19.19.48.48,0,0,0-.07.26v8.13a.51.51,0,0,0,.26.45.53.53,0,0,0,.52,0l7-4.06a.52.52,0,0,0,.19-.2.43.43,0,0,0,.07-.25V9.29a.54.54,0,0,0-.26-.45Z" />
        </symbol>

        <symbol id="lcp-color" viewBox="0 0 115 115">
            <path d="M57.5,52.9c-0.5,0-1-0.1-1.4-0.4L17.5,30.3c-0.9-0.5-1.4-1.4-1.4-2.5c0-1,0.5-1.9,1.4-2.5L56.1,3.2
                c0.4-0.3,0.9-0.4,1.4-0.4c0.5,0,1,0.1,1.4,0.4l38.5,22.2c0.9,0.5,1.4,1.4,1.4,2.5c0,1-0.5,1.9-1.4,2.5L58.9,52.5
                C58.4,52.8,58,52.9,57.5,52.9"  style="fill: var(--icon-color-lcp1,#FDDB00);transition:fill var(--transition-duration-base) var(--transition-timing-function)" />
            <path d="M52.1,63.5c0.2,0.4,0.4,0.9,0.4,1.4l0,44.5c0,1-0.5,1.9-1.4,2.5c-0.9,0.5-2,0.5-2.8,0L9.8,89.6
                c-0.4-0.3-0.8-0.6-1-1c-0.2-0.4-0.4-0.9-0.4-1.4L8.3,42.7c0-1,0.5-1.9,1.4-2.5c0.9-0.5,2-0.5,2.8,0l38.5,22.2
                C51.5,62.7,51.9,63.1,52.1,63.5"  style="fill: var(--icon-color-lcp2,#DC7A26);transition:fill var(--transition-duration-base) var(--transition-timing-function)" />
            <path d="M62.9,63.5c-0.2,0.4-0.4,0.9-0.4,1.4l0,44.5c0,1,0.5,1.9,1.4,2.5c0.9,0.5,2,0.5,2.8,0l38.5-22.2
                c0.4-0.3,0.8-0.6,1-1c0.2-0.4,0.4-0.9,0.4-1.4l0.1-44.4c0-1-0.5-1.9-1.4-2.5c-0.9-0.5-2-0.5-2.8,0L63.9,62.4
                C63.5,62.7,63.1,63.1,62.9,63.5"  style="fill: var(--icon-color-lcp3,#F4A51C);transition:fill var(--transition-duration-base) var(--transition-timing-function)" />
        </symbol>

        <symbol id="mijnburgerprofiel" viewBox="0 0 32 32">
            <path d="M6.533 23.067c0 0.8 0 1.6 0 2.533-0.133 0-0.267 0-0.267 0-1.467 0-3.067 0-4.533 0-0.267 0-0.267-0.133-0.267-0.267 0-5.867 0-11.733 0-17.6 0-0.533 0-0.933 0-1.467 0-0.267 0-0.267 0.267-0.267 5.2 0 10.4 0 15.6 0 0.4 0 0.8-0.133 1.2-0.4 0.933-1.067 2-2 3.067-3.067 0.133-0.133 0.267-0.133 0.4-0.133 2.933 0 5.733 0 8.667 0 0 0 0.133 0 0.133 0 0 0.133 0 0.133 0 0.267 0 6.933 0 13.867 0 20.8 0 0.267 0 0.533 0 0.8 0 0-0.133 0.133-0.133 0.133-0.8 0-1.467 0-2.267 0 0-0.133 0-0.267 0-0.267 0-1.067 0-2.133 0-3.2 0-5.2 0-10.4 0-15.6 0-0.4 0-0.4-0.4-0.4-1.6 0-3.333 0-4.933 0-0.133 0-0.267 0.133-0.4 0.133-1.067 1.067-2.133 2.133-3.2 3.2-0.267 0.267-0.4 0.267-0.8 0.267-4.8 0-9.467 0-14.267 0-0.4 0-0.4 0-0.4 0.4 0 4.667 0 9.2 0 13.867 0 0.267 0.133 0.267 0.267 0.267 0.667-0.133 1.467 0 2.267 0z"></path>
            <path d="M11.733 16.267c0-3.067 2.533-5.467 5.467-5.467 3.2 0 5.467 2.533 5.467 5.467 0 3.067-2.4 5.6-5.6 5.467-3.467 0-5.333-2.667-5.333-5.467zM17.2 19.333c1.6 0 3.067-1.467 3.067-2.933s-1.333-3.067-3.067-3.067c-1.6 0-2.933 1.467-2.933 3.067-0.133 1.6 1.333 2.933 2.933 2.933z"></path>
            <path d="M24.533 29.467c-2.133-1.867-4.533-2.933-7.333-2.933-2.933 0-5.2 1.2-7.2 3.2-0.133-0.133-0.133-0.133-0.267-0.267-0.4-0.4-0.933-0.933-1.333-1.333-0.133-0.133-0.133-0.133 0-0.267 1.2-1.2 2.533-2.133 4-2.8 3.867-1.467 7.6-1.333 11.333 0.667 0.933 0.533 1.733 1.2 2.533 1.867 0.133 0.133 0.133 0.133 0 0.267-0.667 0.533-1.2 1.067-1.733 1.6z"></path>
        </symbol>
		<symbol id="be-alert" viewBox="0 0 641 115.5">
			<path id="Path_723" d="M169,103.1h-0.3v10h-20.3V2.2h21.1v40.9h0.5c4.7-7.6,13.2-12.2,22.2-11.8c20,0,34.3,17.2,34.3,42.1
				c0,25.8-13.7,42-33.7,42C183.2,115.9,174.2,111.2,169,103.1L169,103.1z M205,73.4c0-14.8-5.9-25-17.7-25C174,48.4,169,59.1,169,73.8
				s7.3,23.9,19.1,23.9C199,97.7,205,88.7,205,73.4z"/>
			<path id="Path_724" d="M232.4,73.2c0-23.6,16-41.9,39.2-41.9c25.6,0,39.2,19.6,39.2,48h-57.7c1.6,12.3,8.4,19.9,20.3,19.9
				c6.8,0.6,13.1-3.4,15.4-9.8h20.8c-3.1,14.1-15.4,26.1-36,26.1C247.3,115.4,232.4,96.9,232.4,73.2L232.4,73.2z M253.5,64.7h35.4
				c0.2-9.3-7.2-16.9-16.5-17.1c-0.1,0-0.3,0-0.4,0C260.7,47.6,255.3,54.3,253.5,64.7L253.5,64.7z"/>
			<path id="Path_725" d="M394.9,104.2h-0.3c-4,6.2-9.8,10.7-23.4,10.7c-16.3,0-27.7-8.5-27.7-24.4c0-17.5,14.3-23.1,32-25.6
				c13.2-1.9,19.2-3.1,19.2-9s-4.5-9.5-13.3-9.5c-9.9,0-14.7,3.6-15.4,11.2h-18.7c0.6-14,11-26.2,34.3-26.2c23.9,0,33.5,10.7,33.5,29.4
				v40.6c0,6.2,0.9,9.6,2.8,11v0.8h-20.3c-1.5-2.7-2.3-5.7-2.5-8.8L394.9,104.2z M395.1,85V73.1c-4.7,2.2-9.6,3.7-14.7,4.6
				c-11,2.5-16.4,5-16.4,12.3s5,10.1,12.3,10.1C388.3,100.1,395,92.7,395.1,85L395.1,85z"/>
			<rect id="Rectangle_203" x="427.8" y="2.2" width="21.1" height="110.9"/>
			<path id="Path_726" d="M458.1,73.2c0-23.6,16-41.9,39.2-41.9c25.6,0,39.2,19.6,39.2,48h-57.9c1.6,12.3,8.4,19.9,20.3,19.9
				c6.8,0.6,13.1-3.4,15.4-9.8h20.7c-3.1,14.1-15.4,26.1-36,26.1c-26.4,0-41.2-18.5-41.2-42.2H458.1z M479.2,64.7h35.4
				c0.2-9.3-7.2-16.9-16.5-17.1c-0.1,0-0.3,0-0.4,0C486.4,47.6,481,54.3,479.2,64.7L479.2,64.7z"/>
			<path id="Path_727" d="M565.2,46.2h0.5c3-8.2,10.8-13.6,19.6-13.6c1.7-0.1,3.4,0.1,5,0.6v18.5h-0.5c-13.8-1.4-23.7,5.9-23.7,22.7
				v38.7h-21.1V33.6h20.3C565.2,33.6,565.2,46.2,565.2,46.2z"/>
			<path id="Path_728" d="M595.3,33.6h11v-25h20.6v25h13.7v13.9h-13.7v42.2c-0.6,3.8,2.1,7.4,5.9,7.9c0.7,0.1,1.3,0.1,2,0
				c2.7,0,6.2-0.2,6.2-0.2v15.4c0,0-4.8,0.3-13.2,0.3c-10.3,0-21.6-4-21.6-19.1V47.4h-11L595.3,33.6L595.3,33.6z"/>
			<path id="Path_729" d="M104.8,43.1C92.2,23.2,73.5,8.1,51.4,0L41,18.9c39.9,13.1,64.5,53.3,57.8,94.8h21.7
				C123.6,89,118.1,64,104.8,43.1L104.8,43.1z"/>
			<path id="Path_730" d="M59.7,54.9C51.6,46.8,41.5,41,30.4,38.2L19.5,58c23.2,2.7,39.9,23.7,37.2,46.9c-0.3,2.9-1,5.8-1.9,8.6h22.3
				c4.5-21.3-2-43.4-17.4-58.8L59.7,54.9z"/>
			<path id="Path_731" d="M13.6,86C6.1,86,0,92,0,99.5c0,7.5,6,13.6,13.5,13.6c7.5,0,13.6-6,13.6-13.5l0,0C27.1,92.1,21.1,86,13.6,86
				C13.6,86,13.6,86,13.6,86L13.6,86z"/>
        </symbol>
		<symbol id="de-watergroep" viewBox="0 42 32">
			<path d="M27.4,16.3c-0.1,0-0.3,0-0.4,0c-1.6,0.1-3.3,0.9-5.2,1.9c-1.9,1.2-3.8,2.2-5.8,3.1c-1.4,0.6-3,1-4.6,1c-0.4,0-0.8,0-1.1-0.1
				C8,22,5.7,21.1,3.8,19.7c-1.4-1.1-2.7-2.5-3.8-3.9c0.1,0.3,0.1,0.5,0.3,0.8c0.8,2.6,2.1,4.9,4.1,6.7c1.6,1.4,3.7,2.3,5.9,2.6
				c0.4,0.1,0.8,0.1,1.1,0.1c2.4,0,5.1-1.1,8-2.6s6-3.4,9.3-4.7c1.1-0.4,2.1-0.8,3.2-1c-0.3-0.2-0.7-0.4-1-0.5
				C29.7,16.6,28.6,16.3,27.4,16.3L27.4,16.3z"/>
			<path d="M5.6,17.3c1.4,1.1,3.2,1.8,5,2.1c0.3,0,0.5,0.1,0.8,0.1c1.9-0.1,3.7-0.7,5.2-1.6c1.8-0.9,3.7-2.2,5.7-3.1
				c1.4-0.7,2.9-1.1,4.4-1.3c0.2,0,0.4,0,0.6,0c1.6,0,3.1,0.4,4.5,1.1C31,5.5,23.1-0.9,14.2,0.1C7.8,0.8,2.5,5.2,0.6,11.3
				c0,0,0,0.1,0.1,0.1C1.8,13.6,3.5,15.7,5.6,17.3L5.6,17.3z"/>
			<path d="M39.4,21c-1.3-0.5-2.6-0.8-4-0.8s-2.8,0.3-4.2,0.7c-1.6,0.5-3.1,1.1-4.7,2c-3,1.5-6,3.3-9.1,4.7c-2,0.9-4.2,1.4-6.3,1.4
				c-0.5,0-1-0.1-1.5-0.1c-2.1-0.3-4.2-1.1-6-2.3c2.7,3.1,7.7,5.5,11,5.4c2.5-0.1,5-0.8,7.2-2c2-1,4.5-2.8,6.4-3.8
				c1.6-0.9,3.2-1.7,4.8-2.4c2.3-1.1,4.7-1.7,7.2-1.8c0.4,0,0.8,0,1.1,0.1C40.9,21.7,40.2,21.3,39.4,21L39.4,21z"/>
		</symbol>
    </defs>
</svg>
