 <svg aria-hidden="true" style="position: absolute; width: 0; height: 0; overflow: hidden;" version="1.1" xmlns="http://www.w3.org/2000/svg" xmlns:xlink="http://www.w3.org/1999/xlink">
    <defs>
        <symbol id="facebook-fill" viewBox="0 0 24 24">
            <path d="M14 13.5h2.5l1-4H14v-2c0-1.03 0-2 2-2h1.5V2.14c-.326-.043-1.557-.14-2.857-.14C11.928 2 10 3.657 10 6.7v2.8H7v4h3V22h4v-8.5z"/>
        </symbol>

        <symbol id="facebook-box-fill" viewBox="0 0 24 24">
			<path d="M15.402 21v-6.966h2.333l.349-2.708h-2.682V9.598c0-.784.218-1.319 1.342-1.319h1.434V5.857a19.19 19.19 0 0 0-2.09-.107c-2.067 0-3.482 1.262-3.482 3.58v1.996h-2.338v2.708h2.338V21H4a1 1 0 0 1-1-1V4a1 1 0 0 1 1-1h16a1 1 0 0 1 1 1v16a1 1 0 0 1-1 1h-4.598z"/>
		</symbol>

        <symbol id="facebook-box-line" viewBox="0 0 24 24">
            <path d="M14 19h5V5H5v14h7v-5h-2v-2h2v-1.654c0-1.337.14-1.822.4-2.311A2.726 2.726 0 0 1 13.536 6.9c.382-.205.857-.328 1.687-.381.329-.021.755.005 1.278.08v1.9H16c-.917 0-1.296.043-1.522.164a.727.727 0 0 0-.314.314c-.12.226-.164.45-.164 1.368V12h2.5l-.5 2h-2v5zM4 3h16a1 1 0 0 1 1 1v16a1 1 0 0 1-1 1H4a1 1 0 0 1-1-1V4a1 1 0 0 1 1-1z"/>
		</symbol>

        <symbol id="facebook-circle-fill" viewBox="0 0 24 24">
            <path d="M12 2C6.477 2 2 6.477 2 12c0 4.991 3.657 9.128 8.438 9.879V14.89h-2.54V12h2.54V9.797c0-2.506 1.492-3.89 3.777-3.89 1.094 0 2.238.195 2.238.195v2.46h-1.26c-1.243 0-1.63.771-1.63 1.562V12h2.773l-.443 2.89h-2.33v6.989C18.343 21.129 22 16.99 22 12c0-5.523-4.477-10-10-10z"/>
		</symbol>

        <symbol id="facebook-circle-line" viewBox="0 0 24 24">
            <path d="M13 19.938A8.001 8.001 0 0 0 12 4a8 8 0 0 0-1 15.938V14H9v-2h2v-1.654c0-1.337.14-1.822.4-2.311A2.726 2.726 0 0 1 12.536 6.9c.382-.205.857-.328 1.687-.381.329-.021.755.005 1.278.08v1.9H15c-.917 0-1.296.043-1.522.164a.727.727 0 0 0-.314.314c-.12.226-.164.45-.164 1.368V12h2.5l-.5 2h-2v5.938zM12 22C6.477 22 2 17.523 2 12S6.477 2 12 2s10 4.477 10 10-4.477 10-10 10z"/>
		</symbol>

        <symbol id="messenger-line" viewBox="0 0 24 24">
            <path d="M7.764 19.225c.59-.26 1.25-.309 1.868-.139.77.21 1.565.316 2.368.314 4.585 0 8-3.287 8-7.7S16.585 4 12 4s-8 3.287-8 7.7c0 2.27.896 4.272 2.466 5.676a2.8 2.8 0 0 1 .942 2.006l.356-.157zM12 2c5.634 0 10 4.127 10 9.7 0 5.573-4.366 9.7-10 9.7a10.894 10.894 0 0 1-2.895-.384.8.8 0 0 0-.534.039l-1.984.876a.8.8 0 0 1-1.123-.707l-.055-1.78a.797.797 0 0 0-.268-.57C3.195 17.135 2 14.617 2 11.7 2 6.127 6.367 2 12 2zM5.995 14.537l2.937-4.66a1.5 1.5 0 0 1 2.17-.4l2.336 1.75a.6.6 0 0 0 .723 0l3.155-2.396c.421-.319.971.185.689.633l-2.937 4.66a1.5 1.5 0 0 1-2.17.4l-2.336-1.75a.6.6 0 0 0-.723 0l-3.155 2.395c-.421.319-.971-.185-.689-.633z"/>
		</symbol>

        <symbol id="messenger-fill" viewBox="0 0 24 24">
            <path d="M12 2c5.634 0 10 4.127 10 9.7 0 5.573-4.366 9.7-10 9.7a10.894 10.894 0 0 1-2.895-.384.8.8 0 0 0-.534.039l-1.984.876a.8.8 0 0 1-1.123-.707l-.055-1.78a.797.797 0 0 0-.268-.57C3.195 17.135 2 14.617 2 11.7 2 6.127 6.367 2 12 2zM5.995 14.537c-.282.447.268.951.689.631l3.155-2.394a.6.6 0 0 1 .723 0l2.337 1.75a1.5 1.5 0 0 0 2.169-.4l2.937-4.66c.282-.448-.268-.952-.689-.633l-3.155 2.396a.6.6 0 0 1-.723 0l-2.337-1.75a1.5 1.5 0 0 0-2.169.4l-2.937 4.66z"/>
        </symbol>

        <symbol id="twitter-fill" viewBox="0 0 24 24">
            <path d="M8.4,3.1H2.2l7.4,9.8l-7,8H5l5.7-6.5l4.9,6.5h6.2l-7.7-10.2l6.6-7.6h-2.4L13,9.2L8.4,3.1z M16.5,19.1L5.8,4.9h1.8l10.7,14.3 H16.5z"/>
		</symbol>

        <symbol id="twitter-line" viewBox="0 0 24 24">
            <path d="M8.4,3.1H2.2l7.4,9.8l-7,8H5l5.7-6.5l4.9,6.5h6.2l-7.7-10.2l6.6-7.6h-2.4L13,9.2L8.4,3.1z M16.5,19.1L5.8,4.9h1.8l10.7,14.3 H16.5z"/>
        </symbol>

        <symbol id="twitter-bird-fill" viewBox="0 0 24 24">
            <path d="M22.162 5.656a8.384 8.384 0 0 1-2.402.658A4.196 4.196 0 0 0 21.6 4c-.82.488-1.719.83-2.656 1.015a4.182 4.182 0 0 0-7.126 3.814 11.874 11.874 0 0 1-8.62-4.37 4.168 4.168 0 0 0-.566 2.103c0 1.45.738 2.731 1.86 3.481a4.168 4.168 0 0 1-1.894-.523v.052a4.185 4.185 0 0 0 3.355 4.101 4.21 4.21 0 0 1-1.89.072A4.185 4.185 0 0 0 7.97 16.65a8.394 8.394 0 0 1-6.191 1.732 11.83 11.83 0 0 0 6.41 1.88c7.693 0 11.9-6.373 11.9-11.9 0-.18-.005-.362-.013-.54a8.496 8.496 0 0 0 2.087-2.165z"/>
		</symbol>

        <symbol id="twitter-bird-line" viewBox="0 0 24 24">
            <path d="M15.3 5.55a2.9 2.9 0 0 0-2.9 2.847l-.028 1.575a.6.6 0 0 1-.68.583l-1.561-.212c-2.054-.28-4.022-1.226-5.91-2.799-.598 3.31.57 5.603 3.383 7.372l1.747 1.098a.6.6 0 0 1 .034.993L7.793 18.17c.947.059 1.846.017 2.592-.131 4.718-.942 7.855-4.492 7.855-10.348 0-.478-1.012-2.141-2.94-2.141zm-4.9 2.81a4.9 4.9 0 0 1 8.385-3.355c.711-.005 1.316.175 2.669-.645-.335 1.64-.5 2.352-1.214 3.331 0 7.642-4.697 11.358-9.463 12.309-3.268.652-8.02-.419-9.382-1.841.694-.054 3.514-.357 5.144-1.55C5.16 15.7-.329 12.47 3.278 3.786c1.693 1.977 3.41 3.323 5.15 4.037 1.158.475 1.442.465 1.973.538z"/>
		</symbol>

        <symbol id="linkedin-box-fill" viewBox="0 0 24 24">
            <path d="M18.335 18.339H15.67v-4.177c0-.996-.02-2.278-1.39-2.278-1.389 0-1.601 1.084-1.601 2.205v4.25h-2.666V9.75h2.56v1.17h.035c.358-.674 1.228-1.387 2.528-1.387 2.7 0 3.2 1.778 3.2 4.091v4.715zM7.003 8.575a1.546 1.546 0 0 1-1.548-1.549 1.548 1.548 0 1 1 1.547 1.549zm1.336 9.764H5.666V9.75H8.34v8.589zM19.67 3H4.329C3.593 3 3 3.58 3 4.297v15.406C3 20.42 3.594 21 4.328 21h15.338C20.4 21 21 20.42 21 19.703V4.297C21 3.58 20.4 3 19.666 3h.003z"/>
		</symbol>

        <symbol id="linkedin-box-line" viewBox="0 0 24 24">
            <path d="M4 3h16a1 1 0 0 1 1 1v16a1 1 0 0 1-1 1H4a1 1 0 0 1-1-1V4a1 1 0 0 1 1-1zm1 2v14h14V5H5zm2.5 4a1.5 1.5 0 1 1 0-3 1.5 1.5 0 0 1 0 3zm-1 1h2v7.5h-2V10zm5.5.43c.584-.565 1.266-.93 2-.93 2.071 0 3.5 1.679 3.5 3.75v4.25h-2v-4.25a1.75 1.75 0 0 0-3.5 0v4.25h-2V10h2v.43z"/>
		</symbol>

        <symbol id="linkedin-fill" viewBox="0 0 24 24">
            <path d="M6.94 5a2 2 0 1 1-4-.002 2 2 0 0 1 4 .002zM7 8.48H3V21h4V8.48zm6.32 0H9.34V21h3.94v-6.57c0-3.66 4.77-4 4.77 0V21H22v-7.93c0-6.17-7.06-5.94-8.72-2.91l.04-1.68z"/>
		</symbol>

        <symbol id="linkedin-line" viewBox="0 0 24 24">
            <path d="M12 9.55C12.917 8.613 14.111 8 15.5 8a5.5 5.5 0 0 1 5.5 5.5V21h-2v-7.5a3.5 3.5 0 0 0-7 0V21h-2V8.5h2v1.05zM5 6.5a1.5 1.5 0 1 1 0-3 1.5 1.5 0 0 1 0 3zm-1 2h2V21H4V8.5z"/>
		</symbol>

        <symbol id="instagram-fill" viewBox="0 0 24 24">
            <path d="M12 2c2.717 0 3.056.01 4.122.06 1.065.05 1.79.217 2.428.465.66.254 1.216.598 1.772 1.153a4.908 4.908 0 0 1 1.153 1.772c.247.637.415 1.363.465 2.428.047 1.066.06 1.405.06 4.122 0 2.717-.01 3.056-.06 4.122-.05 1.065-.218 1.79-.465 2.428a4.883 4.883 0 0 1-1.153 1.772 4.915 4.915 0 0 1-1.772 1.153c-.637.247-1.363.415-2.428.465-1.066.047-1.405.06-4.122.06-2.717 0-3.056-.01-4.122-.06-1.065-.05-1.79-.218-2.428-.465a4.89 4.89 0 0 1-1.772-1.153 4.904 4.904 0 0 1-1.153-1.772c-.248-.637-.415-1.363-.465-2.428C2.013 15.056 2 14.717 2 12c0-2.717.01-3.056.06-4.122.05-1.066.217-1.79.465-2.428a4.88 4.88 0 0 1 1.153-1.772A4.897 4.897 0 0 1 5.45 2.525c.638-.248 1.362-.415 2.428-.465C8.944 2.013 9.283 2 12 2zm0 5a5 5 0 1 0 0 10 5 5 0 0 0 0-10zm6.5-.25a1.25 1.25 0 0 0-2.5 0 1.25 1.25 0 0 0 2.5 0zM12 9a3 3 0 1 1 0 6 3 3 0 0 1 0-6z"/>
		</symbol>

        <symbol id="instagram-line" viewBox="0 0 24 24">
            <path d="M12 9a3 3 0 1 0 0 6 3 3 0 0 0 0-6zm0-2a5 5 0 1 1 0 10 5 5 0 0 1 0-10zm6.5-.25a1.25 1.25 0 0 1-2.5 0 1.25 1.25 0 0 1 2.5 0zM12 4c-2.474 0-2.878.007-4.029.058-.784.037-1.31.142-1.798.332-.434.168-.747.369-1.08.703a2.89 2.89 0 0 0-.704 1.08c-.19.49-.295 1.015-.331 1.798C4.006 9.075 4 9.461 4 12c0 2.474.007 2.878.058 4.029.037.783.142 1.31.331 1.797.17.435.37.748.702 1.08.337.336.65.537 1.08.703.494.191 1.02.297 1.8.333C9.075 19.994 9.461 20 12 20c2.474 0 2.878-.007 4.029-.058.782-.037 1.309-.142 1.797-.331.433-.169.748-.37 1.08-.702.337-.337.538-.65.704-1.08.19-.493.296-1.02.332-1.8.052-1.104.058-1.49.058-4.029 0-2.474-.007-2.878-.058-4.029-.037-.782-.142-1.31-.332-1.798a2.911 2.911 0 0 0-.703-1.08 2.884 2.884 0 0 0-1.08-.704c-.49-.19-1.016-.295-1.798-.331C14.925 4.006 14.539 4 12 4zm0-2c2.717 0 3.056.01 4.122.06 1.065.05 1.79.217 2.428.465.66.254 1.216.598 1.772 1.153a4.908 4.908 0 0 1 1.153 1.772c.247.637.415 1.363.465 2.428.047 1.066.06 1.405.06 4.122 0 2.717-.01 3.056-.06 4.122-.05 1.065-.218 1.79-.465 2.428a4.883 4.883 0 0 1-1.153 1.772 4.915 4.915 0 0 1-1.772 1.153c-.637.247-1.363.415-2.428.465-1.066.047-1.405.06-4.122.06-2.717 0-3.056-.01-4.122-.06-1.065-.05-1.79-.218-2.428-.465a4.89 4.89 0 0 1-1.772-1.153 4.904 4.904 0 0 1-1.153-1.772c-.248-.637-.415-1.363-.465-2.428C2.013 15.056 2 14.717 2 12c0-2.717.01-3.056.06-4.122.05-1.066.217-1.79.465-2.428a4.88 4.88 0 0 1 1.153-1.772A4.897 4.897 0 0 1 5.45 2.525c.638-.248 1.362-.415 2.428-.465C8.944 2.013 9.283 2 12 2z"/>
		</symbol>

        <symbol id="youtube-fill" viewBox="0 0 24 24">
            <path d="M21.543 6.498C22 8.28 22 12 22 12s0 3.72-.457 5.502c-.254.985-.997 1.76-1.938 2.022C17.896 20 12 20 12 20s-5.893 0-7.605-.476c-.945-.266-1.687-1.04-1.938-2.022C2 15.72 2 12 2 12s0-3.72.457-5.502c.254-.985.997-1.76 1.938-2.022C6.107 4 12 4 12 4s5.896 0 7.605.476c.945.266 1.687 1.04 1.938 2.022zM10 15.5l6-3.5-6-3.5v7z"/>
		</symbol>

        <symbol id="youtube-line" viewBox="0 0 24 24">
            <path d="M19.606 6.995c-.076-.298-.292-.523-.539-.592C18.63 6.28 16.5 6 12 6s-6.628.28-7.069.403c-.244.068-.46.293-.537.592C4.285 7.419 4 9.196 4 12s.285 4.58.394 5.006c.076.297.292.522.538.59C5.372 17.72 7.5 18 12 18s6.629-.28 7.069-.403c.244-.068.46-.293.537-.592C19.715 16.581 20 14.8 20 12s-.285-4.58-.394-5.005zm1.937-.497C22 8.28 22 12 22 12s0 3.72-.457 5.502c-.254.985-.997 1.76-1.938 2.022C17.896 20 12 20 12 20s-5.893 0-7.605-.476c-.945-.266-1.687-1.04-1.938-2.022C2 15.72 2 12 2 12s0-3.72.457-5.502c.254-.985.997-1.76 1.938-2.022C6.107 4 12 4 12 4s5.896 0 7.605.476c.945.266 1.687 1.04 1.938 2.022zM10 15.5v-7l6 3.5-6 3.5z"/>
		</symbol>

        <symbol id="vimeo-fill" viewBox="0 0 24 24">
            <path d="M1.173 8.301c-.281-.413-.252-.413.328-.922 1.232-1.082 2.394-2.266 3.736-3.212 1.215-.852 2.826-1.402 3.927-.047 1.014 1.249 1.038 3.142 1.295 4.65.257 1.564.503 3.164 1.051 4.66.152.421.443 1.217.968 1.284.678.093 1.368-1.096 1.683-1.54.817-1.18 1.925-2.769 1.785-4.286-.138-1.612-1.878-1.309-2.966-.924.175-1.809 1.858-3.843 3.48-4.53 1.72-.714 4.276-.702 5.14 1.237.923 2.102.093 4.543-.912 6.448-1.097 2.068-2.509 3.982-4.018 5.77-1.331 1.588-2.906 3.33-4.89 4.089-2.267.864-3.61-.82-4.382-2.77-.843-2.123-1.262-4.506-1.87-6.717-.256-.934-.56-1.997-1.167-2.768-.792-.995-1.692-.06-2.474.477-.269-.267-.491-.607-.714-.899z"/>\
        </symbol>

        <symbol id="vimeo-line" viewBox="0 0 24 24">
            <path d="M17.993 3.004c2.433 0 4.005 1.512 4.005 4.496 0 1.72-.998 3.94-1.832 5.235-2.789 4.333-6.233 8.74-9.643 8.74-3.706 0-4.67-6.831-5.092-8.432-.422-1.601-.533-2.21-1.17-3.233-.317.22-.76.529-1.33.93-.224.157-.533.105-.693-.117L.925 8.807C.789 8.62.8 8.363.952 8.187 3.779 4.915 6.128 3.278 8 3.278c2.392 0 3.124 2.816 3.324 4.223.3 2.117.69 4.738 1.244 5.872.557-.792 2.18-2.888 1.967-3.99-.094-.486-1.317.183-1.887.078-.425-.08-.806-.402-.806-1.026 0-1.31 1.852-5.43 6.151-5.43zm.007 2c-2.195 0-3.251 1.533-3.653 2.208 1.25.046 1.97.818 2.133 1.803.389 2.33-1.916 4.92-2.339 5.565-.396.603-3.061 3.328-4.25-3.36-.112-.629-.367-2.163-.665-4.186-.17-1.151-.873-1.763-1.23-1.763-.842 0-1.92.65-3.855 2.515 1.905-.115 2.545 2.276 2.916 3.633.816 2.984 1.571 8.056 3.62 8.056 1.727 0 4.439-2.646 7.37-7.04.209-.311 1.966-3.024 1.966-5.036 0-2.395-1.469-2.395-2.013-2.395z"/>
		</symbol>

        <symbol id="whatsapp-line" viewBox="0 0 24 24">
            <path d="M7.253 18.494l.724.423A7.953 7.953 0 0 0 12 20a8 8 0 1 0-8-8c0 1.436.377 2.813 1.084 4.024l.422.724-.653 2.401 2.4-.655zM2.004 22l1.352-4.968A9.954 9.954 0 0 1 2 12C2 6.477 6.477 2 12 2s10 4.477 10 10-4.477 10-10 10a9.954 9.954 0 0 1-5.03-1.355L2.004 22zM8.391 7.308c.134-.01.269-.01.403-.004.054.004.108.01.162.016.159.018.334.115.393.249.298.676.588 1.357.868 2.04.062.152.025.347-.093.537a4.38 4.38 0 0 1-.263.372c-.113.145-.356.411-.356.411s-.099.118-.061.265c.014.056.06.137.102.205l.059.095c.256.427.6.86 1.02 1.268.12.116.237.235.363.346.468.413.998.75 1.57 1l.005.002c.085.037.128.057.252.11.062.026.126.049.191.066a.35.35 0 0 0 .367-.13c.724-.877.79-.934.796-.934v.002a.482.482 0 0 1 .378-.127c.06.004.121.015.177.04.531.243 1.4.622 1.4.622l.582.261c.098.047.187.158.19.265.004.067.01.175-.013.373-.032.259-.11.57-.188.733a1.155 1.155 0 0 1-.21.302 2.378 2.378 0 0 1-.33.288 3.71 3.71 0 0 1-.125.09 5.024 5.024 0 0 1-.383.22 1.99 1.99 0 0 1-.833.23c-.185.01-.37.024-.556.014-.008 0-.568-.087-.568-.087a9.448 9.448 0 0 1-3.84-2.046c-.226-.199-.435-.413-.649-.626-.89-.885-1.562-1.84-1.97-2.742A3.47 3.47 0 0 1 6.9 9.62a2.729 2.729 0 0 1 .564-1.68c.073-.094.142-.192.261-.305.127-.12.207-.184.294-.228a.961.961 0 0 1 .371-.1z"/>
		</symbol>

        <symbol id="whatsapp-fill" viewBox="0 0 24 24">
            <path d="M2.004 22l1.352-4.968A9.954 9.954 0 0 1 2 12C2 6.477 6.477 2 12 2s10 4.477 10 10-4.477 10-10 10a9.954 9.954 0 0 1-5.03-1.355L2.004 22zM8.391 7.308a.961.961 0 0 0-.371.1 1.293 1.293 0 0 0-.294.228c-.12.113-.188.211-.261.306A2.729 2.729 0 0 0 6.9 9.62c.002.49.13.967.33 1.413.409.902 1.082 1.857 1.971 2.742.214.213.423.427.648.626a9.448 9.448 0 0 0 3.84 2.046l.569.087c.185.01.37-.004.556-.013a1.99 1.99 0 0 0 .833-.231c.166-.088.244-.132.383-.22 0 0 .043-.028.125-.09.135-.1.218-.171.33-.288.083-.086.155-.187.21-.302.078-.163.156-.474.188-.733.024-.198.017-.306.014-.373-.004-.107-.093-.218-.19-.265l-.582-.261s-.87-.379-1.401-.621a.498.498 0 0 0-.177-.041.482.482 0 0 0-.378.127v-.002c-.005 0-.072.057-.795.933a.35.35 0 0 1-.368.13 1.416 1.416 0 0 1-.191-.066c-.124-.052-.167-.072-.252-.109l-.005-.002a6.01 6.01 0 0 1-1.57-1c-.126-.11-.243-.23-.363-.346a6.296 6.296 0 0 1-1.02-1.268l-.059-.095a.923.923 0 0 1-.102-.205c-.038-.147.061-.265.061-.265s.243-.266.356-.41a4.38 4.38 0 0 0 .263-.373c.118-.19.155-.385.093-.536-.28-.684-.57-1.365-.868-2.041-.059-.134-.234-.23-.393-.249-.054-.006-.108-.012-.162-.016a3.385 3.385 0 0 0-.403.004z"/>
		</symbol>

        <symbol id="skype-fill" viewBox="0 0 24 24">
            <path d="M13.31 20.4a8.5 8.5 0 0 1-9.71-9.71 5.25 5.25 0 0 1 7.09-7.09 8.5 8.5 0 0 1 9.71 9.71 5.25 5.25 0 0 1-7.09 7.09zm-1.258-3.244h-.04c2.872 0 4.303-1.386 4.303-3.243 0-1.198-.551-2.471-2.726-2.958l-1.983-.44c-.755-.172-1.622-.4-1.622-1.115s.62-1.213 1.724-1.213c2.23 0 2.027 1.528 3.131 1.528.576 0 1.093-.342 1.093-.93 0-1.37-2.197-2.4-4.056-2.4-2.021 0-4.173.859-4.173 3.144 0 1.098.394 2.27 2.56 2.813l2.689.671c.816.202 1.018.659 1.018 1.072 0 .687-.684 1.358-1.918 1.358-2.417 0-2.078-1.857-3.374-1.857-.58 0-1.003.398-1.003.971 0 1.114 1.352 2.598 4.377 2.598z"/>
        </symbol>

        <symbol id="snapchat-fill" viewBox="0 0 24 24">
            <path d="M11.871 21.764c-1.19 0-1.984-.561-2.693-1.056-.503-.357-.976-.696-1.533-.79a4.568 4.568 0 0 0-.803-.066c-.472 0-.847.071-1.114.125-.17.03-.312.058-.424.058-.116 0-.263-.032-.32-.228-.05-.16-.081-.312-.112-.459-.08-.37-.147-.597-.286-.62-1.489-.227-2.38-.57-2.554-.976-.014-.044-.031-.09-.031-.125-.01-.125.08-.227.205-.25 1.181-.196 2.242-.824 3.138-1.858.696-.803 1.035-1.579 1.066-1.663 0-.01.009-.01.009-.01.17-.351.205-.65.102-.895-.191-.46-.825-.656-1.257-.79-.111-.03-.205-.066-.285-.093-.37-.147-.986-.46-.905-.892.058-.312.472-.535.811-.535.094 0 .174.014.24.05.38.173.723.262 1.017.262.366 0 .54-.138.584-.182a24.93 24.93 0 0 0-.035-.593c-.09-1.365-.192-3.059.24-4.03 1.298-2.907 4.053-3.14 4.869-3.14L12.156 3h.05c.815 0 3.57.227 4.868 3.139.437.971.33 2.67.24 4.03l-.008.067c-.01.182-.023.356-.032.535.045.035.205.169.535.173.286-.008.598-.102.954-.263a.804.804 0 0 1 .312-.066c.125 0 .25.03.357.066h.009c.299.112.495.321.495.54.009.205-.152.517-.914.825-.08.03-.174.067-.285.093-.424.13-1.057.335-1.258.79-.111.24-.066.548.103.895 0 .01.009.01.009.01.049.124 1.337 3.049 4.204 3.526a.246.246 0 0 1 .205.25c0 .044-.009.089-.031.129-.174.41-1.057.744-2.555.976-.138.022-.205.25-.285.62a6.831 6.831 0 0 1-.112.459c-.044.147-.138.227-.298.227h-.023c-.102 0-.24-.013-.423-.049a5.285 5.285 0 0 0-1.115-.116c-.263 0-.535.023-.802.067-.553.09-1.03.433-1.534.79-.717.49-1.515 1.051-2.697 1.051h-.254z"/>
        </symbol>

        <symbol id="pinterest-fill" viewBox="0 0 24 24">
            <path d="M13.37 2.094A10.003 10.003 0 0 0 8.002 21.17a7.757 7.757 0 0 1 .163-2.293c.185-.839 1.296-5.463 1.296-5.463a3.739 3.739 0 0 1-.324-1.577c0-1.485.857-2.593 1.923-2.593a1.334 1.334 0 0 1 1.342 1.508c0 .9-.578 2.262-.88 3.54a1.544 1.544 0 0 0 1.575 1.923c1.898 0 3.17-2.431 3.17-5.301 0-2.2-1.457-3.848-4.143-3.848a4.746 4.746 0 0 0-4.93 4.794 2.96 2.96 0 0 0 .648 1.97.48.48 0 0 1 .162.554c-.046.184-.162.623-.208.784a.354.354 0 0 1-.51.254c-1.384-.554-2.036-2.077-2.036-3.816 0-2.847 2.384-6.255 7.154-6.255 3.796 0 6.32 2.777 6.32 5.747 0 3.909-2.177 6.848-5.394 6.848a2.861 2.861 0 0 1-2.454-1.246s-.578 2.316-.692 2.754a8.026 8.026 0 0 1-1.019 2.131c.923.28 1.882.42 2.846.416a9.988 9.988 0 0 0 9.996-10.003 10.002 10.002 0 0 0-8.635-9.903z"/>
		</symbol>

        <symbol id="pinterest-line" viewBox="0 0 24 24">
            <path d="M8.49 19.191c.024-.336.072-.671.144-1.001.063-.295.254-1.13.534-2.34l.007-.03.387-1.668c.079-.34.14-.604.181-.692a3.46 3.46 0 0 1-.284-1.423c0-1.337.756-2.373 1.736-2.373.36-.006.704.15.942.426.238.275.348.644.302.996 0 .453-.085.798-.453 2.035-.071.238-.12.404-.166.571-.051.188-.095.358-.132.522-.096.386-.008.797.237 1.106a1.2 1.2 0 0 0 1.006.456c1.492 0 2.6-1.985 2.6-4.548 0-1.97-1.29-3.274-3.432-3.274A3.878 3.878 0 0 0 9.2 9.1a4.13 4.13 0 0 0-1.195 2.961 2.553 2.553 0 0 0 .512 1.644c.181.14.25.383.175.59-.041.168-.14.552-.176.68a.41.41 0 0 1-.216.297.388.388 0 0 1-.355.002c-1.16-.479-1.796-1.778-1.796-3.44 0-2.985 2.491-5.584 6.192-5.584 3.135 0 5.481 2.329 5.481 5.14 0 3.532-1.932 6.104-4.69 6.104a2.508 2.508 0 0 1-2.046-.959l-.043.177-.207.852-.002.007c-.146.6-.248 1.017-.288 1.174-.106.355-.24.703-.4 1.04a8 8 0 1 0-1.656-.593zM12 22C6.477 22 2 17.523 2 12S6.477 2 12 2s10 4.477 10 10-4.477 10-10 10z"/>
		</symbol>

        <symbol id="tiktok-line" viewBox="0 0 24 24">
            <path d="M14,19h5V5H5v14h7 M4,3h16c0.6,0,1,0.4,1,1v16c0,0.6-0.4,1-1,1H4c-0.6,0-1-0.4-1-1V4C3,3.4,3.4,3,4,3z M17.1,10.8 c-0.1,0-0.2,0-0.3,0c-1.1,0-2-0.5-2.5-1.4c0,2.2,0,4.6,0,4.7c0,1.9-1.5,3.5-3.5,3.5c-1.9,0-3.5-1.5-3.5-3.5c0-1.9,1.5-3.5,3.5-3.5 c0.1,0,0.1,0,0.2,0v1.7c-0.1,0-0.1,0-0.2,0c-1,0-1.8,0.8-1.8,1.8s0.8,1.8,1.8,1.8s1.8-0.8,1.8-1.7c0,0,0-7.9,0-7.9h1.6 c0.2,1.5,1.3,2.6,2.8,2.7V10.8z"/>
        </symbol>

        <symbol id="tiktok-fill" viewBox="0 0 24 24">
            <path d="M20,3H4C3.4,3,3,3.4,3,4v16c0,0.6,0.4,1,1,1h16c0.6,0,1-0.4,1-1V4C21,3.4,20.6,3,20,3z M17.1,10.8c-0.1,0-0.2,0-0.3,0 c-1.1,0-2-0.5-2.5-1.4c0,2.2,0,4.6,0,4.7c0,1.9-1.5,3.5-3.5,3.5c-1.9,0-3.5-1.5-3.5-3.5c0-1.9,1.5-3.5,3.5-3.5c0.1,0,0.1,0,0.2,0 v1.7c-0.1,0-0.1,0-0.2,0c-1,0-1.8,0.8-1.8,1.8s0.8,1.8,1.8,1.8s1.8-0.8,1.8-1.7c0,0,0-7.9,0-7.9h1.6c0.2,1.5,1.3,2.6,2.8,2.7V10.8z"/>
        </symbol>

        <symbol id="soundcloud-line" viewBox="0 0 24 24">
            <path d="M4 10a1 1 0 0 1 1 1v7a1 1 0 0 1-2 0v-7a1 1 0 0 1 1-1zm3 1a1 1 0 0 1 1 1v6a1 1 0 0 1-2 0v-6a1 1 0 0 1 1-1zm3-4a1 1 0 0 1 1 1v10a1 1 0 0 1-2 0V8a1 1 0 0 1 1-1zm5-1a6 6 0 0 1 5.996 5.775l.003.26a3.5 3.5 0 0 1-.307 6.96L20.5 19h-3.501a1 1 0 0 1-.117-1.993L17 17h3.447l.138-.002a1.5 1.5 0 0 0 .267-2.957l-.135-.026-1.77-.252.053-1.787-.004-.176A4 4 0 0 0 15.2 8.005L15 8c-.268 0-.531.026-.788.077L14 8.126V18a1 1 0 0 1-.883.993L13 19a1 1 0 0 1-1-1l-.001-11.197A5.972 5.972 0 0 1 15 6zM1 12a1 1 0 0 1 1 1v4a1 1 0 0 1-2 0v-4a1 1 0 0 1 1-1z"/>
        </symbol>

        <symbol id="soundcloud-fill" viewBox="0 0 24 24">
            <path d="M10.464 8.596c.265 0 .48 2.106.48 4.704l-.001.351c-.019 2.434-.226 4.353-.479 4.353-.256 0-.465-1.965-.48-4.44v-.352c.005-2.558.218-4.616.48-4.616zm-1.664.96c.259 0 .47 1.8.48 4.054v.34c-.01 2.254-.221 4.054-.48 4.054-.255 0-.464-1.755-.48-3.97v-.34l.002-.34c.025-2.133.23-3.798.478-3.798zm-1.664 0c.255 0 .464 1.755.48 3.97v.34l-.002.34c-.025 2.133-.23 3.798-.478 3.798-.259 0-.47-1.8-.48-4.054v-.34c.01-2.254.221-4.054.48-4.054zm-1.664.576c.265 0 .48 1.762.48 3.936l-.002.335c-.02 2.017-.227 3.601-.478 3.601-.262 0-.474-1.717-.48-3.852v-.168c.006-2.135.218-3.852.48-3.852zM3.808 11.86c.265 0 .48 1.375.48 3.072v.158c-.013 1.623-.223 2.914-.48 2.914-.265 0-.48-1.375-.48-3.072v-.158c.013-1.623.223-2.914.48-2.914zm10.784-4.8c2.58 0 4.72 1.886 5.118 4.354a3.36 3.36 0 1 1 .993 6.589l-.063.001h-8.16a.768.768 0 0 1-.768-.768V7.933a5.16 5.16 0 0 1 2.88-.873zM2.144 11.668c.265 0 .48 1.332.48 2.976v.156c-.014 1.57-.223 2.82-.48 2.82-.26 0-.473-1.29-.48-2.898v-.078c0-1.644.215-2.976.48-2.976zm-1.664.96c.265 0 .48.946.48 2.112v.131c-.016 1.105-.225 1.981-.48 1.981-.265 0-.48-.946-.48-2.112v-.131c.016-1.105.225-1.981.48-1.981z"/>
        </symbol>

        <symbol id="smartschool" viewBox="0 0 24 24">
            <path d="M19.3 2.9h-14.6c-1 0-1.8 0.8-1.8 1.8v14.5c0 1 0.8 1.8 1.8 1.8h14.5c1 0 1.8-0.8 1.8-1.8v-14.5c0.1-1-0.7-1.8-1.7-1.8zM11.4 18.6c-1.4 0-2.9-0.4-3.6-0.9v0l0.6-2c0.8 0.5 2 0.9 3.2 0.9 1.5 0 2.4-0.7 2.4-1.8 0-1-0.7-1.6-2.4-2.2-2.2-0.7-3.6-1.8-3.6-3.7 0-2.2 1.8-3.7 4.7-3.7 1.5 0 2.5 0.3 3.2 0.7l-0.6 1.9c-0.5-0.2-1.4-0.6-2.7-0.6-1.5 0-2.2 0.8-2.2 1.6 0 1 0.8 1.5 2.6 2.2 2.3 0.9 3.4 2 3.4 3.9 0.1 1.9-1.6 3.7-5 3.7z"></path>
        </symbol>

        <symbol id="bingel" viewBox="0 0 24 24">
            <path d="M12.3 11.6c-0.3-0.1-0.6-0.1-0.9-0.1h-0.1v4.4h0.1c0.3 0 0.7 0 1-0.1 0.2 0 0.4-0.1 0.6-0.3 0.1 0 0.1-0.2 0.1-0.5v-2.6c0-0.2 0-0.4-0.1-0.5-0.4-0.2-0.6-0.3-0.7-0.3zM15.1 10.2c-0.1-0.1-0.3-0.2-0.4-0.3-0.2-0.1-0.5-0.3-0.8-0.3-0.2-0.1-0.5-0.1-0.8-0.2-0.2 0-0.5-0.1-0.7-0.1s-0.5 0-0.7 0h-1.5v-3.3h-2.1v12.3h3.6c0.4 0 0.8 0 1.2-0.1 0.5 0 1-0.2 1.4-0.4 0.2-0.1 0.4-0.2 0.7-0.4v0c0.2-0.1 0.4-0.3 0.5-0.6 0.1-0.2 0.3-0.5 0.4-0.8s0.1-0.6 0.1-0.9v-2.7c0-0.7-0.1-1.2-0.5-1.7-0.1-0.2-0.2-0.3-0.4-0.5zM13.9 15c0 0.5-0.1 0.9-0.4 1.2s-0.6 0.4-1 0.5c-0.4 0.1-0.8 0.1-1.2 0.1h-1.1v-6.4c0.3 0 0.6 0 1.1 0 0.4 0 0.8 0 1.2 0.1s0.7 0.3 1 0.5 0.4 0.7 0.4 1.2v2.8zM17.8 8.9c-0.2-0.3-0.5-0.6-0.8-0.9-0.2-0.2-0.5-0.4-0.9-0.6-0.4-0.3-0.9-0.5-1.4-0.6-0.4-0.1-0.7-0.2-1.1-0.3-0.1 0-0.3 0-0.5-0.1v-0.5c0-1.6-1.3-2.9-2.9-2.9h-2.1c-1.5 0-2.8 1.3-2.8 2.9v12.3c0 1.6 1.3 2.9 2.9 2.9h3.6c0.5 0 1.1 0 1.6-0.1 0.8-0.1 1.5-0.3 2.2-0.7 0.4-0.2 0.8-0.4 1.1-0.7 0.4-0.3 0.9-0.8 1.1-1.2 0.3-0.5 0.6-1 0.8-1.5 0.2-0.6 0.2-1.2 0.2-1.8v-2.7c0-1.4-0.3-2.5-1-3.5zM16.9 15c0 0.4 0 0.8-0.2 1.2-0.1 0.4-0.3 0.7-0.5 1s-0.5 0.6-0.8 0.8c-0.2 0.2-0.5 0.4-0.8 0.5-0.5 0.2-1.1 0.4-1.7 0.5-0.4 0-0.9 0.1-1.3 0.1v0h-3.5c-0.5 0-1-0.4-1-1v-12.3c0-0.5 0.4-1 1-1h2.1c0.5 0 1 0.4 1 1v2.3h0.5c0.2 0 0.5 0 0.7 0 0.3 0 0.6 0 0.9 0.1 0.3 0 0.6 0.1 0.9 0.2s0.7 0.2 1 0.4c0.2 0.1 0.4 0.3 0.6 0.4 0.2 0.2 0.4 0.4 0.5 0.6 0.4 0.6 0.7 1.4 0.7 2.2v3z"></path>
        </symbol>

        <symbol id="pablet" viewBox="0 0 24 24">
            <path d="M11.2 3v0c0.3 0 0.5 0.2 0.6 0.4l4.8 11.3-0.1 0.4-1.5 5.8c-0.1 0.6-0.7 1-1.3 0.8l-2.5-0.6-2.5 0.6c-0.6 0.1-1.2-0.2-1.3-0.8l-1.6-5.8-0.1-0.4 4.8-11.3c0.1-0.2 0.4-0.4 0.7-0.4v0zM6.1 14.8l4.8 1.4 0.3 4.5 0.3-4.4 4.8-1.4-4.8 0.9-0.4-11.8-0.2 11.7-4.8-0.9zM15.9 11.2l3.5-1.5h2.6l-5.8 9.1 1.2-4-1.5-3.6zM22.1 9.6l1.5 2.8c0.1 0.3-0.1 0.6-0.4 0.4l-1.7-0.8 0.6-2.4zM4.9 14.7l1.2 4.1-5.8-10.1c-0.2-0.4 0.2-0.8 0.6-0.6l5.6 3.1-1.6 3.5z"></path>
        </symbol>

        <symbol id="scoodle" viewBox="0 0 24 24">
            <path opacity="0.61" d="M3.2 17.9l-1.8-8.3 10.8-7.4z"></path>
            <path opacity="0.33" d="M12.2 2.2l7.1 13.1-7.1 6.7-7-6.7z"></path>
            <path opacity="0.72" d="M12.2 2.2l7.1 13.1-7.1 6.7z"></path>
            <path d="M21.2 17.9l1.9-8.3-10.8-7.4z"></path>
        </symbol>

        <symbol id="spotify-fill" viewBox="0 0 24 24">
            <path d="M12 2C6.5 2 2 6.5 2 12s4.5 10 10 10 10-4.5 10-10S17.55 2 12 2zm3.75 14.65c-2.35-1.45-5.3-1.75-8.8-.95-.35.1-.65-.15-.75-.45-.1-.35.15-.65.45-.75 3.8-.85 7.1-.5 9.7 1.1.35.15.4.55.25.85-.2.3-.55.4-.85.2zm1-2.7c-2.7-1.65-6.8-2.15-9.95-1.15-.4.1-.85-.1-.95-.5-.1-.4.1-.85.5-.95 3.65-1.1 8.15-.55 11.25 1.35.3.15.45.65.2 1s-.7.5-1.05.25zM6.3 9.75c-.5.15-1-.15-1.15-.6-.15-.5.15-1 .6-1.15 3.55-1.05 9.4-.85 13.1 1.35.45.25.6.85.35 1.3-.25.35-.85.5-1.3.25C14.7 9 9.35 8.8 6.3 9.75z"/>
        </symbol>

        <symbol id="spotify-line" viewBox="0 0 24 24">
            <path d="M12 2c5.55 0 10 4.5 10 10s-4.5 10-10 10S2 17.5 2 12 6.5 2 12 2zm0 2c-4.395 0-8 3.605-8 8s3.605 8 8 8 8-3.605 8-8c0-4.414-3.573-8-8-8zm3.75 12.65c-2.35-1.45-5.3-1.75-8.8-.95-.35.1-.65-.15-.75-.45-.1-.35.15-.65.45-.75 3.8-.85 7.1-.5 9.7 1.1.35.15.4.55.25.85-.2.3-.55.4-.85.2zm1-2.7c-2.7-1.65-6.8-2.15-9.95-1.15-.4.1-.85-.1-.95-.5-.1-.4.1-.85.5-.95 3.65-1.1 8.15-.55 11.25 1.35.3.15.45.65.2 1s-.7.5-1.05.25zM6.3 9.75c-.5.15-1-.15-1.15-.6-.15-.5.15-1 .6-1.15 3.55-1.05 9.4-.85 13.1 1.35.45.25.6.85.35 1.3-.25.35-.85.5-1.3.25C14.7 9 9.35 8.8 6.3 9.75z"/>
        </symbol>

        <symbol id="hoplr-line" viewBox="0 0 24 24">
            <path d="M12.1,2.1c0.7,0,1.4,0.3,1.9,0.8c1.4,1.3,2.9,2.6,4.3,3.9c1.3,1.2,2.1,3,2.1,4.8c0,1.9,0,3.8,0,5.7c0,2.5-2.1,4.7-4.7,4.7c-2.5,0-5,0-7.4,0c-2.4,0-4.7-2.1-4.7-4.7c0-1.9,0-3.8,0-5.7c0-1.8,0.8-3.6,2.1-4.8c1.4-1.3,2.9-2.5,4.3-3.9C10.6,2.3,11.3,2.1,12.1,2.1L12.1,2.1L12.1,2.1z M12,4.8c-0.1,0-0.1,0-0.2,0.1c-1.4,1.2-2.9,2.5-4.3,3.9c-0.8,0.7-1.2,1.8-1.2,2.8c0,1.9,0,3.8,0,5.6c0,1.1,1,2.1,2.1,2.1c2.5,0,5,0,7.4,0c1,0,2-1,2.1-2.1c0-1.9,0-3.8,0-5.6c0-1-0.5-2.1-1.2-2.8c-1.4-1.3-2.9-2.5-4.3-3.9C12.1,4.8,12.1,4.8,12,4.8z"/>
        </symbol>

        <symbol id="hoplr-fill" viewBox="0 0 24 24">
            <path d="M12.1,2.1c0.7,0,1.4,0.3,1.9,0.8c1.4,1.3,2.9,2.6,4.3,3.9c1.3,1.2,2.1,3,2.1,4.8c0,1.9,0,3.8,0,5.7c0,2.5-2.1,4.7-4.7,4.7c-2.5,0-5,0-7.4,0c-2.4,0-4.7-2.1-4.7-4.7c0-1.9,0-3.8,0-5.7c0-1.8,0.8-3.6,2.1-4.8c1.4-1.3,2.9-2.5,4.3-3.9C10.6,2.3,11.3,2.1,12.1,2.1L12.1,2.1L12.1,2.1z M12,4.8c-0.1,0-0.1,0-0.2,0.1c-1.4,1.2-2.9,2.5-4.3,3.9c-0.8,0.7-1.2,1.8-1.2,2.8c0,1.9,0,3.8,0,5.6c0,1.1,1,2.1,2.1,2.1c2.5,0,5,0,7.4,0c1,0,2-1,2.1-2.1c0-1.9,0-3.8,0-5.6c0-1-0.5-2.1-1.2-2.8c-1.4-1.3-2.9-2.5-4.3-3.9C12.1,4.8,12.1,4.8,12,4.8z"/>
        </symbol>
		<symbol id="mail-line" viewBox="0 0 24 24">
			<path d="M3 3h18a1 1 0 0 1 1 1v16a1 1 0 0 1-1 1H3a1 1 0 0 1-1-1V4a1 1 0 0 1 1-1zm17 4.238l-7.928 7.1L4 7.216V19h16V7.238zM4.511 5l7.55 6.662L19.502 5H4.511z" />
		</symbol>
		<symbol id="mail-fill" viewBox="0 0 24 24">
			<path d="M3 3h18a1 1 0 0 1 1 1v16a1 1 0 0 1-1 1H3a1 1 0 0 1-1-1V4a1 1 0 0 1 1-1zm9.06 8.683L5.648 6.238 4.353 7.762l7.72 6.555 7.581-6.56-1.308-1.513-6.285 5.439z" />
		</symbol>
    </defs>
</svg>
